<mxfile host="Electron" modified="2023-05-03T16:05:15.140Z" agent="Mozilla/5.0 (Windows NT 10.0; Win64; x64) AppleWebKit/537.36 (KHTML, like Gecko) draw.io/21.1.2 Chrome/106.0.5249.199 Electron/21.4.3 Safari/537.36" etag="L5bkx6GYuMKPqe1LYGjh" version="21.1.2" type="device">
  <diagram name="Page-1" id="Nons_f09TwBj20bWraOR">
    <mxGraphModel dx="2408" dy="1612" grid="1" gridSize="10" guides="1" tooltips="1" connect="1" arrows="1" fold="1" page="1" pageScale="1" pageWidth="5000" pageHeight="5000" math="0" shadow="0">
      <root>
        <mxCell id="0" />
        <mxCell id="1" parent="0" />
        <mxCell id="jyhcjFRo0degACT71_Zv-7" value="&lt;p style=&quot;margin:0px;margin-top:6px;text-align:center;&quot;&gt;&lt;b&gt;&amp;nbsp; &amp;nbsp; &amp;nbsp; &amp;nbsp; &amp;nbsp; &amp;nbsp; &amp;nbsp; &amp;nbsp; &amp;lt;&amp;lt;System&amp;gt;&amp;gt;&amp;nbsp;&lt;/b&gt;&lt;/p&gt;&lt;hr&gt;&lt;p style=&quot;margin:0px;margin-left:8px;&quot;&gt;&lt;br&gt;&lt;/p&gt;" style="align=left;overflow=fill;html=1;dropTarget=0;whiteSpace=wrap;" vertex="1" parent="1">
          <mxGeometry x="1730" y="1540" width="1400" height="2490" as="geometry" />
        </mxCell>
        <mxCell id="jyhcjFRo0degACT71_Zv-8" value="" style="shape=component;jettyWidth=8;jettyHeight=4;" vertex="1" parent="jyhcjFRo0degACT71_Zv-7">
          <mxGeometry x="1" width="20" height="20" relative="1" as="geometry">
            <mxPoint x="-24" y="4" as="offset" />
          </mxGeometry>
        </mxCell>
        <mxCell id="qQ9N42Zz9jeaZzvQYdQ--3" value="&lt;p style=&quot;margin:0px;margin-top:6px;text-align:center;&quot;&gt;&lt;b&gt;&amp;lt;&amp;lt;SubSystem&amp;gt;&amp;gt; On-Site Security&lt;/b&gt;&lt;/p&gt;&lt;hr&gt;&lt;p style=&quot;margin:0px;margin-left:8px;&quot;&gt;&lt;br&gt;&lt;/p&gt;" style="align=left;overflow=fill;html=1;dropTarget=0;whiteSpace=wrap;" parent="1" vertex="1">
          <mxGeometry x="1860" y="1700" width="380" height="410" as="geometry" />
        </mxCell>
        <mxCell id="qQ9N42Zz9jeaZzvQYdQ--4" value="" style="shape=component;jettyWidth=8;jettyHeight=4;" parent="qQ9N42Zz9jeaZzvQYdQ--3" vertex="1">
          <mxGeometry x="1" width="20" height="20" relative="1" as="geometry">
            <mxPoint x="-24" y="4" as="offset" />
          </mxGeometry>
        </mxCell>
        <mxCell id="qQ9N42Zz9jeaZzvQYdQ--5" value="DataBase" style="html=1;whiteSpace=wrap;" parent="1" vertex="1">
          <mxGeometry x="2357" y="1700" width="110" height="2300" as="geometry" />
        </mxCell>
        <mxCell id="qQ9N42Zz9jeaZzvQYdQ--6" value="«Component»&lt;br&gt;&lt;b&gt;Camera Monitoring&lt;/b&gt;" style="html=1;dropTarget=0;whiteSpace=wrap;" parent="1" vertex="1">
          <mxGeometry x="1940" y="1768" width="180" height="90" as="geometry" />
        </mxCell>
        <mxCell id="qQ9N42Zz9jeaZzvQYdQ--7" value="" style="shape=module;jettyWidth=8;jettyHeight=4;" parent="qQ9N42Zz9jeaZzvQYdQ--6" vertex="1">
          <mxGeometry x="1" width="20" height="20" relative="1" as="geometry">
            <mxPoint x="-27" y="7" as="offset" />
          </mxGeometry>
        </mxCell>
        <mxCell id="qQ9N42Zz9jeaZzvQYdQ--8" value="«Component»&lt;br&gt;&lt;b&gt;Employee Attendance&lt;/b&gt;" style="html=1;dropTarget=0;whiteSpace=wrap;" parent="1" vertex="1">
          <mxGeometry x="1940" y="1986" width="180" height="90" as="geometry" />
        </mxCell>
        <mxCell id="qQ9N42Zz9jeaZzvQYdQ--9" value="" style="shape=module;jettyWidth=8;jettyHeight=4;" parent="qQ9N42Zz9jeaZzvQYdQ--8" vertex="1">
          <mxGeometry x="1" width="20" height="20" relative="1" as="geometry">
            <mxPoint x="-27" y="7" as="offset" />
          </mxGeometry>
        </mxCell>
        <mxCell id="qQ9N42Zz9jeaZzvQYdQ--10" value="" style="whiteSpace=wrap;html=1;aspect=fixed;" parent="1" vertex="1">
          <mxGeometry x="2115" y="1782.5" width="15" height="15" as="geometry" />
        </mxCell>
        <mxCell id="qQ9N42Zz9jeaZzvQYdQ--11" value="" style="whiteSpace=wrap;html=1;aspect=fixed;" parent="1" vertex="1">
          <mxGeometry x="2232" y="1782.5" width="15" height="15" as="geometry" />
        </mxCell>
        <mxCell id="qQ9N42Zz9jeaZzvQYdQ--12" value="" style="rounded=0;orthogonalLoop=1;jettySize=auto;html=1;endArrow=none;endFill=0;sketch=0;sourcePerimeterSpacing=0;targetPerimeterSpacing=0;exitX=1;exitY=0.5;exitDx=0;exitDy=0;" parent="1" source="qQ9N42Zz9jeaZzvQYdQ--10" target="qQ9N42Zz9jeaZzvQYdQ--14" edge="1">
          <mxGeometry relative="1" as="geometry">
            <mxPoint x="2225" y="1840" as="sourcePoint" />
          </mxGeometry>
        </mxCell>
        <mxCell id="qQ9N42Zz9jeaZzvQYdQ--14" value="" style="ellipse;whiteSpace=wrap;html=1;align=center;aspect=fixed;resizable=0;points=[];outlineConnect=0;sketch=0;" parent="1" vertex="1">
          <mxGeometry x="2174" y="1785" width="10" height="10" as="geometry" />
        </mxCell>
        <mxCell id="qQ9N42Zz9jeaZzvQYdQ--15" value="" style="endArrow=none;html=1;rounded=0;entryX=0;entryY=0.5;entryDx=0;entryDy=0;" parent="1" source="qQ9N42Zz9jeaZzvQYdQ--14" target="qQ9N42Zz9jeaZzvQYdQ--11" edge="1">
          <mxGeometry width="50" height="50" relative="1" as="geometry">
            <mxPoint x="2185" y="1825" as="sourcePoint" />
            <mxPoint x="2235" y="1775" as="targetPoint" />
          </mxGeometry>
        </mxCell>
        <mxCell id="qQ9N42Zz9jeaZzvQYdQ--16" value="" style="whiteSpace=wrap;html=1;aspect=fixed;" parent="1" vertex="1">
          <mxGeometry x="2116" y="1827.5" width="15" height="15" as="geometry" />
        </mxCell>
        <mxCell id="qQ9N42Zz9jeaZzvQYdQ--17" value="" style="whiteSpace=wrap;html=1;aspect=fixed;" parent="1" vertex="1">
          <mxGeometry x="2232" y="1827.5" width="15" height="15" as="geometry" />
        </mxCell>
        <mxCell id="qQ9N42Zz9jeaZzvQYdQ--21" value="" style="rounded=0;orthogonalLoop=1;jettySize=auto;html=1;endArrow=none;endFill=0;sketch=0;sourcePerimeterSpacing=0;targetPerimeterSpacing=0;exitX=0;exitY=0.5;exitDx=0;exitDy=0;" parent="1" source="qQ9N42Zz9jeaZzvQYdQ--17" target="qQ9N42Zz9jeaZzvQYdQ--23" edge="1">
          <mxGeometry relative="1" as="geometry">
            <mxPoint x="2159" y="1836" as="sourcePoint" />
          </mxGeometry>
        </mxCell>
        <mxCell id="qQ9N42Zz9jeaZzvQYdQ--22" value="" style="rounded=0;orthogonalLoop=1;jettySize=auto;html=1;endArrow=halfCircle;endFill=0;entryX=0.5;entryY=0.5;endSize=6;strokeWidth=1;sketch=0;exitX=1;exitY=0.5;exitDx=0;exitDy=0;" parent="1" source="qQ9N42Zz9jeaZzvQYdQ--16" target="qQ9N42Zz9jeaZzvQYdQ--23" edge="1">
          <mxGeometry relative="1" as="geometry">
            <mxPoint x="2199" y="1836" as="sourcePoint" />
          </mxGeometry>
        </mxCell>
        <mxCell id="qQ9N42Zz9jeaZzvQYdQ--23" value="" style="ellipse;whiteSpace=wrap;html=1;align=center;aspect=fixed;resizable=0;points=[];outlineConnect=0;sketch=0;" parent="1" vertex="1">
          <mxGeometry x="2174" y="1830" width="10" height="10" as="geometry" />
        </mxCell>
        <mxCell id="qQ9N42Zz9jeaZzvQYdQ--25" value="" style="rounded=0;orthogonalLoop=1;jettySize=auto;html=1;endArrow=none;endFill=0;sketch=0;sourcePerimeterSpacing=0;targetPerimeterSpacing=0;" parent="1" target="qQ9N42Zz9jeaZzvQYdQ--27" edge="1">
          <mxGeometry relative="1" as="geometry">
            <mxPoint x="2287" y="1790" as="sourcePoint" />
          </mxGeometry>
        </mxCell>
        <mxCell id="qQ9N42Zz9jeaZzvQYdQ--26" value="" style="rounded=0;orthogonalLoop=1;jettySize=auto;html=1;endArrow=halfCircle;endFill=0;entryX=0.5;entryY=0.5;endSize=6;strokeWidth=1;sketch=0;" parent="1" target="qQ9N42Zz9jeaZzvQYdQ--27" edge="1">
          <mxGeometry relative="1" as="geometry">
            <mxPoint x="2327" y="1790" as="sourcePoint" />
          </mxGeometry>
        </mxCell>
        <mxCell id="qQ9N42Zz9jeaZzvQYdQ--27" value="" style="ellipse;whiteSpace=wrap;html=1;align=center;aspect=fixed;resizable=0;points=[];outlineConnect=0;sketch=0;" parent="1" vertex="1">
          <mxGeometry x="2302" y="1785" width="10" height="10" as="geometry" />
        </mxCell>
        <mxCell id="qQ9N42Zz9jeaZzvQYdQ--28" value="" style="endArrow=none;html=1;rounded=0;exitX=1;exitY=0.5;exitDx=0;exitDy=0;" parent="1" source="qQ9N42Zz9jeaZzvQYdQ--11" target="qQ9N42Zz9jeaZzvQYdQ--27" edge="1">
          <mxGeometry width="50" height="50" relative="1" as="geometry">
            <mxPoint x="2250" y="1798" as="sourcePoint" />
            <mxPoint x="2290" y="1788" as="targetPoint" />
          </mxGeometry>
        </mxCell>
        <mxCell id="qQ9N42Zz9jeaZzvQYdQ--30" value="" style="whiteSpace=wrap;html=1;aspect=fixed;" parent="1" vertex="1">
          <mxGeometry x="2349" y="1782.5" width="15" height="15" as="geometry" />
        </mxCell>
        <mxCell id="qQ9N42Zz9jeaZzvQYdQ--31" value="" style="endArrow=none;html=1;rounded=0;entryX=0;entryY=0.5;entryDx=0;entryDy=0;" parent="1" target="qQ9N42Zz9jeaZzvQYdQ--30" edge="1">
          <mxGeometry width="50" height="50" relative="1" as="geometry">
            <mxPoint x="2320" y="1790" as="sourcePoint" />
            <mxPoint x="2350" y="1768" as="targetPoint" />
          </mxGeometry>
        </mxCell>
        <mxCell id="qQ9N42Zz9jeaZzvQYdQ--32" value="" style="whiteSpace=wrap;html=1;aspect=fixed;" parent="1" vertex="1">
          <mxGeometry x="2349" y="1827.5" width="15" height="15" as="geometry" />
        </mxCell>
        <mxCell id="qQ9N42Zz9jeaZzvQYdQ--33" value="" style="rounded=0;orthogonalLoop=1;jettySize=auto;html=1;endArrow=none;endFill=0;sketch=0;sourcePerimeterSpacing=0;targetPerimeterSpacing=0;exitX=1;exitY=0.5;exitDx=0;exitDy=0;" parent="1" source="qQ9N42Zz9jeaZzvQYdQ--17" target="qQ9N42Zz9jeaZzvQYdQ--34" edge="1">
          <mxGeometry relative="1" as="geometry">
            <mxPoint x="2244" y="1835" as="sourcePoint" />
          </mxGeometry>
        </mxCell>
        <mxCell id="qQ9N42Zz9jeaZzvQYdQ--34" value="" style="ellipse;whiteSpace=wrap;html=1;align=center;aspect=fixed;resizable=0;points=[];outlineConnect=0;sketch=0;" parent="1" vertex="1">
          <mxGeometry x="2288" y="1830" width="10" height="10" as="geometry" />
        </mxCell>
        <mxCell id="qQ9N42Zz9jeaZzvQYdQ--35" value="" style="endArrow=none;html=1;rounded=0;entryX=0;entryY=0.5;entryDx=0;entryDy=0;" parent="1" source="qQ9N42Zz9jeaZzvQYdQ--34" target="qQ9N42Zz9jeaZzvQYdQ--32" edge="1">
          <mxGeometry width="50" height="50" relative="1" as="geometry">
            <mxPoint x="2299" y="1870" as="sourcePoint" />
            <mxPoint x="2349" y="1820" as="targetPoint" />
          </mxGeometry>
        </mxCell>
        <mxCell id="qQ9N42Zz9jeaZzvQYdQ--36" value="" style="whiteSpace=wrap;html=1;aspect=fixed;" parent="1" vertex="1">
          <mxGeometry x="2116" y="1997" width="15" height="15" as="geometry" />
        </mxCell>
        <mxCell id="qQ9N42Zz9jeaZzvQYdQ--37" value="" style="whiteSpace=wrap;html=1;aspect=fixed;" parent="1" vertex="1">
          <mxGeometry x="2233" y="1997" width="15" height="15" as="geometry" />
        </mxCell>
        <mxCell id="qQ9N42Zz9jeaZzvQYdQ--38" value="" style="rounded=0;orthogonalLoop=1;jettySize=auto;html=1;endArrow=none;endFill=0;sketch=0;sourcePerimeterSpacing=0;targetPerimeterSpacing=0;exitX=1;exitY=0.5;exitDx=0;exitDy=0;" parent="1" source="qQ9N42Zz9jeaZzvQYdQ--36" target="qQ9N42Zz9jeaZzvQYdQ--39" edge="1">
          <mxGeometry relative="1" as="geometry">
            <mxPoint x="2226" y="2054.5" as="sourcePoint" />
          </mxGeometry>
        </mxCell>
        <mxCell id="qQ9N42Zz9jeaZzvQYdQ--39" value="" style="ellipse;whiteSpace=wrap;html=1;align=center;aspect=fixed;resizable=0;points=[];outlineConnect=0;sketch=0;" parent="1" vertex="1">
          <mxGeometry x="2175" y="1999.5" width="10" height="10" as="geometry" />
        </mxCell>
        <mxCell id="qQ9N42Zz9jeaZzvQYdQ--40" value="" style="endArrow=none;html=1;rounded=0;entryX=0;entryY=0.5;entryDx=0;entryDy=0;" parent="1" source="qQ9N42Zz9jeaZzvQYdQ--39" target="qQ9N42Zz9jeaZzvQYdQ--37" edge="1">
          <mxGeometry width="50" height="50" relative="1" as="geometry">
            <mxPoint x="2186" y="2039.5" as="sourcePoint" />
            <mxPoint x="2236" y="1989.5" as="targetPoint" />
          </mxGeometry>
        </mxCell>
        <mxCell id="qQ9N42Zz9jeaZzvQYdQ--41" value="" style="whiteSpace=wrap;html=1;aspect=fixed;" parent="1" vertex="1">
          <mxGeometry x="2117" y="2042" width="15" height="15" as="geometry" />
        </mxCell>
        <mxCell id="qQ9N42Zz9jeaZzvQYdQ--42" value="" style="whiteSpace=wrap;html=1;aspect=fixed;" parent="1" vertex="1">
          <mxGeometry x="2233" y="2042" width="15" height="15" as="geometry" />
        </mxCell>
        <mxCell id="qQ9N42Zz9jeaZzvQYdQ--43" value="" style="rounded=0;orthogonalLoop=1;jettySize=auto;html=1;endArrow=none;endFill=0;sketch=0;sourcePerimeterSpacing=0;targetPerimeterSpacing=0;exitX=0;exitY=0.5;exitDx=0;exitDy=0;" parent="1" source="qQ9N42Zz9jeaZzvQYdQ--42" target="qQ9N42Zz9jeaZzvQYdQ--45" edge="1">
          <mxGeometry relative="1" as="geometry">
            <mxPoint x="2160" y="2050.5" as="sourcePoint" />
          </mxGeometry>
        </mxCell>
        <mxCell id="qQ9N42Zz9jeaZzvQYdQ--44" value="" style="rounded=0;orthogonalLoop=1;jettySize=auto;html=1;endArrow=halfCircle;endFill=0;entryX=0.5;entryY=0.5;endSize=6;strokeWidth=1;sketch=0;exitX=1;exitY=0.5;exitDx=0;exitDy=0;" parent="1" source="qQ9N42Zz9jeaZzvQYdQ--41" target="qQ9N42Zz9jeaZzvQYdQ--45" edge="1">
          <mxGeometry relative="1" as="geometry">
            <mxPoint x="2200" y="2050.5" as="sourcePoint" />
          </mxGeometry>
        </mxCell>
        <mxCell id="qQ9N42Zz9jeaZzvQYdQ--45" value="" style="ellipse;whiteSpace=wrap;html=1;align=center;aspect=fixed;resizable=0;points=[];outlineConnect=0;sketch=0;" parent="1" vertex="1">
          <mxGeometry x="2175" y="2044.5" width="10" height="10" as="geometry" />
        </mxCell>
        <mxCell id="qQ9N42Zz9jeaZzvQYdQ--46" value="" style="rounded=0;orthogonalLoop=1;jettySize=auto;html=1;endArrow=none;endFill=0;sketch=0;sourcePerimeterSpacing=0;targetPerimeterSpacing=0;" parent="1" target="qQ9N42Zz9jeaZzvQYdQ--48" edge="1">
          <mxGeometry relative="1" as="geometry">
            <mxPoint x="2288" y="2004.5" as="sourcePoint" />
          </mxGeometry>
        </mxCell>
        <mxCell id="qQ9N42Zz9jeaZzvQYdQ--47" value="" style="rounded=0;orthogonalLoop=1;jettySize=auto;html=1;endArrow=halfCircle;endFill=0;entryX=0.5;entryY=0.5;endSize=6;strokeWidth=1;sketch=0;" parent="1" target="qQ9N42Zz9jeaZzvQYdQ--48" edge="1">
          <mxGeometry relative="1" as="geometry">
            <mxPoint x="2328" y="2004.5" as="sourcePoint" />
          </mxGeometry>
        </mxCell>
        <mxCell id="qQ9N42Zz9jeaZzvQYdQ--48" value="" style="ellipse;whiteSpace=wrap;html=1;align=center;aspect=fixed;resizable=0;points=[];outlineConnect=0;sketch=0;" parent="1" vertex="1">
          <mxGeometry x="2303" y="1999.5" width="10" height="10" as="geometry" />
        </mxCell>
        <mxCell id="qQ9N42Zz9jeaZzvQYdQ--49" value="" style="endArrow=none;html=1;rounded=0;exitX=1;exitY=0.5;exitDx=0;exitDy=0;" parent="1" source="qQ9N42Zz9jeaZzvQYdQ--37" target="qQ9N42Zz9jeaZzvQYdQ--48" edge="1">
          <mxGeometry width="50" height="50" relative="1" as="geometry">
            <mxPoint x="2251" y="2012.5" as="sourcePoint" />
            <mxPoint x="2291" y="2002.5" as="targetPoint" />
          </mxGeometry>
        </mxCell>
        <mxCell id="qQ9N42Zz9jeaZzvQYdQ--50" value="" style="whiteSpace=wrap;html=1;aspect=fixed;" parent="1" vertex="1">
          <mxGeometry x="2350" y="1997" width="15" height="15" as="geometry" />
        </mxCell>
        <mxCell id="qQ9N42Zz9jeaZzvQYdQ--51" value="" style="endArrow=none;html=1;rounded=0;entryX=0;entryY=0.5;entryDx=0;entryDy=0;" parent="1" target="qQ9N42Zz9jeaZzvQYdQ--50" edge="1">
          <mxGeometry width="50" height="50" relative="1" as="geometry">
            <mxPoint x="2321" y="2004.5" as="sourcePoint" />
            <mxPoint x="2351" y="1982.5" as="targetPoint" />
          </mxGeometry>
        </mxCell>
        <mxCell id="qQ9N42Zz9jeaZzvQYdQ--52" value="" style="whiteSpace=wrap;html=1;aspect=fixed;" parent="1" vertex="1">
          <mxGeometry x="2350" y="2042" width="15" height="15" as="geometry" />
        </mxCell>
        <mxCell id="qQ9N42Zz9jeaZzvQYdQ--53" value="" style="rounded=0;orthogonalLoop=1;jettySize=auto;html=1;endArrow=none;endFill=0;sketch=0;sourcePerimeterSpacing=0;targetPerimeterSpacing=0;exitX=1;exitY=0.5;exitDx=0;exitDy=0;" parent="1" source="qQ9N42Zz9jeaZzvQYdQ--42" target="qQ9N42Zz9jeaZzvQYdQ--54" edge="1">
          <mxGeometry relative="1" as="geometry">
            <mxPoint x="2245" y="2049.5" as="sourcePoint" />
          </mxGeometry>
        </mxCell>
        <mxCell id="qQ9N42Zz9jeaZzvQYdQ--54" value="" style="ellipse;whiteSpace=wrap;html=1;align=center;aspect=fixed;resizable=0;points=[];outlineConnect=0;sketch=0;" parent="1" vertex="1">
          <mxGeometry x="2289" y="2044.5" width="10" height="10" as="geometry" />
        </mxCell>
        <mxCell id="qQ9N42Zz9jeaZzvQYdQ--55" value="" style="endArrow=none;html=1;rounded=0;entryX=0;entryY=0.5;entryDx=0;entryDy=0;" parent="1" source="qQ9N42Zz9jeaZzvQYdQ--54" target="qQ9N42Zz9jeaZzvQYdQ--52" edge="1">
          <mxGeometry width="50" height="50" relative="1" as="geometry">
            <mxPoint x="2300" y="2084.5" as="sourcePoint" />
            <mxPoint x="2350" y="2034.5" as="targetPoint" />
          </mxGeometry>
        </mxCell>
        <mxCell id="qQ9N42Zz9jeaZzvQYdQ--65" value="&lt;p style=&quot;margin:0px;margin-top:6px;text-align:center;&quot;&gt;&lt;b&gt;&amp;lt;&amp;lt;SubSystem&amp;gt;&amp;gt; Maintenance Management&lt;/b&gt;&lt;/p&gt;&lt;hr&gt;&lt;p style=&quot;margin:0px;margin-left:8px;&quot;&gt;&lt;br&gt;&lt;/p&gt;" style="align=left;overflow=fill;html=1;dropTarget=0;whiteSpace=wrap;" parent="1" vertex="1">
          <mxGeometry x="1911" y="2140" width="330" height="260" as="geometry" />
        </mxCell>
        <mxCell id="qQ9N42Zz9jeaZzvQYdQ--66" value="" style="shape=component;jettyWidth=8;jettyHeight=4;" parent="qQ9N42Zz9jeaZzvQYdQ--65" vertex="1">
          <mxGeometry x="1" width="20" height="20" relative="1" as="geometry">
            <mxPoint x="-24" y="4" as="offset" />
          </mxGeometry>
        </mxCell>
        <mxCell id="qQ9N42Zz9jeaZzvQYdQ--67" value="«Component»&lt;br&gt;&lt;b&gt;Maintenance Request&lt;/b&gt;" style="html=1;dropTarget=0;whiteSpace=wrap;" parent="1" vertex="1">
          <mxGeometry x="1938" y="2225" width="180" height="90" as="geometry" />
        </mxCell>
        <mxCell id="qQ9N42Zz9jeaZzvQYdQ--68" value="" style="shape=module;jettyWidth=8;jettyHeight=4;" parent="qQ9N42Zz9jeaZzvQYdQ--67" vertex="1">
          <mxGeometry x="1" width="20" height="20" relative="1" as="geometry">
            <mxPoint x="-27" y="7" as="offset" />
          </mxGeometry>
        </mxCell>
        <mxCell id="qQ9N42Zz9jeaZzvQYdQ--71" value="" style="whiteSpace=wrap;html=1;aspect=fixed;" parent="1" vertex="1">
          <mxGeometry x="2116" y="2240" width="15" height="15" as="geometry" />
        </mxCell>
        <mxCell id="qQ9N42Zz9jeaZzvQYdQ--72" value="" style="whiteSpace=wrap;html=1;aspect=fixed;" parent="1" vertex="1">
          <mxGeometry x="2233" y="2240" width="15" height="15" as="geometry" />
        </mxCell>
        <mxCell id="qQ9N42Zz9jeaZzvQYdQ--73" value="" style="rounded=0;orthogonalLoop=1;jettySize=auto;html=1;endArrow=none;endFill=0;sketch=0;sourcePerimeterSpacing=0;targetPerimeterSpacing=0;exitX=1;exitY=0.5;exitDx=0;exitDy=0;" parent="1" source="qQ9N42Zz9jeaZzvQYdQ--71" target="qQ9N42Zz9jeaZzvQYdQ--74" edge="1">
          <mxGeometry relative="1" as="geometry">
            <mxPoint x="2226" y="2297.5" as="sourcePoint" />
          </mxGeometry>
        </mxCell>
        <mxCell id="qQ9N42Zz9jeaZzvQYdQ--74" value="" style="ellipse;whiteSpace=wrap;html=1;align=center;aspect=fixed;resizable=0;points=[];outlineConnect=0;sketch=0;" parent="1" vertex="1">
          <mxGeometry x="2175" y="2242.5" width="10" height="10" as="geometry" />
        </mxCell>
        <mxCell id="qQ9N42Zz9jeaZzvQYdQ--75" value="" style="endArrow=none;html=1;rounded=0;entryX=0;entryY=0.5;entryDx=0;entryDy=0;" parent="1" source="qQ9N42Zz9jeaZzvQYdQ--74" target="qQ9N42Zz9jeaZzvQYdQ--72" edge="1">
          <mxGeometry width="50" height="50" relative="1" as="geometry">
            <mxPoint x="2186" y="2282.5" as="sourcePoint" />
            <mxPoint x="2236" y="2232.5" as="targetPoint" />
          </mxGeometry>
        </mxCell>
        <mxCell id="qQ9N42Zz9jeaZzvQYdQ--76" value="" style="whiteSpace=wrap;html=1;aspect=fixed;" parent="1" vertex="1">
          <mxGeometry x="2117" y="2285" width="15" height="15" as="geometry" />
        </mxCell>
        <mxCell id="qQ9N42Zz9jeaZzvQYdQ--77" value="" style="whiteSpace=wrap;html=1;aspect=fixed;" parent="1" vertex="1">
          <mxGeometry x="2233" y="2285" width="15" height="15" as="geometry" />
        </mxCell>
        <mxCell id="qQ9N42Zz9jeaZzvQYdQ--78" value="" style="rounded=0;orthogonalLoop=1;jettySize=auto;html=1;endArrow=none;endFill=0;sketch=0;sourcePerimeterSpacing=0;targetPerimeterSpacing=0;exitX=0;exitY=0.5;exitDx=0;exitDy=0;" parent="1" source="qQ9N42Zz9jeaZzvQYdQ--77" target="qQ9N42Zz9jeaZzvQYdQ--80" edge="1">
          <mxGeometry relative="1" as="geometry">
            <mxPoint x="2160" y="2293.5" as="sourcePoint" />
          </mxGeometry>
        </mxCell>
        <mxCell id="qQ9N42Zz9jeaZzvQYdQ--79" value="" style="rounded=0;orthogonalLoop=1;jettySize=auto;html=1;endArrow=halfCircle;endFill=0;entryX=0.5;entryY=0.5;endSize=6;strokeWidth=1;sketch=0;exitX=1;exitY=0.5;exitDx=0;exitDy=0;" parent="1" source="qQ9N42Zz9jeaZzvQYdQ--76" target="qQ9N42Zz9jeaZzvQYdQ--80" edge="1">
          <mxGeometry relative="1" as="geometry">
            <mxPoint x="2200" y="2293.5" as="sourcePoint" />
          </mxGeometry>
        </mxCell>
        <mxCell id="qQ9N42Zz9jeaZzvQYdQ--80" value="" style="ellipse;whiteSpace=wrap;html=1;align=center;aspect=fixed;resizable=0;points=[];outlineConnect=0;sketch=0;" parent="1" vertex="1">
          <mxGeometry x="2175" y="2287.5" width="10" height="10" as="geometry" />
        </mxCell>
        <mxCell id="qQ9N42Zz9jeaZzvQYdQ--81" value="" style="rounded=0;orthogonalLoop=1;jettySize=auto;html=1;endArrow=none;endFill=0;sketch=0;sourcePerimeterSpacing=0;targetPerimeterSpacing=0;" parent="1" target="qQ9N42Zz9jeaZzvQYdQ--83" edge="1">
          <mxGeometry relative="1" as="geometry">
            <mxPoint x="2288" y="2247.5" as="sourcePoint" />
          </mxGeometry>
        </mxCell>
        <mxCell id="qQ9N42Zz9jeaZzvQYdQ--82" value="" style="rounded=0;orthogonalLoop=1;jettySize=auto;html=1;endArrow=halfCircle;endFill=0;entryX=0.5;entryY=0.5;endSize=6;strokeWidth=1;sketch=0;" parent="1" target="qQ9N42Zz9jeaZzvQYdQ--83" edge="1">
          <mxGeometry relative="1" as="geometry">
            <mxPoint x="2328" y="2247.5" as="sourcePoint" />
          </mxGeometry>
        </mxCell>
        <mxCell id="qQ9N42Zz9jeaZzvQYdQ--83" value="" style="ellipse;whiteSpace=wrap;html=1;align=center;aspect=fixed;resizable=0;points=[];outlineConnect=0;sketch=0;" parent="1" vertex="1">
          <mxGeometry x="2303" y="2242.5" width="10" height="10" as="geometry" />
        </mxCell>
        <mxCell id="qQ9N42Zz9jeaZzvQYdQ--84" value="" style="endArrow=none;html=1;rounded=0;exitX=1;exitY=0.5;exitDx=0;exitDy=0;" parent="1" source="qQ9N42Zz9jeaZzvQYdQ--72" target="qQ9N42Zz9jeaZzvQYdQ--83" edge="1">
          <mxGeometry width="50" height="50" relative="1" as="geometry">
            <mxPoint x="2251" y="2255.5" as="sourcePoint" />
            <mxPoint x="2291" y="2245.5" as="targetPoint" />
          </mxGeometry>
        </mxCell>
        <mxCell id="qQ9N42Zz9jeaZzvQYdQ--85" value="" style="whiteSpace=wrap;html=1;aspect=fixed;" parent="1" vertex="1">
          <mxGeometry x="2350" y="2240" width="15" height="15" as="geometry" />
        </mxCell>
        <mxCell id="qQ9N42Zz9jeaZzvQYdQ--86" value="" style="endArrow=none;html=1;rounded=0;entryX=0;entryY=0.5;entryDx=0;entryDy=0;" parent="1" target="qQ9N42Zz9jeaZzvQYdQ--85" edge="1">
          <mxGeometry width="50" height="50" relative="1" as="geometry">
            <mxPoint x="2321" y="2247.5" as="sourcePoint" />
            <mxPoint x="2351" y="2225.5" as="targetPoint" />
          </mxGeometry>
        </mxCell>
        <mxCell id="qQ9N42Zz9jeaZzvQYdQ--87" value="" style="whiteSpace=wrap;html=1;aspect=fixed;" parent="1" vertex="1">
          <mxGeometry x="2350" y="2285" width="15" height="15" as="geometry" />
        </mxCell>
        <mxCell id="qQ9N42Zz9jeaZzvQYdQ--88" value="" style="rounded=0;orthogonalLoop=1;jettySize=auto;html=1;endArrow=none;endFill=0;sketch=0;sourcePerimeterSpacing=0;targetPerimeterSpacing=0;exitX=1;exitY=0.5;exitDx=0;exitDy=0;" parent="1" source="qQ9N42Zz9jeaZzvQYdQ--77" target="qQ9N42Zz9jeaZzvQYdQ--89" edge="1">
          <mxGeometry relative="1" as="geometry">
            <mxPoint x="2245" y="2292.5" as="sourcePoint" />
          </mxGeometry>
        </mxCell>
        <mxCell id="qQ9N42Zz9jeaZzvQYdQ--89" value="" style="ellipse;whiteSpace=wrap;html=1;align=center;aspect=fixed;resizable=0;points=[];outlineConnect=0;sketch=0;" parent="1" vertex="1">
          <mxGeometry x="2289" y="2287.5" width="10" height="10" as="geometry" />
        </mxCell>
        <mxCell id="qQ9N42Zz9jeaZzvQYdQ--90" value="" style="endArrow=none;html=1;rounded=0;entryX=0;entryY=0.5;entryDx=0;entryDy=0;" parent="1" source="qQ9N42Zz9jeaZzvQYdQ--89" target="qQ9N42Zz9jeaZzvQYdQ--87" edge="1">
          <mxGeometry width="50" height="50" relative="1" as="geometry">
            <mxPoint x="2300" y="2327.5" as="sourcePoint" />
            <mxPoint x="2350" y="2277.5" as="targetPoint" />
          </mxGeometry>
        </mxCell>
        <mxCell id="qQ9N42Zz9jeaZzvQYdQ--91" value="&lt;p style=&quot;margin:0px;margin-top:6px;text-align:center;&quot;&gt;&lt;b&gt;&amp;lt;&amp;lt;SubSystem&amp;gt;&amp;gt; Transportaion Management&lt;/b&gt;&lt;/p&gt;&lt;hr&gt;&lt;p style=&quot;margin:0px;margin-left:8px;&quot;&gt;&lt;br&gt;&lt;/p&gt;" style="align=left;overflow=fill;html=1;dropTarget=0;whiteSpace=wrap;" parent="1" vertex="1">
          <mxGeometry x="1910" y="2450" width="330" height="530" as="geometry" />
        </mxCell>
        <mxCell id="qQ9N42Zz9jeaZzvQYdQ--93" value="«Component»&lt;br&gt;&lt;b&gt;Employee Transportaion&lt;/b&gt;" style="html=1;dropTarget=0;whiteSpace=wrap;" parent="1" vertex="1">
          <mxGeometry x="1938" y="2551.5" width="180" height="90" as="geometry" />
        </mxCell>
        <mxCell id="qQ9N42Zz9jeaZzvQYdQ--94" value="" style="shape=module;jettyWidth=8;jettyHeight=4;" parent="qQ9N42Zz9jeaZzvQYdQ--93" vertex="1">
          <mxGeometry x="1" width="20" height="20" relative="1" as="geometry">
            <mxPoint x="-27" y="7" as="offset" />
          </mxGeometry>
        </mxCell>
        <mxCell id="qQ9N42Zz9jeaZzvQYdQ--97" value="«Component»&lt;br&gt;&lt;b&gt;Product Transportation&lt;/b&gt;" style="html=1;dropTarget=0;whiteSpace=wrap;" parent="1" vertex="1">
          <mxGeometry x="1940" y="2861" width="180" height="90" as="geometry" />
        </mxCell>
        <mxCell id="qQ9N42Zz9jeaZzvQYdQ--98" value="" style="shape=module;jettyWidth=8;jettyHeight=4;" parent="qQ9N42Zz9jeaZzvQYdQ--97" vertex="1">
          <mxGeometry x="1" width="20" height="20" relative="1" as="geometry">
            <mxPoint x="-27" y="7" as="offset" />
          </mxGeometry>
        </mxCell>
        <mxCell id="qQ9N42Zz9jeaZzvQYdQ--99" value="" style="whiteSpace=wrap;html=1;aspect=fixed;" parent="1" vertex="1">
          <mxGeometry x="2113" y="2566.5" width="15" height="15" as="geometry" />
        </mxCell>
        <mxCell id="qQ9N42Zz9jeaZzvQYdQ--100" value="" style="whiteSpace=wrap;html=1;aspect=fixed;" parent="1" vertex="1">
          <mxGeometry x="2230" y="2566.5" width="15" height="15" as="geometry" />
        </mxCell>
        <mxCell id="qQ9N42Zz9jeaZzvQYdQ--101" value="" style="rounded=0;orthogonalLoop=1;jettySize=auto;html=1;endArrow=none;endFill=0;sketch=0;sourcePerimeterSpacing=0;targetPerimeterSpacing=0;exitX=1;exitY=0.5;exitDx=0;exitDy=0;" parent="1" source="qQ9N42Zz9jeaZzvQYdQ--99" target="qQ9N42Zz9jeaZzvQYdQ--102" edge="1">
          <mxGeometry relative="1" as="geometry">
            <mxPoint x="2223" y="2624" as="sourcePoint" />
          </mxGeometry>
        </mxCell>
        <mxCell id="qQ9N42Zz9jeaZzvQYdQ--102" value="" style="ellipse;whiteSpace=wrap;html=1;align=center;aspect=fixed;resizable=0;points=[];outlineConnect=0;sketch=0;" parent="1" vertex="1">
          <mxGeometry x="2172" y="2569" width="10" height="10" as="geometry" />
        </mxCell>
        <mxCell id="qQ9N42Zz9jeaZzvQYdQ--103" value="" style="endArrow=none;html=1;rounded=0;entryX=0;entryY=0.5;entryDx=0;entryDy=0;" parent="1" source="qQ9N42Zz9jeaZzvQYdQ--102" target="qQ9N42Zz9jeaZzvQYdQ--100" edge="1">
          <mxGeometry width="50" height="50" relative="1" as="geometry">
            <mxPoint x="2183" y="2609" as="sourcePoint" />
            <mxPoint x="2233" y="2559" as="targetPoint" />
          </mxGeometry>
        </mxCell>
        <mxCell id="qQ9N42Zz9jeaZzvQYdQ--104" value="" style="whiteSpace=wrap;html=1;aspect=fixed;" parent="1" vertex="1">
          <mxGeometry x="2114" y="2611.5" width="15" height="15" as="geometry" />
        </mxCell>
        <mxCell id="qQ9N42Zz9jeaZzvQYdQ--105" value="" style="whiteSpace=wrap;html=1;aspect=fixed;" parent="1" vertex="1">
          <mxGeometry x="2230" y="2611.5" width="15" height="15" as="geometry" />
        </mxCell>
        <mxCell id="qQ9N42Zz9jeaZzvQYdQ--106" value="" style="rounded=0;orthogonalLoop=1;jettySize=auto;html=1;endArrow=none;endFill=0;sketch=0;sourcePerimeterSpacing=0;targetPerimeterSpacing=0;exitX=0;exitY=0.5;exitDx=0;exitDy=0;" parent="1" source="qQ9N42Zz9jeaZzvQYdQ--105" target="qQ9N42Zz9jeaZzvQYdQ--108" edge="1">
          <mxGeometry relative="1" as="geometry">
            <mxPoint x="2157" y="2620" as="sourcePoint" />
          </mxGeometry>
        </mxCell>
        <mxCell id="qQ9N42Zz9jeaZzvQYdQ--107" value="" style="rounded=0;orthogonalLoop=1;jettySize=auto;html=1;endArrow=halfCircle;endFill=0;entryX=0.5;entryY=0.5;endSize=6;strokeWidth=1;sketch=0;exitX=1;exitY=0.5;exitDx=0;exitDy=0;" parent="1" source="qQ9N42Zz9jeaZzvQYdQ--104" target="qQ9N42Zz9jeaZzvQYdQ--108" edge="1">
          <mxGeometry relative="1" as="geometry">
            <mxPoint x="2197" y="2620" as="sourcePoint" />
          </mxGeometry>
        </mxCell>
        <mxCell id="qQ9N42Zz9jeaZzvQYdQ--108" value="" style="ellipse;whiteSpace=wrap;html=1;align=center;aspect=fixed;resizable=0;points=[];outlineConnect=0;sketch=0;" parent="1" vertex="1">
          <mxGeometry x="2172" y="2614" width="10" height="10" as="geometry" />
        </mxCell>
        <mxCell id="qQ9N42Zz9jeaZzvQYdQ--109" value="" style="rounded=0;orthogonalLoop=1;jettySize=auto;html=1;endArrow=none;endFill=0;sketch=0;sourcePerimeterSpacing=0;targetPerimeterSpacing=0;" parent="1" target="qQ9N42Zz9jeaZzvQYdQ--111" edge="1">
          <mxGeometry relative="1" as="geometry">
            <mxPoint x="2285" y="2574" as="sourcePoint" />
          </mxGeometry>
        </mxCell>
        <mxCell id="qQ9N42Zz9jeaZzvQYdQ--110" value="" style="rounded=0;orthogonalLoop=1;jettySize=auto;html=1;endArrow=halfCircle;endFill=0;entryX=0.5;entryY=0.5;endSize=6;strokeWidth=1;sketch=0;" parent="1" target="qQ9N42Zz9jeaZzvQYdQ--111" edge="1">
          <mxGeometry relative="1" as="geometry">
            <mxPoint x="2325" y="2574" as="sourcePoint" />
          </mxGeometry>
        </mxCell>
        <mxCell id="qQ9N42Zz9jeaZzvQYdQ--111" value="" style="ellipse;whiteSpace=wrap;html=1;align=center;aspect=fixed;resizable=0;points=[];outlineConnect=0;sketch=0;" parent="1" vertex="1">
          <mxGeometry x="2300" y="2569" width="10" height="10" as="geometry" />
        </mxCell>
        <mxCell id="qQ9N42Zz9jeaZzvQYdQ--112" value="" style="endArrow=none;html=1;rounded=0;exitX=1;exitY=0.5;exitDx=0;exitDy=0;" parent="1" source="qQ9N42Zz9jeaZzvQYdQ--100" target="qQ9N42Zz9jeaZzvQYdQ--111" edge="1">
          <mxGeometry width="50" height="50" relative="1" as="geometry">
            <mxPoint x="2248" y="2582" as="sourcePoint" />
            <mxPoint x="2288" y="2572" as="targetPoint" />
          </mxGeometry>
        </mxCell>
        <mxCell id="qQ9N42Zz9jeaZzvQYdQ--113" value="" style="whiteSpace=wrap;html=1;aspect=fixed;" parent="1" vertex="1">
          <mxGeometry x="2347" y="2566.5" width="15" height="15" as="geometry" />
        </mxCell>
        <mxCell id="qQ9N42Zz9jeaZzvQYdQ--114" value="" style="endArrow=none;html=1;rounded=0;entryX=0;entryY=0.5;entryDx=0;entryDy=0;" parent="1" target="qQ9N42Zz9jeaZzvQYdQ--113" edge="1">
          <mxGeometry width="50" height="50" relative="1" as="geometry">
            <mxPoint x="2318" y="2574" as="sourcePoint" />
            <mxPoint x="2348" y="2552" as="targetPoint" />
          </mxGeometry>
        </mxCell>
        <mxCell id="qQ9N42Zz9jeaZzvQYdQ--115" value="" style="whiteSpace=wrap;html=1;aspect=fixed;" parent="1" vertex="1">
          <mxGeometry x="2347" y="2611.5" width="15" height="15" as="geometry" />
        </mxCell>
        <mxCell id="qQ9N42Zz9jeaZzvQYdQ--116" value="" style="rounded=0;orthogonalLoop=1;jettySize=auto;html=1;endArrow=none;endFill=0;sketch=0;sourcePerimeterSpacing=0;targetPerimeterSpacing=0;exitX=1;exitY=0.5;exitDx=0;exitDy=0;" parent="1" source="qQ9N42Zz9jeaZzvQYdQ--105" target="qQ9N42Zz9jeaZzvQYdQ--117" edge="1">
          <mxGeometry relative="1" as="geometry">
            <mxPoint x="2242" y="2619" as="sourcePoint" />
          </mxGeometry>
        </mxCell>
        <mxCell id="qQ9N42Zz9jeaZzvQYdQ--117" value="" style="ellipse;whiteSpace=wrap;html=1;align=center;aspect=fixed;resizable=0;points=[];outlineConnect=0;sketch=0;" parent="1" vertex="1">
          <mxGeometry x="2286" y="2614" width="10" height="10" as="geometry" />
        </mxCell>
        <mxCell id="qQ9N42Zz9jeaZzvQYdQ--118" value="" style="endArrow=none;html=1;rounded=0;entryX=0;entryY=0.5;entryDx=0;entryDy=0;" parent="1" source="qQ9N42Zz9jeaZzvQYdQ--117" target="qQ9N42Zz9jeaZzvQYdQ--115" edge="1">
          <mxGeometry width="50" height="50" relative="1" as="geometry">
            <mxPoint x="2297" y="2654" as="sourcePoint" />
            <mxPoint x="2347" y="2604" as="targetPoint" />
          </mxGeometry>
        </mxCell>
        <mxCell id="qQ9N42Zz9jeaZzvQYdQ--119" value="" style="whiteSpace=wrap;html=1;aspect=fixed;" parent="1" vertex="1">
          <mxGeometry x="2115" y="2876" width="15" height="15" as="geometry" />
        </mxCell>
        <mxCell id="qQ9N42Zz9jeaZzvQYdQ--120" value="" style="whiteSpace=wrap;html=1;aspect=fixed;" parent="1" vertex="1">
          <mxGeometry x="2232" y="2876" width="15" height="15" as="geometry" />
        </mxCell>
        <mxCell id="qQ9N42Zz9jeaZzvQYdQ--121" value="" style="rounded=0;orthogonalLoop=1;jettySize=auto;html=1;endArrow=none;endFill=0;sketch=0;sourcePerimeterSpacing=0;targetPerimeterSpacing=0;exitX=1;exitY=0.5;exitDx=0;exitDy=0;" parent="1" source="qQ9N42Zz9jeaZzvQYdQ--119" target="qQ9N42Zz9jeaZzvQYdQ--122" edge="1">
          <mxGeometry relative="1" as="geometry">
            <mxPoint x="2225" y="2933.5" as="sourcePoint" />
          </mxGeometry>
        </mxCell>
        <mxCell id="qQ9N42Zz9jeaZzvQYdQ--122" value="" style="ellipse;whiteSpace=wrap;html=1;align=center;aspect=fixed;resizable=0;points=[];outlineConnect=0;sketch=0;" parent="1" vertex="1">
          <mxGeometry x="2174" y="2878.5" width="10" height="10" as="geometry" />
        </mxCell>
        <mxCell id="qQ9N42Zz9jeaZzvQYdQ--123" value="" style="endArrow=none;html=1;rounded=0;entryX=0;entryY=0.5;entryDx=0;entryDy=0;" parent="1" source="qQ9N42Zz9jeaZzvQYdQ--122" target="qQ9N42Zz9jeaZzvQYdQ--120" edge="1">
          <mxGeometry width="50" height="50" relative="1" as="geometry">
            <mxPoint x="2185" y="2918.5" as="sourcePoint" />
            <mxPoint x="2235" y="2868.5" as="targetPoint" />
          </mxGeometry>
        </mxCell>
        <mxCell id="qQ9N42Zz9jeaZzvQYdQ--124" value="" style="whiteSpace=wrap;html=1;aspect=fixed;" parent="1" vertex="1">
          <mxGeometry x="2116" y="2921" width="15" height="15" as="geometry" />
        </mxCell>
        <mxCell id="qQ9N42Zz9jeaZzvQYdQ--125" value="" style="whiteSpace=wrap;html=1;aspect=fixed;" parent="1" vertex="1">
          <mxGeometry x="2232" y="2921" width="15" height="15" as="geometry" />
        </mxCell>
        <mxCell id="qQ9N42Zz9jeaZzvQYdQ--126" value="" style="rounded=0;orthogonalLoop=1;jettySize=auto;html=1;endArrow=none;endFill=0;sketch=0;sourcePerimeterSpacing=0;targetPerimeterSpacing=0;exitX=0;exitY=0.5;exitDx=0;exitDy=0;" parent="1" source="qQ9N42Zz9jeaZzvQYdQ--125" target="qQ9N42Zz9jeaZzvQYdQ--128" edge="1">
          <mxGeometry relative="1" as="geometry">
            <mxPoint x="2159" y="2929.5" as="sourcePoint" />
          </mxGeometry>
        </mxCell>
        <mxCell id="qQ9N42Zz9jeaZzvQYdQ--127" value="" style="rounded=0;orthogonalLoop=1;jettySize=auto;html=1;endArrow=halfCircle;endFill=0;entryX=0.5;entryY=0.5;endSize=6;strokeWidth=1;sketch=0;exitX=1;exitY=0.5;exitDx=0;exitDy=0;" parent="1" source="qQ9N42Zz9jeaZzvQYdQ--124" target="qQ9N42Zz9jeaZzvQYdQ--128" edge="1">
          <mxGeometry relative="1" as="geometry">
            <mxPoint x="2199" y="2929.5" as="sourcePoint" />
          </mxGeometry>
        </mxCell>
        <mxCell id="qQ9N42Zz9jeaZzvQYdQ--128" value="" style="ellipse;whiteSpace=wrap;html=1;align=center;aspect=fixed;resizable=0;points=[];outlineConnect=0;sketch=0;" parent="1" vertex="1">
          <mxGeometry x="2174" y="2923.5" width="10" height="10" as="geometry" />
        </mxCell>
        <mxCell id="qQ9N42Zz9jeaZzvQYdQ--129" value="" style="rounded=0;orthogonalLoop=1;jettySize=auto;html=1;endArrow=none;endFill=0;sketch=0;sourcePerimeterSpacing=0;targetPerimeterSpacing=0;" parent="1" target="qQ9N42Zz9jeaZzvQYdQ--131" edge="1">
          <mxGeometry relative="1" as="geometry">
            <mxPoint x="2287" y="2883.5" as="sourcePoint" />
          </mxGeometry>
        </mxCell>
        <mxCell id="qQ9N42Zz9jeaZzvQYdQ--130" value="" style="rounded=0;orthogonalLoop=1;jettySize=auto;html=1;endArrow=halfCircle;endFill=0;entryX=0.5;entryY=0.5;endSize=6;strokeWidth=1;sketch=0;" parent="1" target="qQ9N42Zz9jeaZzvQYdQ--131" edge="1">
          <mxGeometry relative="1" as="geometry">
            <mxPoint x="2327" y="2883.5" as="sourcePoint" />
          </mxGeometry>
        </mxCell>
        <mxCell id="qQ9N42Zz9jeaZzvQYdQ--131" value="" style="ellipse;whiteSpace=wrap;html=1;align=center;aspect=fixed;resizable=0;points=[];outlineConnect=0;sketch=0;" parent="1" vertex="1">
          <mxGeometry x="2302" y="2878.5" width="10" height="10" as="geometry" />
        </mxCell>
        <mxCell id="qQ9N42Zz9jeaZzvQYdQ--132" value="" style="endArrow=none;html=1;rounded=0;exitX=1;exitY=0.5;exitDx=0;exitDy=0;" parent="1" source="qQ9N42Zz9jeaZzvQYdQ--120" target="qQ9N42Zz9jeaZzvQYdQ--131" edge="1">
          <mxGeometry width="50" height="50" relative="1" as="geometry">
            <mxPoint x="2250" y="2891.5" as="sourcePoint" />
            <mxPoint x="2290" y="2881.5" as="targetPoint" />
          </mxGeometry>
        </mxCell>
        <mxCell id="qQ9N42Zz9jeaZzvQYdQ--133" value="" style="whiteSpace=wrap;html=1;aspect=fixed;" parent="1" vertex="1">
          <mxGeometry x="2349" y="2876" width="15" height="15" as="geometry" />
        </mxCell>
        <mxCell id="qQ9N42Zz9jeaZzvQYdQ--134" value="" style="endArrow=none;html=1;rounded=0;entryX=0;entryY=0.5;entryDx=0;entryDy=0;" parent="1" target="qQ9N42Zz9jeaZzvQYdQ--133" edge="1">
          <mxGeometry width="50" height="50" relative="1" as="geometry">
            <mxPoint x="2320" y="2883.5" as="sourcePoint" />
            <mxPoint x="2350" y="2861.5" as="targetPoint" />
          </mxGeometry>
        </mxCell>
        <mxCell id="qQ9N42Zz9jeaZzvQYdQ--135" value="" style="whiteSpace=wrap;html=1;aspect=fixed;" parent="1" vertex="1">
          <mxGeometry x="2349" y="2921" width="15" height="15" as="geometry" />
        </mxCell>
        <mxCell id="qQ9N42Zz9jeaZzvQYdQ--136" value="" style="rounded=0;orthogonalLoop=1;jettySize=auto;html=1;endArrow=none;endFill=0;sketch=0;sourcePerimeterSpacing=0;targetPerimeterSpacing=0;exitX=1;exitY=0.5;exitDx=0;exitDy=0;" parent="1" source="qQ9N42Zz9jeaZzvQYdQ--125" target="qQ9N42Zz9jeaZzvQYdQ--137" edge="1">
          <mxGeometry relative="1" as="geometry">
            <mxPoint x="2244" y="2928.5" as="sourcePoint" />
          </mxGeometry>
        </mxCell>
        <mxCell id="qQ9N42Zz9jeaZzvQYdQ--137" value="" style="ellipse;whiteSpace=wrap;html=1;align=center;aspect=fixed;resizable=0;points=[];outlineConnect=0;sketch=0;" parent="1" vertex="1">
          <mxGeometry x="2288" y="2923.5" width="10" height="10" as="geometry" />
        </mxCell>
        <mxCell id="qQ9N42Zz9jeaZzvQYdQ--138" value="" style="endArrow=none;html=1;rounded=0;entryX=0;entryY=0.5;entryDx=0;entryDy=0;" parent="1" source="qQ9N42Zz9jeaZzvQYdQ--137" target="qQ9N42Zz9jeaZzvQYdQ--135" edge="1">
          <mxGeometry width="50" height="50" relative="1" as="geometry">
            <mxPoint x="2299" y="2963.5" as="sourcePoint" />
            <mxPoint x="2349" y="2913.5" as="targetPoint" />
          </mxGeometry>
        </mxCell>
        <mxCell id="qQ9N42Zz9jeaZzvQYdQ--139" value="&lt;p style=&quot;margin:0px;margin-top:6px;text-align:center;&quot;&gt;&lt;b&gt;&amp;lt;&amp;lt;SubSystem&amp;gt;&amp;gt; Financial Management&lt;/b&gt;&lt;/p&gt;&lt;hr&gt;&lt;p style=&quot;margin:0px;margin-left:8px;&quot;&gt;&lt;br&gt;&lt;/p&gt;" style="align=left;overflow=fill;html=1;dropTarget=0;whiteSpace=wrap;" parent="1" vertex="1">
          <mxGeometry x="2586" y="1700" width="330" height="370" as="geometry" />
        </mxCell>
        <mxCell id="qQ9N42Zz9jeaZzvQYdQ--140" value="" style="shape=component;jettyWidth=8;jettyHeight=4;" parent="qQ9N42Zz9jeaZzvQYdQ--139" vertex="1">
          <mxGeometry x="1" width="20" height="20" relative="1" as="geometry">
            <mxPoint x="-24" y="4" as="offset" />
          </mxGeometry>
        </mxCell>
        <mxCell id="qQ9N42Zz9jeaZzvQYdQ--141" value="«Component»&lt;br&gt;&lt;b&gt;Salary Management&lt;/b&gt;" style="html=1;dropTarget=0;whiteSpace=wrap;" parent="1" vertex="1">
          <mxGeometry x="2704" y="1770" width="180" height="90" as="geometry" />
        </mxCell>
        <mxCell id="qQ9N42Zz9jeaZzvQYdQ--142" value="" style="shape=module;jettyWidth=8;jettyHeight=4;" parent="qQ9N42Zz9jeaZzvQYdQ--141" vertex="1">
          <mxGeometry x="1" width="20" height="20" relative="1" as="geometry">
            <mxPoint x="-27" y="7" as="offset" />
          </mxGeometry>
        </mxCell>
        <mxCell id="qQ9N42Zz9jeaZzvQYdQ--143" value="«Component»&lt;br&gt;&lt;b&gt;Financial Management&lt;/b&gt;" style="html=1;dropTarget=0;whiteSpace=wrap;" parent="1" vertex="1">
          <mxGeometry x="2704" y="1940" width="180" height="90" as="geometry" />
        </mxCell>
        <mxCell id="qQ9N42Zz9jeaZzvQYdQ--144" value="" style="shape=module;jettyWidth=8;jettyHeight=4;" parent="qQ9N42Zz9jeaZzvQYdQ--143" vertex="1">
          <mxGeometry x="1" width="20" height="20" relative="1" as="geometry">
            <mxPoint x="-27" y="7" as="offset" />
          </mxGeometry>
        </mxCell>
        <mxCell id="qQ9N42Zz9jeaZzvQYdQ--145" value="" style="whiteSpace=wrap;html=1;aspect=fixed;" parent="1" vertex="1">
          <mxGeometry x="2459" y="1955" width="15" height="15" as="geometry" />
        </mxCell>
        <mxCell id="qQ9N42Zz9jeaZzvQYdQ--146" value="" style="whiteSpace=wrap;html=1;aspect=fixed;" parent="1" vertex="1">
          <mxGeometry x="2576" y="1955" width="15" height="15" as="geometry" />
        </mxCell>
        <mxCell id="qQ9N42Zz9jeaZzvQYdQ--147" value="" style="rounded=0;orthogonalLoop=1;jettySize=auto;html=1;endArrow=none;endFill=0;sketch=0;sourcePerimeterSpacing=0;targetPerimeterSpacing=0;exitX=1;exitY=0.5;exitDx=0;exitDy=0;" parent="1" source="qQ9N42Zz9jeaZzvQYdQ--145" target="qQ9N42Zz9jeaZzvQYdQ--148" edge="1">
          <mxGeometry relative="1" as="geometry">
            <mxPoint x="2569" y="2012.5" as="sourcePoint" />
          </mxGeometry>
        </mxCell>
        <mxCell id="qQ9N42Zz9jeaZzvQYdQ--148" value="" style="ellipse;whiteSpace=wrap;html=1;align=center;aspect=fixed;resizable=0;points=[];outlineConnect=0;sketch=0;" parent="1" vertex="1">
          <mxGeometry x="2518" y="1957.5" width="10" height="10" as="geometry" />
        </mxCell>
        <mxCell id="qQ9N42Zz9jeaZzvQYdQ--149" value="" style="endArrow=none;html=1;rounded=0;entryX=0;entryY=0.5;entryDx=0;entryDy=0;" parent="1" source="qQ9N42Zz9jeaZzvQYdQ--148" target="qQ9N42Zz9jeaZzvQYdQ--146" edge="1">
          <mxGeometry width="50" height="50" relative="1" as="geometry">
            <mxPoint x="2529" y="1997.5" as="sourcePoint" />
            <mxPoint x="2579" y="1947.5" as="targetPoint" />
          </mxGeometry>
        </mxCell>
        <mxCell id="qQ9N42Zz9jeaZzvQYdQ--150" value="" style="whiteSpace=wrap;html=1;aspect=fixed;" parent="1" vertex="1">
          <mxGeometry x="2460" y="2000" width="15" height="15" as="geometry" />
        </mxCell>
        <mxCell id="qQ9N42Zz9jeaZzvQYdQ--151" value="" style="whiteSpace=wrap;html=1;aspect=fixed;" parent="1" vertex="1">
          <mxGeometry x="2576" y="2000" width="15" height="15" as="geometry" />
        </mxCell>
        <mxCell id="qQ9N42Zz9jeaZzvQYdQ--152" value="" style="rounded=0;orthogonalLoop=1;jettySize=auto;html=1;endArrow=none;endFill=0;sketch=0;sourcePerimeterSpacing=0;targetPerimeterSpacing=0;exitX=0;exitY=0.5;exitDx=0;exitDy=0;" parent="1" source="qQ9N42Zz9jeaZzvQYdQ--151" target="qQ9N42Zz9jeaZzvQYdQ--154" edge="1">
          <mxGeometry relative="1" as="geometry">
            <mxPoint x="2503" y="2008.5" as="sourcePoint" />
          </mxGeometry>
        </mxCell>
        <mxCell id="qQ9N42Zz9jeaZzvQYdQ--153" value="" style="rounded=0;orthogonalLoop=1;jettySize=auto;html=1;endArrow=halfCircle;endFill=0;entryX=0.5;entryY=0.5;endSize=6;strokeWidth=1;sketch=0;exitX=1;exitY=0.5;exitDx=0;exitDy=0;" parent="1" source="qQ9N42Zz9jeaZzvQYdQ--150" target="qQ9N42Zz9jeaZzvQYdQ--154" edge="1">
          <mxGeometry relative="1" as="geometry">
            <mxPoint x="2543" y="2008.5" as="sourcePoint" />
          </mxGeometry>
        </mxCell>
        <mxCell id="qQ9N42Zz9jeaZzvQYdQ--154" value="" style="ellipse;whiteSpace=wrap;html=1;align=center;aspect=fixed;resizable=0;points=[];outlineConnect=0;sketch=0;" parent="1" vertex="1">
          <mxGeometry x="2518" y="2002.5" width="10" height="10" as="geometry" />
        </mxCell>
        <mxCell id="qQ9N42Zz9jeaZzvQYdQ--155" value="" style="rounded=0;orthogonalLoop=1;jettySize=auto;html=1;endArrow=none;endFill=0;sketch=0;sourcePerimeterSpacing=0;targetPerimeterSpacing=0;" parent="1" target="qQ9N42Zz9jeaZzvQYdQ--157" edge="1">
          <mxGeometry relative="1" as="geometry">
            <mxPoint x="2631" y="1962.5" as="sourcePoint" />
          </mxGeometry>
        </mxCell>
        <mxCell id="qQ9N42Zz9jeaZzvQYdQ--156" value="" style="rounded=0;orthogonalLoop=1;jettySize=auto;html=1;endArrow=halfCircle;endFill=0;entryX=0.5;entryY=0.5;endSize=6;strokeWidth=1;sketch=0;" parent="1" target="qQ9N42Zz9jeaZzvQYdQ--157" edge="1">
          <mxGeometry relative="1" as="geometry">
            <mxPoint x="2671" y="1962.5" as="sourcePoint" />
          </mxGeometry>
        </mxCell>
        <mxCell id="qQ9N42Zz9jeaZzvQYdQ--157" value="" style="ellipse;whiteSpace=wrap;html=1;align=center;aspect=fixed;resizable=0;points=[];outlineConnect=0;sketch=0;" parent="1" vertex="1">
          <mxGeometry x="2646" y="1957.5" width="10" height="10" as="geometry" />
        </mxCell>
        <mxCell id="qQ9N42Zz9jeaZzvQYdQ--158" value="" style="endArrow=none;html=1;rounded=0;exitX=1;exitY=0.5;exitDx=0;exitDy=0;" parent="1" source="qQ9N42Zz9jeaZzvQYdQ--146" target="qQ9N42Zz9jeaZzvQYdQ--157" edge="1">
          <mxGeometry width="50" height="50" relative="1" as="geometry">
            <mxPoint x="2594" y="1970.5" as="sourcePoint" />
            <mxPoint x="2634" y="1960.5" as="targetPoint" />
          </mxGeometry>
        </mxCell>
        <mxCell id="qQ9N42Zz9jeaZzvQYdQ--159" value="" style="whiteSpace=wrap;html=1;aspect=fixed;" parent="1" vertex="1">
          <mxGeometry x="2693" y="1955" width="15" height="15" as="geometry" />
        </mxCell>
        <mxCell id="qQ9N42Zz9jeaZzvQYdQ--160" value="" style="endArrow=none;html=1;rounded=0;entryX=0;entryY=0.5;entryDx=0;entryDy=0;" parent="1" target="qQ9N42Zz9jeaZzvQYdQ--159" edge="1">
          <mxGeometry width="50" height="50" relative="1" as="geometry">
            <mxPoint x="2664" y="1962.5" as="sourcePoint" />
            <mxPoint x="2694" y="1940.5" as="targetPoint" />
          </mxGeometry>
        </mxCell>
        <mxCell id="qQ9N42Zz9jeaZzvQYdQ--161" value="" style="whiteSpace=wrap;html=1;aspect=fixed;" parent="1" vertex="1">
          <mxGeometry x="2693" y="2000" width="15" height="15" as="geometry" />
        </mxCell>
        <mxCell id="qQ9N42Zz9jeaZzvQYdQ--162" value="" style="rounded=0;orthogonalLoop=1;jettySize=auto;html=1;endArrow=none;endFill=0;sketch=0;sourcePerimeterSpacing=0;targetPerimeterSpacing=0;exitX=1;exitY=0.5;exitDx=0;exitDy=0;" parent="1" source="qQ9N42Zz9jeaZzvQYdQ--151" target="qQ9N42Zz9jeaZzvQYdQ--163" edge="1">
          <mxGeometry relative="1" as="geometry">
            <mxPoint x="2588" y="2007.5" as="sourcePoint" />
          </mxGeometry>
        </mxCell>
        <mxCell id="qQ9N42Zz9jeaZzvQYdQ--163" value="" style="ellipse;whiteSpace=wrap;html=1;align=center;aspect=fixed;resizable=0;points=[];outlineConnect=0;sketch=0;" parent="1" vertex="1">
          <mxGeometry x="2632" y="2002.5" width="10" height="10" as="geometry" />
        </mxCell>
        <mxCell id="qQ9N42Zz9jeaZzvQYdQ--164" value="" style="endArrow=none;html=1;rounded=0;entryX=0;entryY=0.5;entryDx=0;entryDy=0;" parent="1" source="qQ9N42Zz9jeaZzvQYdQ--163" target="qQ9N42Zz9jeaZzvQYdQ--161" edge="1">
          <mxGeometry width="50" height="50" relative="1" as="geometry">
            <mxPoint x="2643" y="2042.5" as="sourcePoint" />
            <mxPoint x="2693" y="1992.5" as="targetPoint" />
          </mxGeometry>
        </mxCell>
        <mxCell id="qQ9N42Zz9jeaZzvQYdQ--165" value="" style="whiteSpace=wrap;html=1;aspect=fixed;" parent="1" vertex="1">
          <mxGeometry x="2460" y="1785" width="15" height="15" as="geometry" />
        </mxCell>
        <mxCell id="qQ9N42Zz9jeaZzvQYdQ--166" value="" style="whiteSpace=wrap;html=1;aspect=fixed;" parent="1" vertex="1">
          <mxGeometry x="2577" y="1785" width="15" height="15" as="geometry" />
        </mxCell>
        <mxCell id="qQ9N42Zz9jeaZzvQYdQ--167" value="" style="rounded=0;orthogonalLoop=1;jettySize=auto;html=1;endArrow=none;endFill=0;sketch=0;sourcePerimeterSpacing=0;targetPerimeterSpacing=0;exitX=1;exitY=0.5;exitDx=0;exitDy=0;" parent="1" source="qQ9N42Zz9jeaZzvQYdQ--165" target="qQ9N42Zz9jeaZzvQYdQ--168" edge="1">
          <mxGeometry relative="1" as="geometry">
            <mxPoint x="2570" y="1842.5" as="sourcePoint" />
          </mxGeometry>
        </mxCell>
        <mxCell id="qQ9N42Zz9jeaZzvQYdQ--168" value="" style="ellipse;whiteSpace=wrap;html=1;align=center;aspect=fixed;resizable=0;points=[];outlineConnect=0;sketch=0;" parent="1" vertex="1">
          <mxGeometry x="2519" y="1787.5" width="10" height="10" as="geometry" />
        </mxCell>
        <mxCell id="qQ9N42Zz9jeaZzvQYdQ--169" value="" style="endArrow=none;html=1;rounded=0;entryX=0;entryY=0.5;entryDx=0;entryDy=0;" parent="1" source="qQ9N42Zz9jeaZzvQYdQ--168" target="qQ9N42Zz9jeaZzvQYdQ--166" edge="1">
          <mxGeometry width="50" height="50" relative="1" as="geometry">
            <mxPoint x="2530" y="1827.5" as="sourcePoint" />
            <mxPoint x="2580" y="1777.5" as="targetPoint" />
          </mxGeometry>
        </mxCell>
        <mxCell id="qQ9N42Zz9jeaZzvQYdQ--170" value="" style="whiteSpace=wrap;html=1;aspect=fixed;" parent="1" vertex="1">
          <mxGeometry x="2461" y="1830" width="15" height="15" as="geometry" />
        </mxCell>
        <mxCell id="qQ9N42Zz9jeaZzvQYdQ--171" value="" style="whiteSpace=wrap;html=1;aspect=fixed;" parent="1" vertex="1">
          <mxGeometry x="2577" y="1830" width="15" height="15" as="geometry" />
        </mxCell>
        <mxCell id="qQ9N42Zz9jeaZzvQYdQ--172" value="" style="rounded=0;orthogonalLoop=1;jettySize=auto;html=1;endArrow=none;endFill=0;sketch=0;sourcePerimeterSpacing=0;targetPerimeterSpacing=0;exitX=0;exitY=0.5;exitDx=0;exitDy=0;" parent="1" source="qQ9N42Zz9jeaZzvQYdQ--171" target="qQ9N42Zz9jeaZzvQYdQ--174" edge="1">
          <mxGeometry relative="1" as="geometry">
            <mxPoint x="2504" y="1838.5" as="sourcePoint" />
          </mxGeometry>
        </mxCell>
        <mxCell id="qQ9N42Zz9jeaZzvQYdQ--173" value="" style="rounded=0;orthogonalLoop=1;jettySize=auto;html=1;endArrow=halfCircle;endFill=0;entryX=0.5;entryY=0.5;endSize=6;strokeWidth=1;sketch=0;exitX=1;exitY=0.5;exitDx=0;exitDy=0;" parent="1" source="qQ9N42Zz9jeaZzvQYdQ--170" target="qQ9N42Zz9jeaZzvQYdQ--174" edge="1">
          <mxGeometry relative="1" as="geometry">
            <mxPoint x="2544" y="1838.5" as="sourcePoint" />
          </mxGeometry>
        </mxCell>
        <mxCell id="qQ9N42Zz9jeaZzvQYdQ--174" value="" style="ellipse;whiteSpace=wrap;html=1;align=center;aspect=fixed;resizable=0;points=[];outlineConnect=0;sketch=0;" parent="1" vertex="1">
          <mxGeometry x="2519" y="1832.5" width="10" height="10" as="geometry" />
        </mxCell>
        <mxCell id="qQ9N42Zz9jeaZzvQYdQ--175" value="" style="rounded=0;orthogonalLoop=1;jettySize=auto;html=1;endArrow=none;endFill=0;sketch=0;sourcePerimeterSpacing=0;targetPerimeterSpacing=0;" parent="1" target="qQ9N42Zz9jeaZzvQYdQ--177" edge="1">
          <mxGeometry relative="1" as="geometry">
            <mxPoint x="2632" y="1792.5" as="sourcePoint" />
          </mxGeometry>
        </mxCell>
        <mxCell id="qQ9N42Zz9jeaZzvQYdQ--176" value="" style="rounded=0;orthogonalLoop=1;jettySize=auto;html=1;endArrow=halfCircle;endFill=0;entryX=0.5;entryY=0.5;endSize=6;strokeWidth=1;sketch=0;" parent="1" target="qQ9N42Zz9jeaZzvQYdQ--177" edge="1">
          <mxGeometry relative="1" as="geometry">
            <mxPoint x="2672" y="1792.5" as="sourcePoint" />
          </mxGeometry>
        </mxCell>
        <mxCell id="qQ9N42Zz9jeaZzvQYdQ--177" value="" style="ellipse;whiteSpace=wrap;html=1;align=center;aspect=fixed;resizable=0;points=[];outlineConnect=0;sketch=0;" parent="1" vertex="1">
          <mxGeometry x="2647" y="1787.5" width="10" height="10" as="geometry" />
        </mxCell>
        <mxCell id="qQ9N42Zz9jeaZzvQYdQ--178" value="" style="endArrow=none;html=1;rounded=0;exitX=1;exitY=0.5;exitDx=0;exitDy=0;" parent="1" source="qQ9N42Zz9jeaZzvQYdQ--166" target="qQ9N42Zz9jeaZzvQYdQ--177" edge="1">
          <mxGeometry width="50" height="50" relative="1" as="geometry">
            <mxPoint x="2595" y="1800.5" as="sourcePoint" />
            <mxPoint x="2635" y="1790.5" as="targetPoint" />
          </mxGeometry>
        </mxCell>
        <mxCell id="qQ9N42Zz9jeaZzvQYdQ--179" value="" style="whiteSpace=wrap;html=1;aspect=fixed;" parent="1" vertex="1">
          <mxGeometry x="2694" y="1785" width="15" height="15" as="geometry" />
        </mxCell>
        <mxCell id="qQ9N42Zz9jeaZzvQYdQ--180" value="" style="endArrow=none;html=1;rounded=0;entryX=0;entryY=0.5;entryDx=0;entryDy=0;" parent="1" target="qQ9N42Zz9jeaZzvQYdQ--179" edge="1">
          <mxGeometry width="50" height="50" relative="1" as="geometry">
            <mxPoint x="2665" y="1792.5" as="sourcePoint" />
            <mxPoint x="2695" y="1770.5" as="targetPoint" />
          </mxGeometry>
        </mxCell>
        <mxCell id="qQ9N42Zz9jeaZzvQYdQ--181" value="" style="whiteSpace=wrap;html=1;aspect=fixed;" parent="1" vertex="1">
          <mxGeometry x="2694" y="1830" width="15" height="15" as="geometry" />
        </mxCell>
        <mxCell id="qQ9N42Zz9jeaZzvQYdQ--182" value="" style="rounded=0;orthogonalLoop=1;jettySize=auto;html=1;endArrow=none;endFill=0;sketch=0;sourcePerimeterSpacing=0;targetPerimeterSpacing=0;exitX=1;exitY=0.5;exitDx=0;exitDy=0;" parent="1" source="qQ9N42Zz9jeaZzvQYdQ--171" target="qQ9N42Zz9jeaZzvQYdQ--183" edge="1">
          <mxGeometry relative="1" as="geometry">
            <mxPoint x="2589" y="1837.5" as="sourcePoint" />
          </mxGeometry>
        </mxCell>
        <mxCell id="qQ9N42Zz9jeaZzvQYdQ--183" value="" style="ellipse;whiteSpace=wrap;html=1;align=center;aspect=fixed;resizable=0;points=[];outlineConnect=0;sketch=0;" parent="1" vertex="1">
          <mxGeometry x="2633" y="1832.5" width="10" height="10" as="geometry" />
        </mxCell>
        <mxCell id="qQ9N42Zz9jeaZzvQYdQ--184" value="" style="endArrow=none;html=1;rounded=0;entryX=0;entryY=0.5;entryDx=0;entryDy=0;" parent="1" source="qQ9N42Zz9jeaZzvQYdQ--183" target="qQ9N42Zz9jeaZzvQYdQ--181" edge="1">
          <mxGeometry width="50" height="50" relative="1" as="geometry">
            <mxPoint x="2644" y="1872.5" as="sourcePoint" />
            <mxPoint x="2694" y="1822.5" as="targetPoint" />
          </mxGeometry>
        </mxCell>
        <mxCell id="qQ9N42Zz9jeaZzvQYdQ--185" value="" style="rounded=0;orthogonalLoop=1;jettySize=auto;html=1;endArrow=none;endFill=0;sketch=0;sourcePerimeterSpacing=0;targetPerimeterSpacing=0;exitX=0.5;exitY=0;exitDx=0;exitDy=0;" parent="1" target="qQ9N42Zz9jeaZzvQYdQ--187" edge="1">
          <mxGeometry relative="1" as="geometry">
            <mxPoint x="2844.5" y="1940" as="sourcePoint" />
          </mxGeometry>
        </mxCell>
        <mxCell id="qQ9N42Zz9jeaZzvQYdQ--186" value="" style="rounded=0;orthogonalLoop=1;jettySize=auto;html=1;endArrow=halfCircle;endFill=0;entryX=0.5;entryY=0.5;endSize=6;strokeWidth=1;sketch=0;exitX=0.5;exitY=1;exitDx=0;exitDy=0;" parent="1" target="qQ9N42Zz9jeaZzvQYdQ--187" edge="1">
          <mxGeometry relative="1" as="geometry">
            <mxPoint x="2844.5" y="1860" as="sourcePoint" />
          </mxGeometry>
        </mxCell>
        <mxCell id="qQ9N42Zz9jeaZzvQYdQ--187" value="" style="ellipse;whiteSpace=wrap;html=1;align=center;aspect=fixed;resizable=0;points=[];outlineConnect=0;sketch=0;" parent="1" vertex="1">
          <mxGeometry x="2839.5" y="1890" width="10" height="10" as="geometry" />
        </mxCell>
        <mxCell id="qQ9N42Zz9jeaZzvQYdQ--188" value="" style="whiteSpace=wrap;html=1;aspect=fixed;" parent="1" vertex="1">
          <mxGeometry x="2837" y="1853" width="15" height="15" as="geometry" />
        </mxCell>
        <mxCell id="qQ9N42Zz9jeaZzvQYdQ--189" value="" style="whiteSpace=wrap;html=1;aspect=fixed;" parent="1" vertex="1">
          <mxGeometry x="2837" y="1930" width="15" height="15" as="geometry" />
        </mxCell>
        <mxCell id="qQ9N42Zz9jeaZzvQYdQ--190" value="&lt;p style=&quot;margin:0px;margin-top:6px;text-align:center;&quot;&gt;&lt;b&gt;&amp;lt;&amp;lt;SubSystem&amp;gt;&amp;gt; HR Management&lt;/b&gt;&lt;/p&gt;&lt;hr&gt;&lt;p style=&quot;margin:0px;margin-left:8px;&quot;&gt;&lt;br&gt;&lt;/p&gt;" style="align=left;overflow=fill;html=1;dropTarget=0;whiteSpace=wrap;" parent="1" vertex="1">
          <mxGeometry x="2587" y="2140" width="330" height="390" as="geometry" />
        </mxCell>
        <mxCell id="qQ9N42Zz9jeaZzvQYdQ--191" value="" style="shape=component;jettyWidth=8;jettyHeight=4;" parent="qQ9N42Zz9jeaZzvQYdQ--190" vertex="1">
          <mxGeometry x="1" width="20" height="20" relative="1" as="geometry">
            <mxPoint x="-24" y="4" as="offset" />
          </mxGeometry>
        </mxCell>
        <mxCell id="qQ9N42Zz9jeaZzvQYdQ--192" value="«Component»&lt;br&gt;&lt;b&gt;Employee Promotion&lt;/b&gt;" style="html=1;dropTarget=0;whiteSpace=wrap;" parent="1" vertex="1">
          <mxGeometry x="2705" y="2210" width="180" height="90" as="geometry" />
        </mxCell>
        <mxCell id="qQ9N42Zz9jeaZzvQYdQ--193" value="" style="shape=module;jettyWidth=8;jettyHeight=4;" parent="qQ9N42Zz9jeaZzvQYdQ--192" vertex="1">
          <mxGeometry x="1" width="20" height="20" relative="1" as="geometry">
            <mxPoint x="-27" y="7" as="offset" />
          </mxGeometry>
        </mxCell>
        <mxCell id="qQ9N42Zz9jeaZzvQYdQ--194" value="«Component»&lt;br&gt;&lt;b&gt;Hiring and Fiaring&lt;/b&gt;" style="html=1;dropTarget=0;whiteSpace=wrap;" parent="1" vertex="1">
          <mxGeometry x="2705" y="2380" width="180" height="90" as="geometry" />
        </mxCell>
        <mxCell id="qQ9N42Zz9jeaZzvQYdQ--195" value="" style="shape=module;jettyWidth=8;jettyHeight=4;" parent="qQ9N42Zz9jeaZzvQYdQ--194" vertex="1">
          <mxGeometry x="1" width="20" height="20" relative="1" as="geometry">
            <mxPoint x="-27" y="7" as="offset" />
          </mxGeometry>
        </mxCell>
        <mxCell id="qQ9N42Zz9jeaZzvQYdQ--196" value="" style="whiteSpace=wrap;html=1;aspect=fixed;" parent="1" vertex="1">
          <mxGeometry x="2460" y="2395" width="15" height="15" as="geometry" />
        </mxCell>
        <mxCell id="qQ9N42Zz9jeaZzvQYdQ--197" value="" style="whiteSpace=wrap;html=1;aspect=fixed;" parent="1" vertex="1">
          <mxGeometry x="2577" y="2395" width="15" height="15" as="geometry" />
        </mxCell>
        <mxCell id="qQ9N42Zz9jeaZzvQYdQ--198" value="" style="rounded=0;orthogonalLoop=1;jettySize=auto;html=1;endArrow=none;endFill=0;sketch=0;sourcePerimeterSpacing=0;targetPerimeterSpacing=0;exitX=1;exitY=0.5;exitDx=0;exitDy=0;" parent="1" source="qQ9N42Zz9jeaZzvQYdQ--196" target="qQ9N42Zz9jeaZzvQYdQ--199" edge="1">
          <mxGeometry relative="1" as="geometry">
            <mxPoint x="2570" y="2452.5" as="sourcePoint" />
          </mxGeometry>
        </mxCell>
        <mxCell id="qQ9N42Zz9jeaZzvQYdQ--199" value="" style="ellipse;whiteSpace=wrap;html=1;align=center;aspect=fixed;resizable=0;points=[];outlineConnect=0;sketch=0;" parent="1" vertex="1">
          <mxGeometry x="2519" y="2397.5" width="10" height="10" as="geometry" />
        </mxCell>
        <mxCell id="qQ9N42Zz9jeaZzvQYdQ--200" value="" style="endArrow=none;html=1;rounded=0;entryX=0;entryY=0.5;entryDx=0;entryDy=0;" parent="1" source="qQ9N42Zz9jeaZzvQYdQ--199" target="qQ9N42Zz9jeaZzvQYdQ--197" edge="1">
          <mxGeometry width="50" height="50" relative="1" as="geometry">
            <mxPoint x="2530" y="2437.5" as="sourcePoint" />
            <mxPoint x="2580" y="2387.5" as="targetPoint" />
          </mxGeometry>
        </mxCell>
        <mxCell id="qQ9N42Zz9jeaZzvQYdQ--201" value="" style="whiteSpace=wrap;html=1;aspect=fixed;" parent="1" vertex="1">
          <mxGeometry x="2461" y="2440" width="15" height="15" as="geometry" />
        </mxCell>
        <mxCell id="qQ9N42Zz9jeaZzvQYdQ--202" value="" style="whiteSpace=wrap;html=1;aspect=fixed;" parent="1" vertex="1">
          <mxGeometry x="2577" y="2440" width="15" height="15" as="geometry" />
        </mxCell>
        <mxCell id="qQ9N42Zz9jeaZzvQYdQ--203" value="" style="rounded=0;orthogonalLoop=1;jettySize=auto;html=1;endArrow=none;endFill=0;sketch=0;sourcePerimeterSpacing=0;targetPerimeterSpacing=0;exitX=0;exitY=0.5;exitDx=0;exitDy=0;" parent="1" source="qQ9N42Zz9jeaZzvQYdQ--202" target="qQ9N42Zz9jeaZzvQYdQ--205" edge="1">
          <mxGeometry relative="1" as="geometry">
            <mxPoint x="2504" y="2448.5" as="sourcePoint" />
          </mxGeometry>
        </mxCell>
        <mxCell id="qQ9N42Zz9jeaZzvQYdQ--204" value="" style="rounded=0;orthogonalLoop=1;jettySize=auto;html=1;endArrow=halfCircle;endFill=0;entryX=0.5;entryY=0.5;endSize=6;strokeWidth=1;sketch=0;exitX=1;exitY=0.5;exitDx=0;exitDy=0;" parent="1" source="qQ9N42Zz9jeaZzvQYdQ--201" target="qQ9N42Zz9jeaZzvQYdQ--205" edge="1">
          <mxGeometry relative="1" as="geometry">
            <mxPoint x="2544" y="2448.5" as="sourcePoint" />
          </mxGeometry>
        </mxCell>
        <mxCell id="qQ9N42Zz9jeaZzvQYdQ--205" value="" style="ellipse;whiteSpace=wrap;html=1;align=center;aspect=fixed;resizable=0;points=[];outlineConnect=0;sketch=0;" parent="1" vertex="1">
          <mxGeometry x="2519" y="2442.5" width="10" height="10" as="geometry" />
        </mxCell>
        <mxCell id="qQ9N42Zz9jeaZzvQYdQ--206" value="" style="rounded=0;orthogonalLoop=1;jettySize=auto;html=1;endArrow=none;endFill=0;sketch=0;sourcePerimeterSpacing=0;targetPerimeterSpacing=0;" parent="1" target="qQ9N42Zz9jeaZzvQYdQ--208" edge="1">
          <mxGeometry relative="1" as="geometry">
            <mxPoint x="2632" y="2402.5" as="sourcePoint" />
          </mxGeometry>
        </mxCell>
        <mxCell id="qQ9N42Zz9jeaZzvQYdQ--207" value="" style="rounded=0;orthogonalLoop=1;jettySize=auto;html=1;endArrow=halfCircle;endFill=0;entryX=0.5;entryY=0.5;endSize=6;strokeWidth=1;sketch=0;" parent="1" target="qQ9N42Zz9jeaZzvQYdQ--208" edge="1">
          <mxGeometry relative="1" as="geometry">
            <mxPoint x="2672" y="2402.5" as="sourcePoint" />
          </mxGeometry>
        </mxCell>
        <mxCell id="qQ9N42Zz9jeaZzvQYdQ--208" value="" style="ellipse;whiteSpace=wrap;html=1;align=center;aspect=fixed;resizable=0;points=[];outlineConnect=0;sketch=0;" parent="1" vertex="1">
          <mxGeometry x="2647" y="2397.5" width="10" height="10" as="geometry" />
        </mxCell>
        <mxCell id="qQ9N42Zz9jeaZzvQYdQ--209" value="" style="endArrow=none;html=1;rounded=0;exitX=1;exitY=0.5;exitDx=0;exitDy=0;" parent="1" source="qQ9N42Zz9jeaZzvQYdQ--197" target="qQ9N42Zz9jeaZzvQYdQ--208" edge="1">
          <mxGeometry width="50" height="50" relative="1" as="geometry">
            <mxPoint x="2595" y="2410.5" as="sourcePoint" />
            <mxPoint x="2635" y="2400.5" as="targetPoint" />
          </mxGeometry>
        </mxCell>
        <mxCell id="qQ9N42Zz9jeaZzvQYdQ--210" value="" style="whiteSpace=wrap;html=1;aspect=fixed;" parent="1" vertex="1">
          <mxGeometry x="2694" y="2395" width="15" height="15" as="geometry" />
        </mxCell>
        <mxCell id="qQ9N42Zz9jeaZzvQYdQ--211" value="" style="endArrow=none;html=1;rounded=0;entryX=0;entryY=0.5;entryDx=0;entryDy=0;" parent="1" target="qQ9N42Zz9jeaZzvQYdQ--210" edge="1">
          <mxGeometry width="50" height="50" relative="1" as="geometry">
            <mxPoint x="2665" y="2402.5" as="sourcePoint" />
            <mxPoint x="2695" y="2380.5" as="targetPoint" />
          </mxGeometry>
        </mxCell>
        <mxCell id="qQ9N42Zz9jeaZzvQYdQ--212" value="" style="whiteSpace=wrap;html=1;aspect=fixed;" parent="1" vertex="1">
          <mxGeometry x="2694" y="2440" width="15" height="15" as="geometry" />
        </mxCell>
        <mxCell id="qQ9N42Zz9jeaZzvQYdQ--213" value="" style="rounded=0;orthogonalLoop=1;jettySize=auto;html=1;endArrow=none;endFill=0;sketch=0;sourcePerimeterSpacing=0;targetPerimeterSpacing=0;exitX=1;exitY=0.5;exitDx=0;exitDy=0;" parent="1" source="qQ9N42Zz9jeaZzvQYdQ--202" target="qQ9N42Zz9jeaZzvQYdQ--214" edge="1">
          <mxGeometry relative="1" as="geometry">
            <mxPoint x="2589" y="2447.5" as="sourcePoint" />
          </mxGeometry>
        </mxCell>
        <mxCell id="qQ9N42Zz9jeaZzvQYdQ--214" value="" style="ellipse;whiteSpace=wrap;html=1;align=center;aspect=fixed;resizable=0;points=[];outlineConnect=0;sketch=0;" parent="1" vertex="1">
          <mxGeometry x="2633" y="2442.5" width="10" height="10" as="geometry" />
        </mxCell>
        <mxCell id="qQ9N42Zz9jeaZzvQYdQ--215" value="" style="endArrow=none;html=1;rounded=0;entryX=0;entryY=0.5;entryDx=0;entryDy=0;" parent="1" source="qQ9N42Zz9jeaZzvQYdQ--214" target="qQ9N42Zz9jeaZzvQYdQ--212" edge="1">
          <mxGeometry width="50" height="50" relative="1" as="geometry">
            <mxPoint x="2644" y="2482.5" as="sourcePoint" />
            <mxPoint x="2694" y="2432.5" as="targetPoint" />
          </mxGeometry>
        </mxCell>
        <mxCell id="qQ9N42Zz9jeaZzvQYdQ--216" value="" style="whiteSpace=wrap;html=1;aspect=fixed;" parent="1" vertex="1">
          <mxGeometry x="2461" y="2225" width="15" height="15" as="geometry" />
        </mxCell>
        <mxCell id="qQ9N42Zz9jeaZzvQYdQ--217" value="" style="whiteSpace=wrap;html=1;aspect=fixed;" parent="1" vertex="1">
          <mxGeometry x="2578" y="2225" width="15" height="15" as="geometry" />
        </mxCell>
        <mxCell id="qQ9N42Zz9jeaZzvQYdQ--218" value="" style="rounded=0;orthogonalLoop=1;jettySize=auto;html=1;endArrow=none;endFill=0;sketch=0;sourcePerimeterSpacing=0;targetPerimeterSpacing=0;exitX=1;exitY=0.5;exitDx=0;exitDy=0;" parent="1" source="qQ9N42Zz9jeaZzvQYdQ--216" target="qQ9N42Zz9jeaZzvQYdQ--219" edge="1">
          <mxGeometry relative="1" as="geometry">
            <mxPoint x="2571" y="2282.5" as="sourcePoint" />
          </mxGeometry>
        </mxCell>
        <mxCell id="qQ9N42Zz9jeaZzvQYdQ--219" value="" style="ellipse;whiteSpace=wrap;html=1;align=center;aspect=fixed;resizable=0;points=[];outlineConnect=0;sketch=0;" parent="1" vertex="1">
          <mxGeometry x="2520" y="2227.5" width="10" height="10" as="geometry" />
        </mxCell>
        <mxCell id="qQ9N42Zz9jeaZzvQYdQ--220" value="" style="endArrow=none;html=1;rounded=0;entryX=0;entryY=0.5;entryDx=0;entryDy=0;" parent="1" source="qQ9N42Zz9jeaZzvQYdQ--219" target="qQ9N42Zz9jeaZzvQYdQ--217" edge="1">
          <mxGeometry width="50" height="50" relative="1" as="geometry">
            <mxPoint x="2531" y="2267.5" as="sourcePoint" />
            <mxPoint x="2581" y="2217.5" as="targetPoint" />
          </mxGeometry>
        </mxCell>
        <mxCell id="qQ9N42Zz9jeaZzvQYdQ--221" value="" style="whiteSpace=wrap;html=1;aspect=fixed;" parent="1" vertex="1">
          <mxGeometry x="2462" y="2270" width="15" height="15" as="geometry" />
        </mxCell>
        <mxCell id="qQ9N42Zz9jeaZzvQYdQ--222" value="" style="whiteSpace=wrap;html=1;aspect=fixed;" parent="1" vertex="1">
          <mxGeometry x="2578" y="2270" width="15" height="15" as="geometry" />
        </mxCell>
        <mxCell id="qQ9N42Zz9jeaZzvQYdQ--223" value="" style="rounded=0;orthogonalLoop=1;jettySize=auto;html=1;endArrow=none;endFill=0;sketch=0;sourcePerimeterSpacing=0;targetPerimeterSpacing=0;exitX=0;exitY=0.5;exitDx=0;exitDy=0;" parent="1" source="qQ9N42Zz9jeaZzvQYdQ--222" target="qQ9N42Zz9jeaZzvQYdQ--225" edge="1">
          <mxGeometry relative="1" as="geometry">
            <mxPoint x="2505" y="2278.5" as="sourcePoint" />
          </mxGeometry>
        </mxCell>
        <mxCell id="qQ9N42Zz9jeaZzvQYdQ--224" value="" style="rounded=0;orthogonalLoop=1;jettySize=auto;html=1;endArrow=halfCircle;endFill=0;entryX=0.5;entryY=0.5;endSize=6;strokeWidth=1;sketch=0;exitX=1;exitY=0.5;exitDx=0;exitDy=0;" parent="1" source="qQ9N42Zz9jeaZzvQYdQ--221" target="qQ9N42Zz9jeaZzvQYdQ--225" edge="1">
          <mxGeometry relative="1" as="geometry">
            <mxPoint x="2545" y="2278.5" as="sourcePoint" />
          </mxGeometry>
        </mxCell>
        <mxCell id="qQ9N42Zz9jeaZzvQYdQ--225" value="" style="ellipse;whiteSpace=wrap;html=1;align=center;aspect=fixed;resizable=0;points=[];outlineConnect=0;sketch=0;" parent="1" vertex="1">
          <mxGeometry x="2520" y="2272.5" width="10" height="10" as="geometry" />
        </mxCell>
        <mxCell id="qQ9N42Zz9jeaZzvQYdQ--226" value="" style="rounded=0;orthogonalLoop=1;jettySize=auto;html=1;endArrow=none;endFill=0;sketch=0;sourcePerimeterSpacing=0;targetPerimeterSpacing=0;" parent="1" target="qQ9N42Zz9jeaZzvQYdQ--228" edge="1">
          <mxGeometry relative="1" as="geometry">
            <mxPoint x="2633" y="2232.5" as="sourcePoint" />
          </mxGeometry>
        </mxCell>
        <mxCell id="qQ9N42Zz9jeaZzvQYdQ--227" value="" style="rounded=0;orthogonalLoop=1;jettySize=auto;html=1;endArrow=halfCircle;endFill=0;entryX=0.5;entryY=0.5;endSize=6;strokeWidth=1;sketch=0;" parent="1" target="qQ9N42Zz9jeaZzvQYdQ--228" edge="1">
          <mxGeometry relative="1" as="geometry">
            <mxPoint x="2673" y="2232.5" as="sourcePoint" />
          </mxGeometry>
        </mxCell>
        <mxCell id="qQ9N42Zz9jeaZzvQYdQ--228" value="" style="ellipse;whiteSpace=wrap;html=1;align=center;aspect=fixed;resizable=0;points=[];outlineConnect=0;sketch=0;" parent="1" vertex="1">
          <mxGeometry x="2648" y="2227.5" width="10" height="10" as="geometry" />
        </mxCell>
        <mxCell id="qQ9N42Zz9jeaZzvQYdQ--229" value="" style="endArrow=none;html=1;rounded=0;exitX=1;exitY=0.5;exitDx=0;exitDy=0;" parent="1" source="qQ9N42Zz9jeaZzvQYdQ--217" target="qQ9N42Zz9jeaZzvQYdQ--228" edge="1">
          <mxGeometry width="50" height="50" relative="1" as="geometry">
            <mxPoint x="2596" y="2240.5" as="sourcePoint" />
            <mxPoint x="2636" y="2230.5" as="targetPoint" />
          </mxGeometry>
        </mxCell>
        <mxCell id="qQ9N42Zz9jeaZzvQYdQ--230" value="" style="whiteSpace=wrap;html=1;aspect=fixed;" parent="1" vertex="1">
          <mxGeometry x="2695" y="2225" width="15" height="15" as="geometry" />
        </mxCell>
        <mxCell id="qQ9N42Zz9jeaZzvQYdQ--231" value="" style="endArrow=none;html=1;rounded=0;entryX=0;entryY=0.5;entryDx=0;entryDy=0;" parent="1" target="qQ9N42Zz9jeaZzvQYdQ--230" edge="1">
          <mxGeometry width="50" height="50" relative="1" as="geometry">
            <mxPoint x="2666" y="2232.5" as="sourcePoint" />
            <mxPoint x="2696" y="2210.5" as="targetPoint" />
          </mxGeometry>
        </mxCell>
        <mxCell id="qQ9N42Zz9jeaZzvQYdQ--232" value="" style="whiteSpace=wrap;html=1;aspect=fixed;" parent="1" vertex="1">
          <mxGeometry x="2695" y="2270" width="15" height="15" as="geometry" />
        </mxCell>
        <mxCell id="qQ9N42Zz9jeaZzvQYdQ--233" value="" style="rounded=0;orthogonalLoop=1;jettySize=auto;html=1;endArrow=none;endFill=0;sketch=0;sourcePerimeterSpacing=0;targetPerimeterSpacing=0;exitX=1;exitY=0.5;exitDx=0;exitDy=0;" parent="1" source="qQ9N42Zz9jeaZzvQYdQ--222" target="qQ9N42Zz9jeaZzvQYdQ--234" edge="1">
          <mxGeometry relative="1" as="geometry">
            <mxPoint x="2590" y="2277.5" as="sourcePoint" />
          </mxGeometry>
        </mxCell>
        <mxCell id="qQ9N42Zz9jeaZzvQYdQ--234" value="" style="ellipse;whiteSpace=wrap;html=1;align=center;aspect=fixed;resizable=0;points=[];outlineConnect=0;sketch=0;" parent="1" vertex="1">
          <mxGeometry x="2634" y="2272.5" width="10" height="10" as="geometry" />
        </mxCell>
        <mxCell id="qQ9N42Zz9jeaZzvQYdQ--235" value="" style="endArrow=none;html=1;rounded=0;entryX=0;entryY=0.5;entryDx=0;entryDy=0;" parent="1" source="qQ9N42Zz9jeaZzvQYdQ--234" target="qQ9N42Zz9jeaZzvQYdQ--232" edge="1">
          <mxGeometry width="50" height="50" relative="1" as="geometry">
            <mxPoint x="2645" y="2312.5" as="sourcePoint" />
            <mxPoint x="2695" y="2262.5" as="targetPoint" />
          </mxGeometry>
        </mxCell>
        <mxCell id="qQ9N42Zz9jeaZzvQYdQ--236" value="" style="rounded=0;orthogonalLoop=1;jettySize=auto;html=1;endArrow=none;endFill=0;sketch=0;sourcePerimeterSpacing=0;targetPerimeterSpacing=0;exitX=0.5;exitY=0;exitDx=0;exitDy=0;" parent="1" source="qQ9N42Zz9jeaZzvQYdQ--194" target="qQ9N42Zz9jeaZzvQYdQ--238" edge="1">
          <mxGeometry relative="1" as="geometry">
            <mxPoint x="2829.9999999999995" y="2410" as="sourcePoint" />
          </mxGeometry>
        </mxCell>
        <mxCell id="qQ9N42Zz9jeaZzvQYdQ--237" value="" style="rounded=0;orthogonalLoop=1;jettySize=auto;html=1;endArrow=halfCircle;endFill=0;entryX=0.5;entryY=0.5;endSize=6;strokeWidth=1;sketch=0;exitX=0.5;exitY=1;exitDx=0;exitDy=0;" parent="1" source="qQ9N42Zz9jeaZzvQYdQ--192" target="qQ9N42Zz9jeaZzvQYdQ--238" edge="1">
          <mxGeometry relative="1" as="geometry">
            <mxPoint x="2829.9999999999995" y="2330" as="sourcePoint" />
          </mxGeometry>
        </mxCell>
        <mxCell id="qQ9N42Zz9jeaZzvQYdQ--238" value="" style="ellipse;whiteSpace=wrap;html=1;align=center;aspect=fixed;resizable=0;points=[];outlineConnect=0;sketch=0;" parent="1" vertex="1">
          <mxGeometry x="2790" y="2330" width="10" height="10" as="geometry" />
        </mxCell>
        <mxCell id="qQ9N42Zz9jeaZzvQYdQ--239" value="" style="whiteSpace=wrap;html=1;aspect=fixed;" parent="1" vertex="1">
          <mxGeometry x="2787.5" y="2293" width="15" height="15" as="geometry" />
        </mxCell>
        <mxCell id="qQ9N42Zz9jeaZzvQYdQ--240" value="" style="whiteSpace=wrap;html=1;aspect=fixed;" parent="1" vertex="1">
          <mxGeometry x="2787.5" y="2370" width="15" height="15" as="geometry" />
        </mxCell>
        <mxCell id="qQ9N42Zz9jeaZzvQYdQ--268" value="&lt;p style=&quot;margin:0px;margin-top:6px;text-align:center;&quot;&gt;&lt;b&gt;&amp;lt;&amp;lt;SubSystem&amp;gt;&amp;gt;&amp;nbsp;&lt;/b&gt;&lt;b style=&quot;background-color: initial;&quot;&gt;Laboratory Management&lt;/b&gt;&lt;/p&gt;&lt;hr&gt;&lt;p style=&quot;margin:0px;margin-left:8px;&quot;&gt;&lt;br&gt;&lt;/p&gt;" style="align=left;overflow=fill;html=1;dropTarget=0;whiteSpace=wrap;" parent="1" vertex="1">
          <mxGeometry x="2587" y="2612.5" width="330" height="260" as="geometry" />
        </mxCell>
        <mxCell id="qQ9N42Zz9jeaZzvQYdQ--269" value="" style="shape=component;jettyWidth=8;jettyHeight=4;" parent="qQ9N42Zz9jeaZzvQYdQ--268" vertex="1">
          <mxGeometry x="1" width="20" height="20" relative="1" as="geometry">
            <mxPoint x="-24" y="4" as="offset" />
          </mxGeometry>
        </mxCell>
        <mxCell id="qQ9N42Zz9jeaZzvQYdQ--270" value="«Component»&lt;br&gt;&lt;b style=&quot;border-color: var(--border-color); background-color: initial;&quot;&gt;Laboratory Management&lt;/b&gt;" style="html=1;dropTarget=0;whiteSpace=wrap;" parent="1" vertex="1">
          <mxGeometry x="2705" y="2697.5" width="180" height="90" as="geometry" />
        </mxCell>
        <mxCell id="qQ9N42Zz9jeaZzvQYdQ--271" value="" style="shape=module;jettyWidth=8;jettyHeight=4;" parent="qQ9N42Zz9jeaZzvQYdQ--270" vertex="1">
          <mxGeometry x="1" width="20" height="20" relative="1" as="geometry">
            <mxPoint x="-27" y="7" as="offset" />
          </mxGeometry>
        </mxCell>
        <mxCell id="qQ9N42Zz9jeaZzvQYdQ--272" value="" style="whiteSpace=wrap;html=1;aspect=fixed;" parent="1" vertex="1">
          <mxGeometry x="2462" y="2712.5" width="15" height="15" as="geometry" />
        </mxCell>
        <mxCell id="qQ9N42Zz9jeaZzvQYdQ--273" value="" style="whiteSpace=wrap;html=1;aspect=fixed;" parent="1" vertex="1">
          <mxGeometry x="2579" y="2712.5" width="15" height="15" as="geometry" />
        </mxCell>
        <mxCell id="qQ9N42Zz9jeaZzvQYdQ--274" value="" style="rounded=0;orthogonalLoop=1;jettySize=auto;html=1;endArrow=none;endFill=0;sketch=0;sourcePerimeterSpacing=0;targetPerimeterSpacing=0;exitX=1;exitY=0.5;exitDx=0;exitDy=0;" parent="1" source="qQ9N42Zz9jeaZzvQYdQ--272" target="qQ9N42Zz9jeaZzvQYdQ--275" edge="1">
          <mxGeometry relative="1" as="geometry">
            <mxPoint x="2572" y="2770" as="sourcePoint" />
          </mxGeometry>
        </mxCell>
        <mxCell id="qQ9N42Zz9jeaZzvQYdQ--275" value="" style="ellipse;whiteSpace=wrap;html=1;align=center;aspect=fixed;resizable=0;points=[];outlineConnect=0;sketch=0;" parent="1" vertex="1">
          <mxGeometry x="2521" y="2715" width="10" height="10" as="geometry" />
        </mxCell>
        <mxCell id="qQ9N42Zz9jeaZzvQYdQ--276" value="" style="endArrow=none;html=1;rounded=0;entryX=0;entryY=0.5;entryDx=0;entryDy=0;" parent="1" source="qQ9N42Zz9jeaZzvQYdQ--275" target="qQ9N42Zz9jeaZzvQYdQ--273" edge="1">
          <mxGeometry width="50" height="50" relative="1" as="geometry">
            <mxPoint x="2532" y="2755" as="sourcePoint" />
            <mxPoint x="2582" y="2705" as="targetPoint" />
          </mxGeometry>
        </mxCell>
        <mxCell id="qQ9N42Zz9jeaZzvQYdQ--277" value="" style="whiteSpace=wrap;html=1;aspect=fixed;" parent="1" vertex="1">
          <mxGeometry x="2463" y="2757.5" width="15" height="15" as="geometry" />
        </mxCell>
        <mxCell id="qQ9N42Zz9jeaZzvQYdQ--278" value="" style="whiteSpace=wrap;html=1;aspect=fixed;" parent="1" vertex="1">
          <mxGeometry x="2579" y="2757.5" width="15" height="15" as="geometry" />
        </mxCell>
        <mxCell id="qQ9N42Zz9jeaZzvQYdQ--279" value="" style="rounded=0;orthogonalLoop=1;jettySize=auto;html=1;endArrow=none;endFill=0;sketch=0;sourcePerimeterSpacing=0;targetPerimeterSpacing=0;exitX=0;exitY=0.5;exitDx=0;exitDy=0;" parent="1" source="qQ9N42Zz9jeaZzvQYdQ--278" target="qQ9N42Zz9jeaZzvQYdQ--281" edge="1">
          <mxGeometry relative="1" as="geometry">
            <mxPoint x="2506" y="2766" as="sourcePoint" />
          </mxGeometry>
        </mxCell>
        <mxCell id="qQ9N42Zz9jeaZzvQYdQ--280" value="" style="rounded=0;orthogonalLoop=1;jettySize=auto;html=1;endArrow=halfCircle;endFill=0;entryX=0.5;entryY=0.5;endSize=6;strokeWidth=1;sketch=0;exitX=1;exitY=0.5;exitDx=0;exitDy=0;" parent="1" source="qQ9N42Zz9jeaZzvQYdQ--277" target="qQ9N42Zz9jeaZzvQYdQ--281" edge="1">
          <mxGeometry relative="1" as="geometry">
            <mxPoint x="2546" y="2766" as="sourcePoint" />
          </mxGeometry>
        </mxCell>
        <mxCell id="qQ9N42Zz9jeaZzvQYdQ--281" value="" style="ellipse;whiteSpace=wrap;html=1;align=center;aspect=fixed;resizable=0;points=[];outlineConnect=0;sketch=0;" parent="1" vertex="1">
          <mxGeometry x="2521" y="2760" width="10" height="10" as="geometry" />
        </mxCell>
        <mxCell id="qQ9N42Zz9jeaZzvQYdQ--282" value="" style="rounded=0;orthogonalLoop=1;jettySize=auto;html=1;endArrow=none;endFill=0;sketch=0;sourcePerimeterSpacing=0;targetPerimeterSpacing=0;" parent="1" target="qQ9N42Zz9jeaZzvQYdQ--284" edge="1">
          <mxGeometry relative="1" as="geometry">
            <mxPoint x="2634" y="2720" as="sourcePoint" />
          </mxGeometry>
        </mxCell>
        <mxCell id="qQ9N42Zz9jeaZzvQYdQ--283" value="" style="rounded=0;orthogonalLoop=1;jettySize=auto;html=1;endArrow=halfCircle;endFill=0;entryX=0.5;entryY=0.5;endSize=6;strokeWidth=1;sketch=0;" parent="1" target="qQ9N42Zz9jeaZzvQYdQ--284" edge="1">
          <mxGeometry relative="1" as="geometry">
            <mxPoint x="2674" y="2720" as="sourcePoint" />
          </mxGeometry>
        </mxCell>
        <mxCell id="qQ9N42Zz9jeaZzvQYdQ--284" value="" style="ellipse;whiteSpace=wrap;html=1;align=center;aspect=fixed;resizable=0;points=[];outlineConnect=0;sketch=0;" parent="1" vertex="1">
          <mxGeometry x="2649" y="2715" width="10" height="10" as="geometry" />
        </mxCell>
        <mxCell id="qQ9N42Zz9jeaZzvQYdQ--285" value="" style="endArrow=none;html=1;rounded=0;exitX=1;exitY=0.5;exitDx=0;exitDy=0;" parent="1" source="qQ9N42Zz9jeaZzvQYdQ--273" target="qQ9N42Zz9jeaZzvQYdQ--284" edge="1">
          <mxGeometry width="50" height="50" relative="1" as="geometry">
            <mxPoint x="2597" y="2728" as="sourcePoint" />
            <mxPoint x="2637" y="2718" as="targetPoint" />
          </mxGeometry>
        </mxCell>
        <mxCell id="qQ9N42Zz9jeaZzvQYdQ--286" value="" style="whiteSpace=wrap;html=1;aspect=fixed;" parent="1" vertex="1">
          <mxGeometry x="2696" y="2712.5" width="15" height="15" as="geometry" />
        </mxCell>
        <mxCell id="qQ9N42Zz9jeaZzvQYdQ--287" value="" style="endArrow=none;html=1;rounded=0;entryX=0;entryY=0.5;entryDx=0;entryDy=0;" parent="1" target="qQ9N42Zz9jeaZzvQYdQ--286" edge="1">
          <mxGeometry width="50" height="50" relative="1" as="geometry">
            <mxPoint x="2667" y="2720" as="sourcePoint" />
            <mxPoint x="2697" y="2698" as="targetPoint" />
          </mxGeometry>
        </mxCell>
        <mxCell id="qQ9N42Zz9jeaZzvQYdQ--288" value="" style="whiteSpace=wrap;html=1;aspect=fixed;" parent="1" vertex="1">
          <mxGeometry x="2696" y="2757.5" width="15" height="15" as="geometry" />
        </mxCell>
        <mxCell id="qQ9N42Zz9jeaZzvQYdQ--289" value="" style="rounded=0;orthogonalLoop=1;jettySize=auto;html=1;endArrow=none;endFill=0;sketch=0;sourcePerimeterSpacing=0;targetPerimeterSpacing=0;exitX=1;exitY=0.5;exitDx=0;exitDy=0;" parent="1" source="qQ9N42Zz9jeaZzvQYdQ--278" target="qQ9N42Zz9jeaZzvQYdQ--290" edge="1">
          <mxGeometry relative="1" as="geometry">
            <mxPoint x="2591" y="2765" as="sourcePoint" />
          </mxGeometry>
        </mxCell>
        <mxCell id="qQ9N42Zz9jeaZzvQYdQ--290" value="" style="ellipse;whiteSpace=wrap;html=1;align=center;aspect=fixed;resizable=0;points=[];outlineConnect=0;sketch=0;" parent="1" vertex="1">
          <mxGeometry x="2635" y="2760" width="10" height="10" as="geometry" />
        </mxCell>
        <mxCell id="qQ9N42Zz9jeaZzvQYdQ--291" value="" style="endArrow=none;html=1;rounded=0;entryX=0;entryY=0.5;entryDx=0;entryDy=0;" parent="1" source="qQ9N42Zz9jeaZzvQYdQ--290" target="qQ9N42Zz9jeaZzvQYdQ--288" edge="1">
          <mxGeometry width="50" height="50" relative="1" as="geometry">
            <mxPoint x="2646" y="2800" as="sourcePoint" />
            <mxPoint x="2696" y="2750" as="targetPoint" />
          </mxGeometry>
        </mxCell>
        <mxCell id="qQ9N42Zz9jeaZzvQYdQ--292" value="&lt;p style=&quot;margin:0px;margin-top:6px;text-align:center;&quot;&gt;&lt;b&gt;&amp;lt;&amp;lt;SubSystem&amp;gt;&amp;gt; Insurance Management&lt;/b&gt;&lt;/p&gt;&lt;hr&gt;&lt;p style=&quot;margin:0px;margin-left:8px;&quot;&gt;&lt;br&gt;&lt;/p&gt;" style="align=left;overflow=fill;html=1;dropTarget=0;whiteSpace=wrap;" parent="1" vertex="1">
          <mxGeometry x="1834.5" y="3010" width="405.5" height="400" as="geometry" />
        </mxCell>
        <mxCell id="qQ9N42Zz9jeaZzvQYdQ--293" value="" style="shape=component;jettyWidth=8;jettyHeight=4;" parent="qQ9N42Zz9jeaZzvQYdQ--292" vertex="1">
          <mxGeometry x="1" width="20" height="20" relative="1" as="geometry">
            <mxPoint x="-24" y="4" as="offset" />
          </mxGeometry>
        </mxCell>
        <mxCell id="qQ9N42Zz9jeaZzvQYdQ--294" value="«Component»&lt;br&gt;&lt;b&gt;Employee Insurace&lt;/b&gt;" style="html=1;dropTarget=0;whiteSpace=wrap;" parent="1" vertex="1">
          <mxGeometry x="1886" y="3054" width="180" height="90" as="geometry" />
        </mxCell>
        <mxCell id="qQ9N42Zz9jeaZzvQYdQ--295" value="" style="shape=module;jettyWidth=8;jettyHeight=4;" parent="qQ9N42Zz9jeaZzvQYdQ--294" vertex="1">
          <mxGeometry x="1" width="20" height="20" relative="1" as="geometry">
            <mxPoint x="-27" y="7" as="offset" />
          </mxGeometry>
        </mxCell>
        <mxCell id="qQ9N42Zz9jeaZzvQYdQ--296" value="«Component»&lt;br&gt;&lt;b&gt;Contacting Insurace Company&lt;/b&gt;" style="html=1;dropTarget=0;whiteSpace=wrap;" parent="1" vertex="1">
          <mxGeometry x="1886" y="3270" width="180" height="90" as="geometry" />
        </mxCell>
        <mxCell id="qQ9N42Zz9jeaZzvQYdQ--297" value="" style="shape=module;jettyWidth=8;jettyHeight=4;" parent="qQ9N42Zz9jeaZzvQYdQ--296" vertex="1">
          <mxGeometry x="1" width="20" height="20" relative="1" as="geometry">
            <mxPoint x="-27" y="7" as="offset" />
          </mxGeometry>
        </mxCell>
        <mxCell id="qQ9N42Zz9jeaZzvQYdQ--298" value="" style="whiteSpace=wrap;html=1;aspect=fixed;" parent="1" vertex="1">
          <mxGeometry x="2061" y="3069" width="15" height="15" as="geometry" />
        </mxCell>
        <mxCell id="qQ9N42Zz9jeaZzvQYdQ--299" value="" style="whiteSpace=wrap;html=1;aspect=fixed;" parent="1" vertex="1">
          <mxGeometry x="2232" y="3069" width="15" height="15" as="geometry" />
        </mxCell>
        <mxCell id="qQ9N42Zz9jeaZzvQYdQ--300" value="" style="rounded=0;orthogonalLoop=1;jettySize=auto;html=1;endArrow=none;endFill=0;sketch=0;sourcePerimeterSpacing=0;targetPerimeterSpacing=0;exitX=1;exitY=0.5;exitDx=0;exitDy=0;" parent="1" source="qQ9N42Zz9jeaZzvQYdQ--298" target="qQ9N42Zz9jeaZzvQYdQ--301" edge="1">
          <mxGeometry relative="1" as="geometry">
            <mxPoint x="2171" y="3126.5" as="sourcePoint" />
          </mxGeometry>
        </mxCell>
        <mxCell id="qQ9N42Zz9jeaZzvQYdQ--301" value="" style="ellipse;whiteSpace=wrap;html=1;align=center;aspect=fixed;resizable=0;points=[];outlineConnect=0;sketch=0;" parent="1" vertex="1">
          <mxGeometry x="2120" y="3071.5" width="10" height="10" as="geometry" />
        </mxCell>
        <mxCell id="qQ9N42Zz9jeaZzvQYdQ--302" value="" style="endArrow=none;html=1;rounded=0;entryX=0;entryY=0.5;entryDx=0;entryDy=0;" parent="1" source="qQ9N42Zz9jeaZzvQYdQ--301" target="qQ9N42Zz9jeaZzvQYdQ--299" edge="1">
          <mxGeometry width="50" height="50" relative="1" as="geometry">
            <mxPoint x="2185" y="3111.5" as="sourcePoint" />
            <mxPoint x="2235" y="3061.5" as="targetPoint" />
          </mxGeometry>
        </mxCell>
        <mxCell id="qQ9N42Zz9jeaZzvQYdQ--303" value="" style="whiteSpace=wrap;html=1;aspect=fixed;" parent="1" vertex="1">
          <mxGeometry x="2062" y="3114" width="15" height="15" as="geometry" />
        </mxCell>
        <mxCell id="qQ9N42Zz9jeaZzvQYdQ--304" value="" style="whiteSpace=wrap;html=1;aspect=fixed;" parent="1" vertex="1">
          <mxGeometry x="2232" y="3114" width="15" height="15" as="geometry" />
        </mxCell>
        <mxCell id="qQ9N42Zz9jeaZzvQYdQ--305" value="" style="rounded=0;orthogonalLoop=1;jettySize=auto;html=1;endArrow=none;endFill=0;sketch=0;sourcePerimeterSpacing=0;targetPerimeterSpacing=0;exitX=0;exitY=0.5;exitDx=0;exitDy=0;" parent="1" source="qQ9N42Zz9jeaZzvQYdQ--304" target="qQ9N42Zz9jeaZzvQYdQ--307" edge="1">
          <mxGeometry relative="1" as="geometry">
            <mxPoint x="2159" y="3122.5" as="sourcePoint" />
          </mxGeometry>
        </mxCell>
        <mxCell id="qQ9N42Zz9jeaZzvQYdQ--306" value="" style="rounded=0;orthogonalLoop=1;jettySize=auto;html=1;endArrow=halfCircle;endFill=0;entryX=0.5;entryY=0.5;endSize=6;strokeWidth=1;sketch=0;exitX=1;exitY=0.5;exitDx=0;exitDy=0;" parent="1" source="qQ9N42Zz9jeaZzvQYdQ--303" target="qQ9N42Zz9jeaZzvQYdQ--307" edge="1">
          <mxGeometry relative="1" as="geometry">
            <mxPoint x="2145" y="3122.5" as="sourcePoint" />
          </mxGeometry>
        </mxCell>
        <mxCell id="qQ9N42Zz9jeaZzvQYdQ--307" value="" style="ellipse;whiteSpace=wrap;html=1;align=center;aspect=fixed;resizable=0;points=[];outlineConnect=0;sketch=0;" parent="1" vertex="1">
          <mxGeometry x="2120" y="3116.5" width="10" height="10" as="geometry" />
        </mxCell>
        <mxCell id="qQ9N42Zz9jeaZzvQYdQ--308" value="" style="rounded=0;orthogonalLoop=1;jettySize=auto;html=1;endArrow=none;endFill=0;sketch=0;sourcePerimeterSpacing=0;targetPerimeterSpacing=0;" parent="1" target="qQ9N42Zz9jeaZzvQYdQ--310" edge="1">
          <mxGeometry relative="1" as="geometry">
            <mxPoint x="2287" y="3076.5" as="sourcePoint" />
          </mxGeometry>
        </mxCell>
        <mxCell id="qQ9N42Zz9jeaZzvQYdQ--309" value="" style="rounded=0;orthogonalLoop=1;jettySize=auto;html=1;endArrow=halfCircle;endFill=0;entryX=0.5;entryY=0.5;endSize=6;strokeWidth=1;sketch=0;" parent="1" target="qQ9N42Zz9jeaZzvQYdQ--310" edge="1">
          <mxGeometry relative="1" as="geometry">
            <mxPoint x="2327" y="3076.5" as="sourcePoint" />
          </mxGeometry>
        </mxCell>
        <mxCell id="qQ9N42Zz9jeaZzvQYdQ--310" value="" style="ellipse;whiteSpace=wrap;html=1;align=center;aspect=fixed;resizable=0;points=[];outlineConnect=0;sketch=0;" parent="1" vertex="1">
          <mxGeometry x="2302" y="3071.5" width="10" height="10" as="geometry" />
        </mxCell>
        <mxCell id="qQ9N42Zz9jeaZzvQYdQ--311" value="" style="endArrow=none;html=1;rounded=0;exitX=1;exitY=0.5;exitDx=0;exitDy=0;" parent="1" source="qQ9N42Zz9jeaZzvQYdQ--299" target="qQ9N42Zz9jeaZzvQYdQ--310" edge="1">
          <mxGeometry width="50" height="50" relative="1" as="geometry">
            <mxPoint x="2250" y="3084.5" as="sourcePoint" />
            <mxPoint x="2290" y="3074.5" as="targetPoint" />
          </mxGeometry>
        </mxCell>
        <mxCell id="qQ9N42Zz9jeaZzvQYdQ--312" value="" style="whiteSpace=wrap;html=1;aspect=fixed;" parent="1" vertex="1">
          <mxGeometry x="2349" y="3069" width="15" height="15" as="geometry" />
        </mxCell>
        <mxCell id="qQ9N42Zz9jeaZzvQYdQ--313" value="" style="endArrow=none;html=1;rounded=0;entryX=0;entryY=0.5;entryDx=0;entryDy=0;" parent="1" target="qQ9N42Zz9jeaZzvQYdQ--312" edge="1">
          <mxGeometry width="50" height="50" relative="1" as="geometry">
            <mxPoint x="2320" y="3076.5" as="sourcePoint" />
            <mxPoint x="2350" y="3054.5" as="targetPoint" />
          </mxGeometry>
        </mxCell>
        <mxCell id="qQ9N42Zz9jeaZzvQYdQ--314" value="" style="whiteSpace=wrap;html=1;aspect=fixed;" parent="1" vertex="1">
          <mxGeometry x="2349" y="3114" width="15" height="15" as="geometry" />
        </mxCell>
        <mxCell id="qQ9N42Zz9jeaZzvQYdQ--315" value="" style="rounded=0;orthogonalLoop=1;jettySize=auto;html=1;endArrow=none;endFill=0;sketch=0;sourcePerimeterSpacing=0;targetPerimeterSpacing=0;exitX=1;exitY=0.5;exitDx=0;exitDy=0;" parent="1" source="qQ9N42Zz9jeaZzvQYdQ--304" target="qQ9N42Zz9jeaZzvQYdQ--316" edge="1">
          <mxGeometry relative="1" as="geometry">
            <mxPoint x="2244" y="3121.5" as="sourcePoint" />
          </mxGeometry>
        </mxCell>
        <mxCell id="qQ9N42Zz9jeaZzvQYdQ--316" value="" style="ellipse;whiteSpace=wrap;html=1;align=center;aspect=fixed;resizable=0;points=[];outlineConnect=0;sketch=0;" parent="1" vertex="1">
          <mxGeometry x="2288" y="3116.5" width="10" height="10" as="geometry" />
        </mxCell>
        <mxCell id="qQ9N42Zz9jeaZzvQYdQ--317" value="" style="endArrow=none;html=1;rounded=0;entryX=0;entryY=0.5;entryDx=0;entryDy=0;" parent="1" source="qQ9N42Zz9jeaZzvQYdQ--316" target="qQ9N42Zz9jeaZzvQYdQ--314" edge="1">
          <mxGeometry width="50" height="50" relative="1" as="geometry">
            <mxPoint x="2299" y="3156.5" as="sourcePoint" />
            <mxPoint x="2349" y="3106.5" as="targetPoint" />
          </mxGeometry>
        </mxCell>
        <mxCell id="qQ9N42Zz9jeaZzvQYdQ--318" value="" style="whiteSpace=wrap;html=1;aspect=fixed;" parent="1" vertex="1">
          <mxGeometry x="2061" y="3285" width="15" height="15" as="geometry" />
        </mxCell>
        <mxCell id="qQ9N42Zz9jeaZzvQYdQ--319" value="" style="whiteSpace=wrap;html=1;aspect=fixed;" parent="1" vertex="1">
          <mxGeometry x="2232" y="3285" width="15" height="15" as="geometry" />
        </mxCell>
        <mxCell id="qQ9N42Zz9jeaZzvQYdQ--320" value="" style="rounded=0;orthogonalLoop=1;jettySize=auto;html=1;endArrow=none;endFill=0;sketch=0;sourcePerimeterSpacing=0;targetPerimeterSpacing=0;exitX=1;exitY=0.5;exitDx=0;exitDy=0;" parent="1" source="qQ9N42Zz9jeaZzvQYdQ--318" target="qQ9N42Zz9jeaZzvQYdQ--321" edge="1">
          <mxGeometry relative="1" as="geometry">
            <mxPoint x="2171" y="3342.5" as="sourcePoint" />
          </mxGeometry>
        </mxCell>
        <mxCell id="qQ9N42Zz9jeaZzvQYdQ--321" value="" style="ellipse;whiteSpace=wrap;html=1;align=center;aspect=fixed;resizable=0;points=[];outlineConnect=0;sketch=0;" parent="1" vertex="1">
          <mxGeometry x="2120" y="3287.5" width="10" height="10" as="geometry" />
        </mxCell>
        <mxCell id="qQ9N42Zz9jeaZzvQYdQ--322" value="" style="endArrow=none;html=1;rounded=0;entryX=0;entryY=0.5;entryDx=0;entryDy=0;" parent="1" source="qQ9N42Zz9jeaZzvQYdQ--321" target="qQ9N42Zz9jeaZzvQYdQ--319" edge="1">
          <mxGeometry width="50" height="50" relative="1" as="geometry">
            <mxPoint x="2185" y="3327.5" as="sourcePoint" />
            <mxPoint x="2235" y="3277.5" as="targetPoint" />
          </mxGeometry>
        </mxCell>
        <mxCell id="qQ9N42Zz9jeaZzvQYdQ--323" value="" style="whiteSpace=wrap;html=1;aspect=fixed;" parent="1" vertex="1">
          <mxGeometry x="2062" y="3330" width="15" height="15" as="geometry" />
        </mxCell>
        <mxCell id="qQ9N42Zz9jeaZzvQYdQ--324" value="" style="whiteSpace=wrap;html=1;aspect=fixed;" parent="1" vertex="1">
          <mxGeometry x="2232" y="3330" width="15" height="15" as="geometry" />
        </mxCell>
        <mxCell id="qQ9N42Zz9jeaZzvQYdQ--325" value="" style="rounded=0;orthogonalLoop=1;jettySize=auto;html=1;endArrow=none;endFill=0;sketch=0;sourcePerimeterSpacing=0;targetPerimeterSpacing=0;exitX=0;exitY=0.5;exitDx=0;exitDy=0;" parent="1" source="qQ9N42Zz9jeaZzvQYdQ--324" target="qQ9N42Zz9jeaZzvQYdQ--327" edge="1">
          <mxGeometry relative="1" as="geometry">
            <mxPoint x="2159" y="3338.5" as="sourcePoint" />
          </mxGeometry>
        </mxCell>
        <mxCell id="qQ9N42Zz9jeaZzvQYdQ--326" value="" style="rounded=0;orthogonalLoop=1;jettySize=auto;html=1;endArrow=halfCircle;endFill=0;entryX=0.5;entryY=0.5;endSize=6;strokeWidth=1;sketch=0;exitX=1;exitY=0.5;exitDx=0;exitDy=0;" parent="1" source="qQ9N42Zz9jeaZzvQYdQ--323" target="qQ9N42Zz9jeaZzvQYdQ--327" edge="1">
          <mxGeometry relative="1" as="geometry">
            <mxPoint x="2145" y="3338.5" as="sourcePoint" />
          </mxGeometry>
        </mxCell>
        <mxCell id="qQ9N42Zz9jeaZzvQYdQ--327" value="" style="ellipse;whiteSpace=wrap;html=1;align=center;aspect=fixed;resizable=0;points=[];outlineConnect=0;sketch=0;" parent="1" vertex="1">
          <mxGeometry x="2120" y="3332.5" width="10" height="10" as="geometry" />
        </mxCell>
        <mxCell id="qQ9N42Zz9jeaZzvQYdQ--328" value="" style="rounded=0;orthogonalLoop=1;jettySize=auto;html=1;endArrow=none;endFill=0;sketch=0;sourcePerimeterSpacing=0;targetPerimeterSpacing=0;" parent="1" target="qQ9N42Zz9jeaZzvQYdQ--330" edge="1">
          <mxGeometry relative="1" as="geometry">
            <mxPoint x="2287" y="3292.5" as="sourcePoint" />
          </mxGeometry>
        </mxCell>
        <mxCell id="qQ9N42Zz9jeaZzvQYdQ--329" value="" style="rounded=0;orthogonalLoop=1;jettySize=auto;html=1;endArrow=halfCircle;endFill=0;entryX=0.5;entryY=0.5;endSize=6;strokeWidth=1;sketch=0;" parent="1" target="qQ9N42Zz9jeaZzvQYdQ--330" edge="1">
          <mxGeometry relative="1" as="geometry">
            <mxPoint x="2327" y="3292.5" as="sourcePoint" />
          </mxGeometry>
        </mxCell>
        <mxCell id="qQ9N42Zz9jeaZzvQYdQ--330" value="" style="ellipse;whiteSpace=wrap;html=1;align=center;aspect=fixed;resizable=0;points=[];outlineConnect=0;sketch=0;" parent="1" vertex="1">
          <mxGeometry x="2302" y="3287.5" width="10" height="10" as="geometry" />
        </mxCell>
        <mxCell id="qQ9N42Zz9jeaZzvQYdQ--331" value="" style="endArrow=none;html=1;rounded=0;exitX=1;exitY=0.5;exitDx=0;exitDy=0;" parent="1" source="qQ9N42Zz9jeaZzvQYdQ--319" target="qQ9N42Zz9jeaZzvQYdQ--330" edge="1">
          <mxGeometry width="50" height="50" relative="1" as="geometry">
            <mxPoint x="2250" y="3300.5" as="sourcePoint" />
            <mxPoint x="2290" y="3290.5" as="targetPoint" />
          </mxGeometry>
        </mxCell>
        <mxCell id="qQ9N42Zz9jeaZzvQYdQ--332" value="" style="whiteSpace=wrap;html=1;aspect=fixed;" parent="1" vertex="1">
          <mxGeometry x="2349" y="3285" width="15" height="15" as="geometry" />
        </mxCell>
        <mxCell id="qQ9N42Zz9jeaZzvQYdQ--333" value="" style="endArrow=none;html=1;rounded=0;entryX=0;entryY=0.5;entryDx=0;entryDy=0;" parent="1" target="qQ9N42Zz9jeaZzvQYdQ--332" edge="1">
          <mxGeometry width="50" height="50" relative="1" as="geometry">
            <mxPoint x="2320" y="3292.5" as="sourcePoint" />
            <mxPoint x="2350" y="3270.5" as="targetPoint" />
          </mxGeometry>
        </mxCell>
        <mxCell id="qQ9N42Zz9jeaZzvQYdQ--334" value="" style="whiteSpace=wrap;html=1;aspect=fixed;" parent="1" vertex="1">
          <mxGeometry x="2349" y="3330" width="15" height="15" as="geometry" />
        </mxCell>
        <mxCell id="qQ9N42Zz9jeaZzvQYdQ--335" value="" style="rounded=0;orthogonalLoop=1;jettySize=auto;html=1;endArrow=none;endFill=0;sketch=0;sourcePerimeterSpacing=0;targetPerimeterSpacing=0;exitX=1;exitY=0.5;exitDx=0;exitDy=0;" parent="1" source="qQ9N42Zz9jeaZzvQYdQ--324" target="qQ9N42Zz9jeaZzvQYdQ--336" edge="1">
          <mxGeometry relative="1" as="geometry">
            <mxPoint x="2244" y="3337.5" as="sourcePoint" />
          </mxGeometry>
        </mxCell>
        <mxCell id="qQ9N42Zz9jeaZzvQYdQ--336" value="" style="ellipse;whiteSpace=wrap;html=1;align=center;aspect=fixed;resizable=0;points=[];outlineConnect=0;sketch=0;" parent="1" vertex="1">
          <mxGeometry x="2288" y="3332.5" width="10" height="10" as="geometry" />
        </mxCell>
        <mxCell id="qQ9N42Zz9jeaZzvQYdQ--337" value="" style="endArrow=none;html=1;rounded=0;entryX=0;entryY=0.5;entryDx=0;entryDy=0;" parent="1" source="qQ9N42Zz9jeaZzvQYdQ--336" target="qQ9N42Zz9jeaZzvQYdQ--334" edge="1">
          <mxGeometry width="50" height="50" relative="1" as="geometry">
            <mxPoint x="2299" y="3372.5" as="sourcePoint" />
            <mxPoint x="2349" y="3322.5" as="targetPoint" />
          </mxGeometry>
        </mxCell>
        <mxCell id="qQ9N42Zz9jeaZzvQYdQ--338" value="&lt;p style=&quot;margin:0px;margin-top:6px;text-align:center;&quot;&gt;&lt;b&gt;&amp;lt;&amp;lt;SubSystem&amp;gt;&amp;gt; Waste Management&lt;/b&gt;&lt;/p&gt;&lt;hr&gt;&lt;p style=&quot;margin:0px;margin-left:8px;&quot;&gt;&lt;br&gt;&lt;/p&gt;" style="align=left;overflow=fill;html=1;dropTarget=0;whiteSpace=wrap;" parent="1" vertex="1">
          <mxGeometry x="2587" y="2940" width="330" height="200" as="geometry" />
        </mxCell>
        <mxCell id="qQ9N42Zz9jeaZzvQYdQ--339" value="" style="shape=component;jettyWidth=8;jettyHeight=4;" parent="qQ9N42Zz9jeaZzvQYdQ--338" vertex="1">
          <mxGeometry x="1" width="20" height="20" relative="1" as="geometry">
            <mxPoint x="-24" y="4" as="offset" />
          </mxGeometry>
        </mxCell>
        <mxCell id="qQ9N42Zz9jeaZzvQYdQ--340" value="«Component»&lt;br&gt;&lt;b&gt;Contacting Transpotation Company&lt;/b&gt;" style="html=1;dropTarget=0;whiteSpace=wrap;" parent="1" vertex="1">
          <mxGeometry x="1940" y="2697.5" width="180" height="90" as="geometry" />
        </mxCell>
        <mxCell id="qQ9N42Zz9jeaZzvQYdQ--341" value="" style="shape=module;jettyWidth=8;jettyHeight=4;" parent="qQ9N42Zz9jeaZzvQYdQ--340" vertex="1">
          <mxGeometry x="1" width="20" height="20" relative="1" as="geometry">
            <mxPoint x="-27" y="7" as="offset" />
          </mxGeometry>
        </mxCell>
        <mxCell id="qQ9N42Zz9jeaZzvQYdQ--363" value="" style="whiteSpace=wrap;html=1;aspect=fixed;" parent="1" vertex="1">
          <mxGeometry x="2117" y="2715.5" width="15" height="15" as="geometry" />
        </mxCell>
        <mxCell id="qQ9N42Zz9jeaZzvQYdQ--364" value="" style="whiteSpace=wrap;html=1;aspect=fixed;" parent="1" vertex="1">
          <mxGeometry x="2234" y="2715.5" width="15" height="15" as="geometry" />
        </mxCell>
        <mxCell id="qQ9N42Zz9jeaZzvQYdQ--365" value="" style="rounded=0;orthogonalLoop=1;jettySize=auto;html=1;endArrow=none;endFill=0;sketch=0;sourcePerimeterSpacing=0;targetPerimeterSpacing=0;exitX=1;exitY=0.5;exitDx=0;exitDy=0;" parent="1" source="qQ9N42Zz9jeaZzvQYdQ--363" target="qQ9N42Zz9jeaZzvQYdQ--366" edge="1">
          <mxGeometry relative="1" as="geometry">
            <mxPoint x="2227" y="2773" as="sourcePoint" />
          </mxGeometry>
        </mxCell>
        <mxCell id="qQ9N42Zz9jeaZzvQYdQ--366" value="" style="ellipse;whiteSpace=wrap;html=1;align=center;aspect=fixed;resizable=0;points=[];outlineConnect=0;sketch=0;" parent="1" vertex="1">
          <mxGeometry x="2176" y="2718" width="10" height="10" as="geometry" />
        </mxCell>
        <mxCell id="qQ9N42Zz9jeaZzvQYdQ--367" value="" style="endArrow=none;html=1;rounded=0;entryX=0;entryY=0.5;entryDx=0;entryDy=0;" parent="1" source="qQ9N42Zz9jeaZzvQYdQ--366" target="qQ9N42Zz9jeaZzvQYdQ--364" edge="1">
          <mxGeometry width="50" height="50" relative="1" as="geometry">
            <mxPoint x="2187" y="2758" as="sourcePoint" />
            <mxPoint x="2237" y="2708" as="targetPoint" />
          </mxGeometry>
        </mxCell>
        <mxCell id="qQ9N42Zz9jeaZzvQYdQ--368" value="" style="whiteSpace=wrap;html=1;aspect=fixed;" parent="1" vertex="1">
          <mxGeometry x="2118" y="2760.5" width="15" height="15" as="geometry" />
        </mxCell>
        <mxCell id="qQ9N42Zz9jeaZzvQYdQ--369" value="" style="whiteSpace=wrap;html=1;aspect=fixed;" parent="1" vertex="1">
          <mxGeometry x="2234" y="2760.5" width="15" height="15" as="geometry" />
        </mxCell>
        <mxCell id="qQ9N42Zz9jeaZzvQYdQ--370" value="" style="rounded=0;orthogonalLoop=1;jettySize=auto;html=1;endArrow=none;endFill=0;sketch=0;sourcePerimeterSpacing=0;targetPerimeterSpacing=0;exitX=0;exitY=0.5;exitDx=0;exitDy=0;" parent="1" source="qQ9N42Zz9jeaZzvQYdQ--369" target="qQ9N42Zz9jeaZzvQYdQ--372" edge="1">
          <mxGeometry relative="1" as="geometry">
            <mxPoint x="2161" y="2769" as="sourcePoint" />
          </mxGeometry>
        </mxCell>
        <mxCell id="qQ9N42Zz9jeaZzvQYdQ--371" value="" style="rounded=0;orthogonalLoop=1;jettySize=auto;html=1;endArrow=halfCircle;endFill=0;entryX=0.5;entryY=0.5;endSize=6;strokeWidth=1;sketch=0;exitX=1;exitY=0.5;exitDx=0;exitDy=0;" parent="1" source="qQ9N42Zz9jeaZzvQYdQ--368" target="qQ9N42Zz9jeaZzvQYdQ--372" edge="1">
          <mxGeometry relative="1" as="geometry">
            <mxPoint x="2201" y="2769" as="sourcePoint" />
          </mxGeometry>
        </mxCell>
        <mxCell id="qQ9N42Zz9jeaZzvQYdQ--372" value="" style="ellipse;whiteSpace=wrap;html=1;align=center;aspect=fixed;resizable=0;points=[];outlineConnect=0;sketch=0;" parent="1" vertex="1">
          <mxGeometry x="2176" y="2763" width="10" height="10" as="geometry" />
        </mxCell>
        <mxCell id="qQ9N42Zz9jeaZzvQYdQ--373" value="" style="rounded=0;orthogonalLoop=1;jettySize=auto;html=1;endArrow=none;endFill=0;sketch=0;sourcePerimeterSpacing=0;targetPerimeterSpacing=0;" parent="1" target="qQ9N42Zz9jeaZzvQYdQ--375" edge="1">
          <mxGeometry relative="1" as="geometry">
            <mxPoint x="2289" y="2723" as="sourcePoint" />
          </mxGeometry>
        </mxCell>
        <mxCell id="qQ9N42Zz9jeaZzvQYdQ--374" value="" style="rounded=0;orthogonalLoop=1;jettySize=auto;html=1;endArrow=halfCircle;endFill=0;entryX=0.5;entryY=0.5;endSize=6;strokeWidth=1;sketch=0;" parent="1" target="qQ9N42Zz9jeaZzvQYdQ--375" edge="1">
          <mxGeometry relative="1" as="geometry">
            <mxPoint x="2329" y="2723" as="sourcePoint" />
          </mxGeometry>
        </mxCell>
        <mxCell id="qQ9N42Zz9jeaZzvQYdQ--375" value="" style="ellipse;whiteSpace=wrap;html=1;align=center;aspect=fixed;resizable=0;points=[];outlineConnect=0;sketch=0;" parent="1" vertex="1">
          <mxGeometry x="2304" y="2718" width="10" height="10" as="geometry" />
        </mxCell>
        <mxCell id="qQ9N42Zz9jeaZzvQYdQ--376" value="" style="endArrow=none;html=1;rounded=0;exitX=1;exitY=0.5;exitDx=0;exitDy=0;" parent="1" source="qQ9N42Zz9jeaZzvQYdQ--364" target="qQ9N42Zz9jeaZzvQYdQ--375" edge="1">
          <mxGeometry width="50" height="50" relative="1" as="geometry">
            <mxPoint x="2252" y="2731" as="sourcePoint" />
            <mxPoint x="2292" y="2721" as="targetPoint" />
          </mxGeometry>
        </mxCell>
        <mxCell id="qQ9N42Zz9jeaZzvQYdQ--377" value="" style="whiteSpace=wrap;html=1;aspect=fixed;" parent="1" vertex="1">
          <mxGeometry x="2351" y="2715.5" width="15" height="15" as="geometry" />
        </mxCell>
        <mxCell id="qQ9N42Zz9jeaZzvQYdQ--378" value="" style="endArrow=none;html=1;rounded=0;entryX=0;entryY=0.5;entryDx=0;entryDy=0;" parent="1" target="qQ9N42Zz9jeaZzvQYdQ--377" edge="1">
          <mxGeometry width="50" height="50" relative="1" as="geometry">
            <mxPoint x="2322" y="2723" as="sourcePoint" />
            <mxPoint x="2352" y="2701" as="targetPoint" />
          </mxGeometry>
        </mxCell>
        <mxCell id="qQ9N42Zz9jeaZzvQYdQ--379" value="" style="whiteSpace=wrap;html=1;aspect=fixed;" parent="1" vertex="1">
          <mxGeometry x="2351" y="2760.5" width="15" height="15" as="geometry" />
        </mxCell>
        <mxCell id="qQ9N42Zz9jeaZzvQYdQ--380" value="" style="rounded=0;orthogonalLoop=1;jettySize=auto;html=1;endArrow=none;endFill=0;sketch=0;sourcePerimeterSpacing=0;targetPerimeterSpacing=0;exitX=1;exitY=0.5;exitDx=0;exitDy=0;" parent="1" source="qQ9N42Zz9jeaZzvQYdQ--369" target="qQ9N42Zz9jeaZzvQYdQ--381" edge="1">
          <mxGeometry relative="1" as="geometry">
            <mxPoint x="2246" y="2768" as="sourcePoint" />
          </mxGeometry>
        </mxCell>
        <mxCell id="qQ9N42Zz9jeaZzvQYdQ--381" value="" style="ellipse;whiteSpace=wrap;html=1;align=center;aspect=fixed;resizable=0;points=[];outlineConnect=0;sketch=0;" parent="1" vertex="1">
          <mxGeometry x="2290" y="2763" width="10" height="10" as="geometry" />
        </mxCell>
        <mxCell id="qQ9N42Zz9jeaZzvQYdQ--382" value="" style="endArrow=none;html=1;rounded=0;entryX=0;entryY=0.5;entryDx=0;entryDy=0;" parent="1" source="qQ9N42Zz9jeaZzvQYdQ--381" target="qQ9N42Zz9jeaZzvQYdQ--379" edge="1">
          <mxGeometry width="50" height="50" relative="1" as="geometry">
            <mxPoint x="2301" y="2803" as="sourcePoint" />
            <mxPoint x="2351" y="2753" as="targetPoint" />
          </mxGeometry>
        </mxCell>
        <mxCell id="qQ9N42Zz9jeaZzvQYdQ--383" value="" style="rounded=0;orthogonalLoop=1;jettySize=auto;html=1;endArrow=none;endFill=0;sketch=0;sourcePerimeterSpacing=0;targetPerimeterSpacing=0;exitX=0.5;exitY=1;exitDx=0;exitDy=0;" parent="1" source="qQ9N42Zz9jeaZzvQYdQ--387" target="qQ9N42Zz9jeaZzvQYdQ--385" edge="1">
          <mxGeometry relative="1" as="geometry">
            <mxPoint x="2744.5" y="1947" as="sourcePoint" />
          </mxGeometry>
        </mxCell>
        <mxCell id="qQ9N42Zz9jeaZzvQYdQ--384" value="" style="rounded=0;orthogonalLoop=1;jettySize=auto;html=1;endArrow=halfCircle;endFill=0;entryX=0.5;entryY=0.5;endSize=6;strokeWidth=1;sketch=0;" parent="1" source="qQ9N42Zz9jeaZzvQYdQ--386" target="qQ9N42Zz9jeaZzvQYdQ--385" edge="1">
          <mxGeometry relative="1" as="geometry">
            <mxPoint x="2744.5" y="1867" as="sourcePoint" />
          </mxGeometry>
        </mxCell>
        <mxCell id="qQ9N42Zz9jeaZzvQYdQ--385" value="" style="ellipse;whiteSpace=wrap;html=1;align=center;aspect=fixed;resizable=0;points=[];outlineConnect=0;sketch=0;" parent="1" vertex="1">
          <mxGeometry x="2739.5" y="1890" width="10" height="10" as="geometry" />
        </mxCell>
        <mxCell id="qQ9N42Zz9jeaZzvQYdQ--386" value="" style="whiteSpace=wrap;html=1;aspect=fixed;" parent="1" vertex="1">
          <mxGeometry x="2737" y="1930" width="15" height="15" as="geometry" />
        </mxCell>
        <mxCell id="qQ9N42Zz9jeaZzvQYdQ--387" value="" style="whiteSpace=wrap;html=1;aspect=fixed;" parent="1" vertex="1">
          <mxGeometry x="2737" y="1853" width="15" height="15" as="geometry" />
        </mxCell>
        <mxCell id="qQ9N42Zz9jeaZzvQYdQ--388" value="«Component»&lt;br&gt;&lt;b&gt;Waste Management&lt;/b&gt;" style="html=1;dropTarget=0;whiteSpace=wrap;" parent="1" vertex="1">
          <mxGeometry x="2704" y="2995" width="180" height="90" as="geometry" />
        </mxCell>
        <mxCell id="qQ9N42Zz9jeaZzvQYdQ--389" value="" style="shape=module;jettyWidth=8;jettyHeight=4;" parent="qQ9N42Zz9jeaZzvQYdQ--388" vertex="1">
          <mxGeometry x="1" width="20" height="20" relative="1" as="geometry">
            <mxPoint x="-27" y="7" as="offset" />
          </mxGeometry>
        </mxCell>
        <mxCell id="qQ9N42Zz9jeaZzvQYdQ--390" value="" style="whiteSpace=wrap;html=1;aspect=fixed;" parent="1" vertex="1">
          <mxGeometry x="2459" y="3010" width="15" height="15" as="geometry" />
        </mxCell>
        <mxCell id="qQ9N42Zz9jeaZzvQYdQ--391" value="" style="whiteSpace=wrap;html=1;aspect=fixed;" parent="1" vertex="1">
          <mxGeometry x="2576" y="3010" width="15" height="15" as="geometry" />
        </mxCell>
        <mxCell id="qQ9N42Zz9jeaZzvQYdQ--392" value="" style="rounded=0;orthogonalLoop=1;jettySize=auto;html=1;endArrow=none;endFill=0;sketch=0;sourcePerimeterSpacing=0;targetPerimeterSpacing=0;exitX=1;exitY=0.5;exitDx=0;exitDy=0;" parent="1" source="qQ9N42Zz9jeaZzvQYdQ--390" target="qQ9N42Zz9jeaZzvQYdQ--393" edge="1">
          <mxGeometry relative="1" as="geometry">
            <mxPoint x="2569" y="3067.5" as="sourcePoint" />
          </mxGeometry>
        </mxCell>
        <mxCell id="qQ9N42Zz9jeaZzvQYdQ--393" value="" style="ellipse;whiteSpace=wrap;html=1;align=center;aspect=fixed;resizable=0;points=[];outlineConnect=0;sketch=0;" parent="1" vertex="1">
          <mxGeometry x="2518" y="3012.5" width="10" height="10" as="geometry" />
        </mxCell>
        <mxCell id="qQ9N42Zz9jeaZzvQYdQ--394" value="" style="endArrow=none;html=1;rounded=0;entryX=0;entryY=0.5;entryDx=0;entryDy=0;" parent="1" source="qQ9N42Zz9jeaZzvQYdQ--393" target="qQ9N42Zz9jeaZzvQYdQ--391" edge="1">
          <mxGeometry width="50" height="50" relative="1" as="geometry">
            <mxPoint x="2529" y="3052.5" as="sourcePoint" />
            <mxPoint x="2579" y="3002.5" as="targetPoint" />
          </mxGeometry>
        </mxCell>
        <mxCell id="qQ9N42Zz9jeaZzvQYdQ--395" value="" style="whiteSpace=wrap;html=1;aspect=fixed;" parent="1" vertex="1">
          <mxGeometry x="2460" y="3055" width="15" height="15" as="geometry" />
        </mxCell>
        <mxCell id="qQ9N42Zz9jeaZzvQYdQ--396" value="" style="whiteSpace=wrap;html=1;aspect=fixed;" parent="1" vertex="1">
          <mxGeometry x="2576" y="3055" width="15" height="15" as="geometry" />
        </mxCell>
        <mxCell id="qQ9N42Zz9jeaZzvQYdQ--397" value="" style="rounded=0;orthogonalLoop=1;jettySize=auto;html=1;endArrow=none;endFill=0;sketch=0;sourcePerimeterSpacing=0;targetPerimeterSpacing=0;exitX=0;exitY=0.5;exitDx=0;exitDy=0;" parent="1" source="qQ9N42Zz9jeaZzvQYdQ--396" target="qQ9N42Zz9jeaZzvQYdQ--399" edge="1">
          <mxGeometry relative="1" as="geometry">
            <mxPoint x="2503" y="3063.5" as="sourcePoint" />
          </mxGeometry>
        </mxCell>
        <mxCell id="qQ9N42Zz9jeaZzvQYdQ--398" value="" style="rounded=0;orthogonalLoop=1;jettySize=auto;html=1;endArrow=halfCircle;endFill=0;entryX=0.5;entryY=0.5;endSize=6;strokeWidth=1;sketch=0;exitX=1;exitY=0.5;exitDx=0;exitDy=0;" parent="1" source="qQ9N42Zz9jeaZzvQYdQ--395" target="qQ9N42Zz9jeaZzvQYdQ--399" edge="1">
          <mxGeometry relative="1" as="geometry">
            <mxPoint x="2543" y="3063.5" as="sourcePoint" />
          </mxGeometry>
        </mxCell>
        <mxCell id="qQ9N42Zz9jeaZzvQYdQ--399" value="" style="ellipse;whiteSpace=wrap;html=1;align=center;aspect=fixed;resizable=0;points=[];outlineConnect=0;sketch=0;" parent="1" vertex="1">
          <mxGeometry x="2518" y="3057.5" width="10" height="10" as="geometry" />
        </mxCell>
        <mxCell id="qQ9N42Zz9jeaZzvQYdQ--400" value="" style="rounded=0;orthogonalLoop=1;jettySize=auto;html=1;endArrow=none;endFill=0;sketch=0;sourcePerimeterSpacing=0;targetPerimeterSpacing=0;" parent="1" target="qQ9N42Zz9jeaZzvQYdQ--402" edge="1">
          <mxGeometry relative="1" as="geometry">
            <mxPoint x="2631" y="3017.5" as="sourcePoint" />
          </mxGeometry>
        </mxCell>
        <mxCell id="qQ9N42Zz9jeaZzvQYdQ--401" value="" style="rounded=0;orthogonalLoop=1;jettySize=auto;html=1;endArrow=halfCircle;endFill=0;entryX=0.5;entryY=0.5;endSize=6;strokeWidth=1;sketch=0;" parent="1" target="qQ9N42Zz9jeaZzvQYdQ--402" edge="1">
          <mxGeometry relative="1" as="geometry">
            <mxPoint x="2671" y="3017.5" as="sourcePoint" />
          </mxGeometry>
        </mxCell>
        <mxCell id="qQ9N42Zz9jeaZzvQYdQ--402" value="" style="ellipse;whiteSpace=wrap;html=1;align=center;aspect=fixed;resizable=0;points=[];outlineConnect=0;sketch=0;" parent="1" vertex="1">
          <mxGeometry x="2646" y="3012.5" width="10" height="10" as="geometry" />
        </mxCell>
        <mxCell id="qQ9N42Zz9jeaZzvQYdQ--403" value="" style="endArrow=none;html=1;rounded=0;exitX=1;exitY=0.5;exitDx=0;exitDy=0;" parent="1" source="qQ9N42Zz9jeaZzvQYdQ--391" target="qQ9N42Zz9jeaZzvQYdQ--402" edge="1">
          <mxGeometry width="50" height="50" relative="1" as="geometry">
            <mxPoint x="2594" y="3025.5" as="sourcePoint" />
            <mxPoint x="2634" y="3015.5" as="targetPoint" />
          </mxGeometry>
        </mxCell>
        <mxCell id="qQ9N42Zz9jeaZzvQYdQ--404" value="" style="whiteSpace=wrap;html=1;aspect=fixed;" parent="1" vertex="1">
          <mxGeometry x="2693" y="3010" width="15" height="15" as="geometry" />
        </mxCell>
        <mxCell id="qQ9N42Zz9jeaZzvQYdQ--405" value="" style="endArrow=none;html=1;rounded=0;entryX=0;entryY=0.5;entryDx=0;entryDy=0;" parent="1" target="qQ9N42Zz9jeaZzvQYdQ--404" edge="1">
          <mxGeometry width="50" height="50" relative="1" as="geometry">
            <mxPoint x="2664" y="3017.5" as="sourcePoint" />
            <mxPoint x="2694" y="2995.5" as="targetPoint" />
          </mxGeometry>
        </mxCell>
        <mxCell id="qQ9N42Zz9jeaZzvQYdQ--406" value="" style="whiteSpace=wrap;html=1;aspect=fixed;" parent="1" vertex="1">
          <mxGeometry x="2693" y="3055" width="15" height="15" as="geometry" />
        </mxCell>
        <mxCell id="qQ9N42Zz9jeaZzvQYdQ--407" value="" style="rounded=0;orthogonalLoop=1;jettySize=auto;html=1;endArrow=none;endFill=0;sketch=0;sourcePerimeterSpacing=0;targetPerimeterSpacing=0;exitX=1;exitY=0.5;exitDx=0;exitDy=0;" parent="1" source="qQ9N42Zz9jeaZzvQYdQ--396" target="qQ9N42Zz9jeaZzvQYdQ--408" edge="1">
          <mxGeometry relative="1" as="geometry">
            <mxPoint x="2588" y="3062.5" as="sourcePoint" />
          </mxGeometry>
        </mxCell>
        <mxCell id="qQ9N42Zz9jeaZzvQYdQ--408" value="" style="ellipse;whiteSpace=wrap;html=1;align=center;aspect=fixed;resizable=0;points=[];outlineConnect=0;sketch=0;" parent="1" vertex="1">
          <mxGeometry x="2632" y="3057.5" width="10" height="10" as="geometry" />
        </mxCell>
        <mxCell id="qQ9N42Zz9jeaZzvQYdQ--409" value="" style="endArrow=none;html=1;rounded=0;entryX=0;entryY=0.5;entryDx=0;entryDy=0;" parent="1" source="qQ9N42Zz9jeaZzvQYdQ--408" target="qQ9N42Zz9jeaZzvQYdQ--406" edge="1">
          <mxGeometry width="50" height="50" relative="1" as="geometry">
            <mxPoint x="2643" y="3097.5" as="sourcePoint" />
            <mxPoint x="2693" y="3047.5" as="targetPoint" />
          </mxGeometry>
        </mxCell>
        <mxCell id="qQ9N42Zz9jeaZzvQYdQ--410" value="&lt;p style=&quot;margin:0px;margin-top:6px;text-align:center;&quot;&gt;&lt;b&gt;&amp;lt;&amp;lt;SubSystem&amp;gt;&amp;gt; Legal Affair Management&lt;/b&gt;&lt;/p&gt;&lt;hr&gt;&lt;p style=&quot;margin:0px;margin-left:8px;&quot;&gt;&lt;br&gt;&lt;/p&gt;" style="align=left;overflow=fill;html=1;dropTarget=0;whiteSpace=wrap;" parent="1" vertex="1">
          <mxGeometry x="2587" y="3190" width="330" height="200" as="geometry" />
        </mxCell>
        <mxCell id="qQ9N42Zz9jeaZzvQYdQ--411" value="" style="shape=component;jettyWidth=8;jettyHeight=4;" parent="qQ9N42Zz9jeaZzvQYdQ--410" vertex="1">
          <mxGeometry x="1" width="20" height="20" relative="1" as="geometry">
            <mxPoint x="-24" y="4" as="offset" />
          </mxGeometry>
        </mxCell>
        <mxCell id="qQ9N42Zz9jeaZzvQYdQ--412" value="«Component»&lt;br&gt;&lt;b&gt;Legal Affair Management&lt;/b&gt;" style="html=1;dropTarget=0;whiteSpace=wrap;" parent="1" vertex="1">
          <mxGeometry x="2704" y="3245" width="180" height="90" as="geometry" />
        </mxCell>
        <mxCell id="qQ9N42Zz9jeaZzvQYdQ--413" value="" style="shape=module;jettyWidth=8;jettyHeight=4;" parent="qQ9N42Zz9jeaZzvQYdQ--412" vertex="1">
          <mxGeometry x="1" width="20" height="20" relative="1" as="geometry">
            <mxPoint x="-27" y="7" as="offset" />
          </mxGeometry>
        </mxCell>
        <mxCell id="qQ9N42Zz9jeaZzvQYdQ--414" value="" style="whiteSpace=wrap;html=1;aspect=fixed;" parent="1" vertex="1">
          <mxGeometry x="2459" y="3260" width="15" height="15" as="geometry" />
        </mxCell>
        <mxCell id="qQ9N42Zz9jeaZzvQYdQ--415" value="" style="whiteSpace=wrap;html=1;aspect=fixed;" parent="1" vertex="1">
          <mxGeometry x="2576" y="3260" width="15" height="15" as="geometry" />
        </mxCell>
        <mxCell id="qQ9N42Zz9jeaZzvQYdQ--416" value="" style="rounded=0;orthogonalLoop=1;jettySize=auto;html=1;endArrow=none;endFill=0;sketch=0;sourcePerimeterSpacing=0;targetPerimeterSpacing=0;exitX=1;exitY=0.5;exitDx=0;exitDy=0;" parent="1" source="qQ9N42Zz9jeaZzvQYdQ--414" target="qQ9N42Zz9jeaZzvQYdQ--417" edge="1">
          <mxGeometry relative="1" as="geometry">
            <mxPoint x="2569" y="3317.5" as="sourcePoint" />
          </mxGeometry>
        </mxCell>
        <mxCell id="qQ9N42Zz9jeaZzvQYdQ--417" value="" style="ellipse;whiteSpace=wrap;html=1;align=center;aspect=fixed;resizable=0;points=[];outlineConnect=0;sketch=0;" parent="1" vertex="1">
          <mxGeometry x="2518" y="3262.5" width="10" height="10" as="geometry" />
        </mxCell>
        <mxCell id="qQ9N42Zz9jeaZzvQYdQ--418" value="" style="endArrow=none;html=1;rounded=0;entryX=0;entryY=0.5;entryDx=0;entryDy=0;" parent="1" source="qQ9N42Zz9jeaZzvQYdQ--417" target="qQ9N42Zz9jeaZzvQYdQ--415" edge="1">
          <mxGeometry width="50" height="50" relative="1" as="geometry">
            <mxPoint x="2529" y="3302.5" as="sourcePoint" />
            <mxPoint x="2579" y="3252.5" as="targetPoint" />
          </mxGeometry>
        </mxCell>
        <mxCell id="qQ9N42Zz9jeaZzvQYdQ--419" value="" style="whiteSpace=wrap;html=1;aspect=fixed;" parent="1" vertex="1">
          <mxGeometry x="2460" y="3305" width="15" height="15" as="geometry" />
        </mxCell>
        <mxCell id="qQ9N42Zz9jeaZzvQYdQ--420" value="" style="whiteSpace=wrap;html=1;aspect=fixed;" parent="1" vertex="1">
          <mxGeometry x="2576" y="3305" width="15" height="15" as="geometry" />
        </mxCell>
        <mxCell id="qQ9N42Zz9jeaZzvQYdQ--421" value="" style="rounded=0;orthogonalLoop=1;jettySize=auto;html=1;endArrow=none;endFill=0;sketch=0;sourcePerimeterSpacing=0;targetPerimeterSpacing=0;exitX=0;exitY=0.5;exitDx=0;exitDy=0;" parent="1" source="qQ9N42Zz9jeaZzvQYdQ--420" target="qQ9N42Zz9jeaZzvQYdQ--423" edge="1">
          <mxGeometry relative="1" as="geometry">
            <mxPoint x="2503" y="3313.5" as="sourcePoint" />
          </mxGeometry>
        </mxCell>
        <mxCell id="qQ9N42Zz9jeaZzvQYdQ--422" value="" style="rounded=0;orthogonalLoop=1;jettySize=auto;html=1;endArrow=halfCircle;endFill=0;entryX=0.5;entryY=0.5;endSize=6;strokeWidth=1;sketch=0;exitX=1;exitY=0.5;exitDx=0;exitDy=0;" parent="1" source="qQ9N42Zz9jeaZzvQYdQ--419" target="qQ9N42Zz9jeaZzvQYdQ--423" edge="1">
          <mxGeometry relative="1" as="geometry">
            <mxPoint x="2543" y="3313.5" as="sourcePoint" />
          </mxGeometry>
        </mxCell>
        <mxCell id="qQ9N42Zz9jeaZzvQYdQ--423" value="" style="ellipse;whiteSpace=wrap;html=1;align=center;aspect=fixed;resizable=0;points=[];outlineConnect=0;sketch=0;" parent="1" vertex="1">
          <mxGeometry x="2518" y="3307.5" width="10" height="10" as="geometry" />
        </mxCell>
        <mxCell id="qQ9N42Zz9jeaZzvQYdQ--424" value="" style="rounded=0;orthogonalLoop=1;jettySize=auto;html=1;endArrow=none;endFill=0;sketch=0;sourcePerimeterSpacing=0;targetPerimeterSpacing=0;" parent="1" target="qQ9N42Zz9jeaZzvQYdQ--426" edge="1">
          <mxGeometry relative="1" as="geometry">
            <mxPoint x="2631" y="3267.5" as="sourcePoint" />
          </mxGeometry>
        </mxCell>
        <mxCell id="qQ9N42Zz9jeaZzvQYdQ--425" value="" style="rounded=0;orthogonalLoop=1;jettySize=auto;html=1;endArrow=halfCircle;endFill=0;entryX=0.5;entryY=0.5;endSize=6;strokeWidth=1;sketch=0;" parent="1" target="qQ9N42Zz9jeaZzvQYdQ--426" edge="1">
          <mxGeometry relative="1" as="geometry">
            <mxPoint x="2671" y="3267.5" as="sourcePoint" />
          </mxGeometry>
        </mxCell>
        <mxCell id="qQ9N42Zz9jeaZzvQYdQ--426" value="" style="ellipse;whiteSpace=wrap;html=1;align=center;aspect=fixed;resizable=0;points=[];outlineConnect=0;sketch=0;" parent="1" vertex="1">
          <mxGeometry x="2646" y="3262.5" width="10" height="10" as="geometry" />
        </mxCell>
        <mxCell id="qQ9N42Zz9jeaZzvQYdQ--427" value="" style="endArrow=none;html=1;rounded=0;exitX=1;exitY=0.5;exitDx=0;exitDy=0;" parent="1" source="qQ9N42Zz9jeaZzvQYdQ--415" target="qQ9N42Zz9jeaZzvQYdQ--426" edge="1">
          <mxGeometry width="50" height="50" relative="1" as="geometry">
            <mxPoint x="2594" y="3275.5" as="sourcePoint" />
            <mxPoint x="2634" y="3265.5" as="targetPoint" />
          </mxGeometry>
        </mxCell>
        <mxCell id="qQ9N42Zz9jeaZzvQYdQ--428" value="" style="whiteSpace=wrap;html=1;aspect=fixed;" parent="1" vertex="1">
          <mxGeometry x="2693" y="3260" width="15" height="15" as="geometry" />
        </mxCell>
        <mxCell id="qQ9N42Zz9jeaZzvQYdQ--429" value="" style="endArrow=none;html=1;rounded=0;entryX=0;entryY=0.5;entryDx=0;entryDy=0;" parent="1" target="qQ9N42Zz9jeaZzvQYdQ--428" edge="1">
          <mxGeometry width="50" height="50" relative="1" as="geometry">
            <mxPoint x="2664" y="3267.5" as="sourcePoint" />
            <mxPoint x="2694" y="3245.5" as="targetPoint" />
          </mxGeometry>
        </mxCell>
        <mxCell id="qQ9N42Zz9jeaZzvQYdQ--430" value="" style="whiteSpace=wrap;html=1;aspect=fixed;" parent="1" vertex="1">
          <mxGeometry x="2693" y="3305" width="15" height="15" as="geometry" />
        </mxCell>
        <mxCell id="qQ9N42Zz9jeaZzvQYdQ--431" value="" style="rounded=0;orthogonalLoop=1;jettySize=auto;html=1;endArrow=none;endFill=0;sketch=0;sourcePerimeterSpacing=0;targetPerimeterSpacing=0;exitX=1;exitY=0.5;exitDx=0;exitDy=0;" parent="1" source="qQ9N42Zz9jeaZzvQYdQ--420" target="qQ9N42Zz9jeaZzvQYdQ--432" edge="1">
          <mxGeometry relative="1" as="geometry">
            <mxPoint x="2588" y="3312.5" as="sourcePoint" />
          </mxGeometry>
        </mxCell>
        <mxCell id="qQ9N42Zz9jeaZzvQYdQ--432" value="" style="ellipse;whiteSpace=wrap;html=1;align=center;aspect=fixed;resizable=0;points=[];outlineConnect=0;sketch=0;" parent="1" vertex="1">
          <mxGeometry x="2632" y="3307.5" width="10" height="10" as="geometry" />
        </mxCell>
        <mxCell id="qQ9N42Zz9jeaZzvQYdQ--433" value="" style="endArrow=none;html=1;rounded=0;entryX=0;entryY=0.5;entryDx=0;entryDy=0;" parent="1" source="qQ9N42Zz9jeaZzvQYdQ--432" target="qQ9N42Zz9jeaZzvQYdQ--430" edge="1">
          <mxGeometry width="50" height="50" relative="1" as="geometry">
            <mxPoint x="2643" y="3347.5" as="sourcePoint" />
            <mxPoint x="2693" y="3297.5" as="targetPoint" />
          </mxGeometry>
        </mxCell>
        <mxCell id="qQ9N42Zz9jeaZzvQYdQ--434" value="&lt;p style=&quot;margin:0px;margin-top:6px;text-align:center;&quot;&gt;&lt;b&gt;&amp;lt;&amp;lt;SubSystem&amp;gt;&amp;gt; Request Management&lt;/b&gt;&lt;/p&gt;&lt;hr&gt;&lt;p style=&quot;margin:0px;margin-left:8px;&quot;&gt;&lt;br&gt;&lt;/p&gt;" style="align=left;overflow=fill;html=1;dropTarget=0;whiteSpace=wrap;" parent="1" vertex="1">
          <mxGeometry x="2587" y="3440" width="330" height="550" as="geometry" />
        </mxCell>
        <mxCell id="qQ9N42Zz9jeaZzvQYdQ--435" value="" style="shape=component;jettyWidth=8;jettyHeight=4;" parent="qQ9N42Zz9jeaZzvQYdQ--434" vertex="1">
          <mxGeometry x="1" width="20" height="20" relative="1" as="geometry">
            <mxPoint x="-24" y="4" as="offset" />
          </mxGeometry>
        </mxCell>
        <mxCell id="qQ9N42Zz9jeaZzvQYdQ--436" value="«Component»&lt;br&gt;&lt;b&gt;Employee &lt;br&gt;Request Management&lt;/b&gt;" style="html=1;dropTarget=0;whiteSpace=wrap;" parent="1" vertex="1">
          <mxGeometry x="2704" y="3500" width="180" height="90" as="geometry" />
        </mxCell>
        <mxCell id="qQ9N42Zz9jeaZzvQYdQ--437" value="" style="shape=module;jettyWidth=8;jettyHeight=4;" parent="qQ9N42Zz9jeaZzvQYdQ--436" vertex="1">
          <mxGeometry x="1" width="20" height="20" relative="1" as="geometry">
            <mxPoint x="-27" y="7" as="offset" />
          </mxGeometry>
        </mxCell>
        <mxCell id="qQ9N42Zz9jeaZzvQYdQ--438" value="«Component»&lt;br&gt;&lt;b style=&quot;border-color: var(--border-color);&quot;&gt;Hiaring Request&amp;nbsp;&lt;/b&gt;&lt;b&gt;Management&lt;/b&gt;" style="html=1;dropTarget=0;whiteSpace=wrap;" parent="1" vertex="1">
          <mxGeometry x="2705" y="3620" width="180" height="90" as="geometry" />
        </mxCell>
        <mxCell id="qQ9N42Zz9jeaZzvQYdQ--439" value="" style="shape=module;jettyWidth=8;jettyHeight=4;" parent="qQ9N42Zz9jeaZzvQYdQ--438" vertex="1">
          <mxGeometry x="1" width="20" height="20" relative="1" as="geometry">
            <mxPoint x="-27" y="7" as="offset" />
          </mxGeometry>
        </mxCell>
        <mxCell id="qQ9N42Zz9jeaZzvQYdQ--440" value="«Component»&lt;br&gt;&lt;b style=&quot;border-color: var(--border-color);&quot;&gt;Lab Request&lt;/b&gt;&lt;b&gt;&amp;nbsp;Management&lt;/b&gt;" style="html=1;dropTarget=0;whiteSpace=wrap;" parent="1" vertex="1">
          <mxGeometry x="2705" y="3740" width="180" height="90" as="geometry" />
        </mxCell>
        <mxCell id="qQ9N42Zz9jeaZzvQYdQ--441" value="" style="shape=module;jettyWidth=8;jettyHeight=4;" parent="qQ9N42Zz9jeaZzvQYdQ--440" vertex="1">
          <mxGeometry x="1" width="20" height="20" relative="1" as="geometry">
            <mxPoint x="-27" y="7" as="offset" />
          </mxGeometry>
        </mxCell>
        <mxCell id="qQ9N42Zz9jeaZzvQYdQ--442" value="«Component»&lt;br&gt;&lt;b style=&quot;border-color: var(--border-color);&quot;&gt;Tool Request Request&lt;/b&gt;&lt;b&gt;&amp;nbsp;Management&lt;/b&gt;" style="html=1;dropTarget=0;whiteSpace=wrap;" parent="1" vertex="1">
          <mxGeometry x="2705" y="3860" width="180" height="90" as="geometry" />
        </mxCell>
        <mxCell id="qQ9N42Zz9jeaZzvQYdQ--443" value="" style="shape=module;jettyWidth=8;jettyHeight=4;" parent="qQ9N42Zz9jeaZzvQYdQ--442" vertex="1">
          <mxGeometry x="1" width="20" height="20" relative="1" as="geometry">
            <mxPoint x="-27" y="7" as="offset" />
          </mxGeometry>
        </mxCell>
        <mxCell id="qQ9N42Zz9jeaZzvQYdQ--444" value="" style="whiteSpace=wrap;html=1;aspect=fixed;" parent="1" vertex="1">
          <mxGeometry x="2462" y="3515" width="15" height="15" as="geometry" />
        </mxCell>
        <mxCell id="qQ9N42Zz9jeaZzvQYdQ--445" value="" style="whiteSpace=wrap;html=1;aspect=fixed;" parent="1" vertex="1">
          <mxGeometry x="2579" y="3515" width="15" height="15" as="geometry" />
        </mxCell>
        <mxCell id="qQ9N42Zz9jeaZzvQYdQ--446" value="" style="rounded=0;orthogonalLoop=1;jettySize=auto;html=1;endArrow=none;endFill=0;sketch=0;sourcePerimeterSpacing=0;targetPerimeterSpacing=0;exitX=1;exitY=0.5;exitDx=0;exitDy=0;" parent="1" source="qQ9N42Zz9jeaZzvQYdQ--444" target="qQ9N42Zz9jeaZzvQYdQ--447" edge="1">
          <mxGeometry relative="1" as="geometry">
            <mxPoint x="2572" y="3572.5" as="sourcePoint" />
          </mxGeometry>
        </mxCell>
        <mxCell id="qQ9N42Zz9jeaZzvQYdQ--447" value="" style="ellipse;whiteSpace=wrap;html=1;align=center;aspect=fixed;resizable=0;points=[];outlineConnect=0;sketch=0;" parent="1" vertex="1">
          <mxGeometry x="2521" y="3517.5" width="10" height="10" as="geometry" />
        </mxCell>
        <mxCell id="qQ9N42Zz9jeaZzvQYdQ--448" value="" style="endArrow=none;html=1;rounded=0;entryX=0;entryY=0.5;entryDx=0;entryDy=0;" parent="1" source="qQ9N42Zz9jeaZzvQYdQ--447" target="qQ9N42Zz9jeaZzvQYdQ--445" edge="1">
          <mxGeometry width="50" height="50" relative="1" as="geometry">
            <mxPoint x="2532" y="3557.5" as="sourcePoint" />
            <mxPoint x="2582" y="3507.5" as="targetPoint" />
          </mxGeometry>
        </mxCell>
        <mxCell id="qQ9N42Zz9jeaZzvQYdQ--449" value="" style="whiteSpace=wrap;html=1;aspect=fixed;" parent="1" vertex="1">
          <mxGeometry x="2463" y="3560" width="15" height="15" as="geometry" />
        </mxCell>
        <mxCell id="qQ9N42Zz9jeaZzvQYdQ--450" value="" style="whiteSpace=wrap;html=1;aspect=fixed;" parent="1" vertex="1">
          <mxGeometry x="2579" y="3560" width="15" height="15" as="geometry" />
        </mxCell>
        <mxCell id="qQ9N42Zz9jeaZzvQYdQ--451" value="" style="rounded=0;orthogonalLoop=1;jettySize=auto;html=1;endArrow=none;endFill=0;sketch=0;sourcePerimeterSpacing=0;targetPerimeterSpacing=0;exitX=0;exitY=0.5;exitDx=0;exitDy=0;" parent="1" source="qQ9N42Zz9jeaZzvQYdQ--450" target="qQ9N42Zz9jeaZzvQYdQ--453" edge="1">
          <mxGeometry relative="1" as="geometry">
            <mxPoint x="2506" y="3568.5" as="sourcePoint" />
          </mxGeometry>
        </mxCell>
        <mxCell id="qQ9N42Zz9jeaZzvQYdQ--452" value="" style="rounded=0;orthogonalLoop=1;jettySize=auto;html=1;endArrow=halfCircle;endFill=0;entryX=0.5;entryY=0.5;endSize=6;strokeWidth=1;sketch=0;exitX=1;exitY=0.5;exitDx=0;exitDy=0;" parent="1" source="qQ9N42Zz9jeaZzvQYdQ--449" target="qQ9N42Zz9jeaZzvQYdQ--453" edge="1">
          <mxGeometry relative="1" as="geometry">
            <mxPoint x="2546" y="3568.5" as="sourcePoint" />
          </mxGeometry>
        </mxCell>
        <mxCell id="qQ9N42Zz9jeaZzvQYdQ--453" value="" style="ellipse;whiteSpace=wrap;html=1;align=center;aspect=fixed;resizable=0;points=[];outlineConnect=0;sketch=0;" parent="1" vertex="1">
          <mxGeometry x="2521" y="3562.5" width="10" height="10" as="geometry" />
        </mxCell>
        <mxCell id="qQ9N42Zz9jeaZzvQYdQ--454" value="" style="rounded=0;orthogonalLoop=1;jettySize=auto;html=1;endArrow=none;endFill=0;sketch=0;sourcePerimeterSpacing=0;targetPerimeterSpacing=0;" parent="1" target="qQ9N42Zz9jeaZzvQYdQ--456" edge="1">
          <mxGeometry relative="1" as="geometry">
            <mxPoint x="2634" y="3522.5" as="sourcePoint" />
          </mxGeometry>
        </mxCell>
        <mxCell id="qQ9N42Zz9jeaZzvQYdQ--455" value="" style="rounded=0;orthogonalLoop=1;jettySize=auto;html=1;endArrow=halfCircle;endFill=0;entryX=0.5;entryY=0.5;endSize=6;strokeWidth=1;sketch=0;" parent="1" target="qQ9N42Zz9jeaZzvQYdQ--456" edge="1">
          <mxGeometry relative="1" as="geometry">
            <mxPoint x="2674" y="3522.5" as="sourcePoint" />
          </mxGeometry>
        </mxCell>
        <mxCell id="qQ9N42Zz9jeaZzvQYdQ--456" value="" style="ellipse;whiteSpace=wrap;html=1;align=center;aspect=fixed;resizable=0;points=[];outlineConnect=0;sketch=0;" parent="1" vertex="1">
          <mxGeometry x="2649" y="3517.5" width="10" height="10" as="geometry" />
        </mxCell>
        <mxCell id="qQ9N42Zz9jeaZzvQYdQ--457" value="" style="endArrow=none;html=1;rounded=0;exitX=1;exitY=0.5;exitDx=0;exitDy=0;" parent="1" source="qQ9N42Zz9jeaZzvQYdQ--445" target="qQ9N42Zz9jeaZzvQYdQ--456" edge="1">
          <mxGeometry width="50" height="50" relative="1" as="geometry">
            <mxPoint x="2597" y="3530.5" as="sourcePoint" />
            <mxPoint x="2637" y="3520.5" as="targetPoint" />
          </mxGeometry>
        </mxCell>
        <mxCell id="qQ9N42Zz9jeaZzvQYdQ--458" value="" style="whiteSpace=wrap;html=1;aspect=fixed;" parent="1" vertex="1">
          <mxGeometry x="2696" y="3515" width="15" height="15" as="geometry" />
        </mxCell>
        <mxCell id="qQ9N42Zz9jeaZzvQYdQ--459" value="" style="endArrow=none;html=1;rounded=0;entryX=0;entryY=0.5;entryDx=0;entryDy=0;" parent="1" target="qQ9N42Zz9jeaZzvQYdQ--458" edge="1">
          <mxGeometry width="50" height="50" relative="1" as="geometry">
            <mxPoint x="2667" y="3522.5" as="sourcePoint" />
            <mxPoint x="2697" y="3500.5" as="targetPoint" />
          </mxGeometry>
        </mxCell>
        <mxCell id="qQ9N42Zz9jeaZzvQYdQ--460" value="" style="whiteSpace=wrap;html=1;aspect=fixed;" parent="1" vertex="1">
          <mxGeometry x="2696" y="3560" width="15" height="15" as="geometry" />
        </mxCell>
        <mxCell id="qQ9N42Zz9jeaZzvQYdQ--461" value="" style="rounded=0;orthogonalLoop=1;jettySize=auto;html=1;endArrow=none;endFill=0;sketch=0;sourcePerimeterSpacing=0;targetPerimeterSpacing=0;exitX=1;exitY=0.5;exitDx=0;exitDy=0;" parent="1" source="qQ9N42Zz9jeaZzvQYdQ--450" target="qQ9N42Zz9jeaZzvQYdQ--462" edge="1">
          <mxGeometry relative="1" as="geometry">
            <mxPoint x="2591" y="3567.5" as="sourcePoint" />
          </mxGeometry>
        </mxCell>
        <mxCell id="qQ9N42Zz9jeaZzvQYdQ--462" value="" style="ellipse;whiteSpace=wrap;html=1;align=center;aspect=fixed;resizable=0;points=[];outlineConnect=0;sketch=0;" parent="1" vertex="1">
          <mxGeometry x="2635" y="3562.5" width="10" height="10" as="geometry" />
        </mxCell>
        <mxCell id="qQ9N42Zz9jeaZzvQYdQ--463" value="" style="endArrow=none;html=1;rounded=0;entryX=0;entryY=0.5;entryDx=0;entryDy=0;" parent="1" source="qQ9N42Zz9jeaZzvQYdQ--462" target="qQ9N42Zz9jeaZzvQYdQ--460" edge="1">
          <mxGeometry width="50" height="50" relative="1" as="geometry">
            <mxPoint x="2646" y="3602.5" as="sourcePoint" />
            <mxPoint x="2696" y="3552.5" as="targetPoint" />
          </mxGeometry>
        </mxCell>
        <mxCell id="qQ9N42Zz9jeaZzvQYdQ--504" value="" style="whiteSpace=wrap;html=1;aspect=fixed;" parent="1" vertex="1">
          <mxGeometry x="2463" y="3635" width="15" height="15" as="geometry" />
        </mxCell>
        <mxCell id="qQ9N42Zz9jeaZzvQYdQ--505" value="" style="whiteSpace=wrap;html=1;aspect=fixed;" parent="1" vertex="1">
          <mxGeometry x="2580" y="3635" width="15" height="15" as="geometry" />
        </mxCell>
        <mxCell id="qQ9N42Zz9jeaZzvQYdQ--506" value="" style="rounded=0;orthogonalLoop=1;jettySize=auto;html=1;endArrow=none;endFill=0;sketch=0;sourcePerimeterSpacing=0;targetPerimeterSpacing=0;exitX=1;exitY=0.5;exitDx=0;exitDy=0;" parent="1" source="qQ9N42Zz9jeaZzvQYdQ--504" target="qQ9N42Zz9jeaZzvQYdQ--507" edge="1">
          <mxGeometry relative="1" as="geometry">
            <mxPoint x="2573" y="3692.5" as="sourcePoint" />
          </mxGeometry>
        </mxCell>
        <mxCell id="qQ9N42Zz9jeaZzvQYdQ--507" value="" style="ellipse;whiteSpace=wrap;html=1;align=center;aspect=fixed;resizable=0;points=[];outlineConnect=0;sketch=0;" parent="1" vertex="1">
          <mxGeometry x="2522" y="3637.5" width="10" height="10" as="geometry" />
        </mxCell>
        <mxCell id="qQ9N42Zz9jeaZzvQYdQ--508" value="" style="endArrow=none;html=1;rounded=0;entryX=0;entryY=0.5;entryDx=0;entryDy=0;" parent="1" source="qQ9N42Zz9jeaZzvQYdQ--507" target="qQ9N42Zz9jeaZzvQYdQ--505" edge="1">
          <mxGeometry width="50" height="50" relative="1" as="geometry">
            <mxPoint x="2533" y="3677.5" as="sourcePoint" />
            <mxPoint x="2583" y="3627.5" as="targetPoint" />
          </mxGeometry>
        </mxCell>
        <mxCell id="qQ9N42Zz9jeaZzvQYdQ--509" value="" style="whiteSpace=wrap;html=1;aspect=fixed;" parent="1" vertex="1">
          <mxGeometry x="2464" y="3680" width="15" height="15" as="geometry" />
        </mxCell>
        <mxCell id="qQ9N42Zz9jeaZzvQYdQ--510" value="" style="whiteSpace=wrap;html=1;aspect=fixed;" parent="1" vertex="1">
          <mxGeometry x="2580" y="3680" width="15" height="15" as="geometry" />
        </mxCell>
        <mxCell id="qQ9N42Zz9jeaZzvQYdQ--511" value="" style="rounded=0;orthogonalLoop=1;jettySize=auto;html=1;endArrow=none;endFill=0;sketch=0;sourcePerimeterSpacing=0;targetPerimeterSpacing=0;exitX=0;exitY=0.5;exitDx=0;exitDy=0;" parent="1" source="qQ9N42Zz9jeaZzvQYdQ--510" target="qQ9N42Zz9jeaZzvQYdQ--513" edge="1">
          <mxGeometry relative="1" as="geometry">
            <mxPoint x="2507" y="3688.5" as="sourcePoint" />
          </mxGeometry>
        </mxCell>
        <mxCell id="qQ9N42Zz9jeaZzvQYdQ--512" value="" style="rounded=0;orthogonalLoop=1;jettySize=auto;html=1;endArrow=halfCircle;endFill=0;entryX=0.5;entryY=0.5;endSize=6;strokeWidth=1;sketch=0;exitX=1;exitY=0.5;exitDx=0;exitDy=0;" parent="1" source="qQ9N42Zz9jeaZzvQYdQ--509" target="qQ9N42Zz9jeaZzvQYdQ--513" edge="1">
          <mxGeometry relative="1" as="geometry">
            <mxPoint x="2547" y="3688.5" as="sourcePoint" />
          </mxGeometry>
        </mxCell>
        <mxCell id="qQ9N42Zz9jeaZzvQYdQ--513" value="" style="ellipse;whiteSpace=wrap;html=1;align=center;aspect=fixed;resizable=0;points=[];outlineConnect=0;sketch=0;" parent="1" vertex="1">
          <mxGeometry x="2522" y="3682.5" width="10" height="10" as="geometry" />
        </mxCell>
        <mxCell id="qQ9N42Zz9jeaZzvQYdQ--514" value="" style="rounded=0;orthogonalLoop=1;jettySize=auto;html=1;endArrow=none;endFill=0;sketch=0;sourcePerimeterSpacing=0;targetPerimeterSpacing=0;" parent="1" target="qQ9N42Zz9jeaZzvQYdQ--516" edge="1">
          <mxGeometry relative="1" as="geometry">
            <mxPoint x="2635" y="3642.5" as="sourcePoint" />
          </mxGeometry>
        </mxCell>
        <mxCell id="qQ9N42Zz9jeaZzvQYdQ--515" value="" style="rounded=0;orthogonalLoop=1;jettySize=auto;html=1;endArrow=halfCircle;endFill=0;entryX=0.5;entryY=0.5;endSize=6;strokeWidth=1;sketch=0;" parent="1" target="qQ9N42Zz9jeaZzvQYdQ--516" edge="1">
          <mxGeometry relative="1" as="geometry">
            <mxPoint x="2675" y="3642.5" as="sourcePoint" />
          </mxGeometry>
        </mxCell>
        <mxCell id="qQ9N42Zz9jeaZzvQYdQ--516" value="" style="ellipse;whiteSpace=wrap;html=1;align=center;aspect=fixed;resizable=0;points=[];outlineConnect=0;sketch=0;" parent="1" vertex="1">
          <mxGeometry x="2650" y="3637.5" width="10" height="10" as="geometry" />
        </mxCell>
        <mxCell id="qQ9N42Zz9jeaZzvQYdQ--517" value="" style="endArrow=none;html=1;rounded=0;exitX=1;exitY=0.5;exitDx=0;exitDy=0;" parent="1" source="qQ9N42Zz9jeaZzvQYdQ--505" target="qQ9N42Zz9jeaZzvQYdQ--516" edge="1">
          <mxGeometry width="50" height="50" relative="1" as="geometry">
            <mxPoint x="2598" y="3650.5" as="sourcePoint" />
            <mxPoint x="2638" y="3640.5" as="targetPoint" />
          </mxGeometry>
        </mxCell>
        <mxCell id="qQ9N42Zz9jeaZzvQYdQ--518" value="" style="whiteSpace=wrap;html=1;aspect=fixed;" parent="1" vertex="1">
          <mxGeometry x="2697" y="3635" width="15" height="15" as="geometry" />
        </mxCell>
        <mxCell id="qQ9N42Zz9jeaZzvQYdQ--519" value="" style="endArrow=none;html=1;rounded=0;entryX=0;entryY=0.5;entryDx=0;entryDy=0;" parent="1" target="qQ9N42Zz9jeaZzvQYdQ--518" edge="1">
          <mxGeometry width="50" height="50" relative="1" as="geometry">
            <mxPoint x="2668" y="3642.5" as="sourcePoint" />
            <mxPoint x="2698" y="3620.5" as="targetPoint" />
          </mxGeometry>
        </mxCell>
        <mxCell id="qQ9N42Zz9jeaZzvQYdQ--520" value="" style="whiteSpace=wrap;html=1;aspect=fixed;" parent="1" vertex="1">
          <mxGeometry x="2697" y="3680" width="15" height="15" as="geometry" />
        </mxCell>
        <mxCell id="qQ9N42Zz9jeaZzvQYdQ--521" value="" style="rounded=0;orthogonalLoop=1;jettySize=auto;html=1;endArrow=none;endFill=0;sketch=0;sourcePerimeterSpacing=0;targetPerimeterSpacing=0;exitX=1;exitY=0.5;exitDx=0;exitDy=0;" parent="1" source="qQ9N42Zz9jeaZzvQYdQ--510" target="qQ9N42Zz9jeaZzvQYdQ--522" edge="1">
          <mxGeometry relative="1" as="geometry">
            <mxPoint x="2592" y="3687.5" as="sourcePoint" />
          </mxGeometry>
        </mxCell>
        <mxCell id="qQ9N42Zz9jeaZzvQYdQ--522" value="" style="ellipse;whiteSpace=wrap;html=1;align=center;aspect=fixed;resizable=0;points=[];outlineConnect=0;sketch=0;" parent="1" vertex="1">
          <mxGeometry x="2636" y="3682.5" width="10" height="10" as="geometry" />
        </mxCell>
        <mxCell id="qQ9N42Zz9jeaZzvQYdQ--523" value="" style="endArrow=none;html=1;rounded=0;entryX=0;entryY=0.5;entryDx=0;entryDy=0;" parent="1" source="qQ9N42Zz9jeaZzvQYdQ--522" target="qQ9N42Zz9jeaZzvQYdQ--520" edge="1">
          <mxGeometry width="50" height="50" relative="1" as="geometry">
            <mxPoint x="2647" y="3722.5" as="sourcePoint" />
            <mxPoint x="2697" y="3672.5" as="targetPoint" />
          </mxGeometry>
        </mxCell>
        <mxCell id="qQ9N42Zz9jeaZzvQYdQ--524" value="" style="whiteSpace=wrap;html=1;aspect=fixed;" parent="1" vertex="1">
          <mxGeometry x="2463" y="3755" width="15" height="15" as="geometry" />
        </mxCell>
        <mxCell id="qQ9N42Zz9jeaZzvQYdQ--525" value="" style="whiteSpace=wrap;html=1;aspect=fixed;" parent="1" vertex="1">
          <mxGeometry x="2580" y="3755" width="15" height="15" as="geometry" />
        </mxCell>
        <mxCell id="qQ9N42Zz9jeaZzvQYdQ--526" value="" style="rounded=0;orthogonalLoop=1;jettySize=auto;html=1;endArrow=none;endFill=0;sketch=0;sourcePerimeterSpacing=0;targetPerimeterSpacing=0;exitX=1;exitY=0.5;exitDx=0;exitDy=0;" parent="1" source="qQ9N42Zz9jeaZzvQYdQ--524" target="qQ9N42Zz9jeaZzvQYdQ--527" edge="1">
          <mxGeometry relative="1" as="geometry">
            <mxPoint x="2573" y="3812.5" as="sourcePoint" />
          </mxGeometry>
        </mxCell>
        <mxCell id="qQ9N42Zz9jeaZzvQYdQ--527" value="" style="ellipse;whiteSpace=wrap;html=1;align=center;aspect=fixed;resizable=0;points=[];outlineConnect=0;sketch=0;" parent="1" vertex="1">
          <mxGeometry x="2522" y="3757.5" width="10" height="10" as="geometry" />
        </mxCell>
        <mxCell id="qQ9N42Zz9jeaZzvQYdQ--528" value="" style="endArrow=none;html=1;rounded=0;entryX=0;entryY=0.5;entryDx=0;entryDy=0;" parent="1" source="qQ9N42Zz9jeaZzvQYdQ--527" target="qQ9N42Zz9jeaZzvQYdQ--525" edge="1">
          <mxGeometry width="50" height="50" relative="1" as="geometry">
            <mxPoint x="2533" y="3797.5" as="sourcePoint" />
            <mxPoint x="2583" y="3747.5" as="targetPoint" />
          </mxGeometry>
        </mxCell>
        <mxCell id="qQ9N42Zz9jeaZzvQYdQ--529" value="" style="whiteSpace=wrap;html=1;aspect=fixed;" parent="1" vertex="1">
          <mxGeometry x="2464" y="3800" width="15" height="15" as="geometry" />
        </mxCell>
        <mxCell id="qQ9N42Zz9jeaZzvQYdQ--530" value="" style="whiteSpace=wrap;html=1;aspect=fixed;" parent="1" vertex="1">
          <mxGeometry x="2580" y="3800" width="15" height="15" as="geometry" />
        </mxCell>
        <mxCell id="qQ9N42Zz9jeaZzvQYdQ--531" value="" style="rounded=0;orthogonalLoop=1;jettySize=auto;html=1;endArrow=none;endFill=0;sketch=0;sourcePerimeterSpacing=0;targetPerimeterSpacing=0;exitX=0;exitY=0.5;exitDx=0;exitDy=0;" parent="1" source="qQ9N42Zz9jeaZzvQYdQ--530" target="qQ9N42Zz9jeaZzvQYdQ--533" edge="1">
          <mxGeometry relative="1" as="geometry">
            <mxPoint x="2507" y="3808.5" as="sourcePoint" />
          </mxGeometry>
        </mxCell>
        <mxCell id="qQ9N42Zz9jeaZzvQYdQ--532" value="" style="rounded=0;orthogonalLoop=1;jettySize=auto;html=1;endArrow=halfCircle;endFill=0;entryX=0.5;entryY=0.5;endSize=6;strokeWidth=1;sketch=0;exitX=1;exitY=0.5;exitDx=0;exitDy=0;" parent="1" source="qQ9N42Zz9jeaZzvQYdQ--529" target="qQ9N42Zz9jeaZzvQYdQ--533" edge="1">
          <mxGeometry relative="1" as="geometry">
            <mxPoint x="2547" y="3808.5" as="sourcePoint" />
          </mxGeometry>
        </mxCell>
        <mxCell id="qQ9N42Zz9jeaZzvQYdQ--533" value="" style="ellipse;whiteSpace=wrap;html=1;align=center;aspect=fixed;resizable=0;points=[];outlineConnect=0;sketch=0;" parent="1" vertex="1">
          <mxGeometry x="2522" y="3802.5" width="10" height="10" as="geometry" />
        </mxCell>
        <mxCell id="qQ9N42Zz9jeaZzvQYdQ--534" value="" style="rounded=0;orthogonalLoop=1;jettySize=auto;html=1;endArrow=none;endFill=0;sketch=0;sourcePerimeterSpacing=0;targetPerimeterSpacing=0;" parent="1" target="qQ9N42Zz9jeaZzvQYdQ--536" edge="1">
          <mxGeometry relative="1" as="geometry">
            <mxPoint x="2635" y="3762.5" as="sourcePoint" />
          </mxGeometry>
        </mxCell>
        <mxCell id="qQ9N42Zz9jeaZzvQYdQ--535" value="" style="rounded=0;orthogonalLoop=1;jettySize=auto;html=1;endArrow=halfCircle;endFill=0;entryX=0.5;entryY=0.5;endSize=6;strokeWidth=1;sketch=0;" parent="1" target="qQ9N42Zz9jeaZzvQYdQ--536" edge="1">
          <mxGeometry relative="1" as="geometry">
            <mxPoint x="2675" y="3762.5" as="sourcePoint" />
          </mxGeometry>
        </mxCell>
        <mxCell id="qQ9N42Zz9jeaZzvQYdQ--536" value="" style="ellipse;whiteSpace=wrap;html=1;align=center;aspect=fixed;resizable=0;points=[];outlineConnect=0;sketch=0;" parent="1" vertex="1">
          <mxGeometry x="2650" y="3757.5" width="10" height="10" as="geometry" />
        </mxCell>
        <mxCell id="qQ9N42Zz9jeaZzvQYdQ--537" value="" style="endArrow=none;html=1;rounded=0;exitX=1;exitY=0.5;exitDx=0;exitDy=0;" parent="1" source="qQ9N42Zz9jeaZzvQYdQ--525" target="qQ9N42Zz9jeaZzvQYdQ--536" edge="1">
          <mxGeometry width="50" height="50" relative="1" as="geometry">
            <mxPoint x="2598" y="3770.5" as="sourcePoint" />
            <mxPoint x="2638" y="3760.5" as="targetPoint" />
          </mxGeometry>
        </mxCell>
        <mxCell id="qQ9N42Zz9jeaZzvQYdQ--538" value="" style="whiteSpace=wrap;html=1;aspect=fixed;" parent="1" vertex="1">
          <mxGeometry x="2697" y="3755" width="15" height="15" as="geometry" />
        </mxCell>
        <mxCell id="qQ9N42Zz9jeaZzvQYdQ--539" value="" style="endArrow=none;html=1;rounded=0;entryX=0;entryY=0.5;entryDx=0;entryDy=0;" parent="1" target="qQ9N42Zz9jeaZzvQYdQ--538" edge="1">
          <mxGeometry width="50" height="50" relative="1" as="geometry">
            <mxPoint x="2668" y="3762.5" as="sourcePoint" />
            <mxPoint x="2698" y="3740.5" as="targetPoint" />
          </mxGeometry>
        </mxCell>
        <mxCell id="qQ9N42Zz9jeaZzvQYdQ--540" value="" style="whiteSpace=wrap;html=1;aspect=fixed;" parent="1" vertex="1">
          <mxGeometry x="2697" y="3800" width="15" height="15" as="geometry" />
        </mxCell>
        <mxCell id="qQ9N42Zz9jeaZzvQYdQ--541" value="" style="rounded=0;orthogonalLoop=1;jettySize=auto;html=1;endArrow=none;endFill=0;sketch=0;sourcePerimeterSpacing=0;targetPerimeterSpacing=0;exitX=1;exitY=0.5;exitDx=0;exitDy=0;" parent="1" source="qQ9N42Zz9jeaZzvQYdQ--530" target="qQ9N42Zz9jeaZzvQYdQ--542" edge="1">
          <mxGeometry relative="1" as="geometry">
            <mxPoint x="2592" y="3807.5" as="sourcePoint" />
          </mxGeometry>
        </mxCell>
        <mxCell id="qQ9N42Zz9jeaZzvQYdQ--542" value="" style="ellipse;whiteSpace=wrap;html=1;align=center;aspect=fixed;resizable=0;points=[];outlineConnect=0;sketch=0;" parent="1" vertex="1">
          <mxGeometry x="2636" y="3802.5" width="10" height="10" as="geometry" />
        </mxCell>
        <mxCell id="qQ9N42Zz9jeaZzvQYdQ--543" value="" style="endArrow=none;html=1;rounded=0;entryX=0;entryY=0.5;entryDx=0;entryDy=0;" parent="1" source="qQ9N42Zz9jeaZzvQYdQ--542" target="qQ9N42Zz9jeaZzvQYdQ--540" edge="1">
          <mxGeometry width="50" height="50" relative="1" as="geometry">
            <mxPoint x="2647" y="3842.5" as="sourcePoint" />
            <mxPoint x="2697" y="3792.5" as="targetPoint" />
          </mxGeometry>
        </mxCell>
        <mxCell id="qQ9N42Zz9jeaZzvQYdQ--544" value="" style="whiteSpace=wrap;html=1;aspect=fixed;" parent="1" vertex="1">
          <mxGeometry x="2462" y="3875" width="15" height="15" as="geometry" />
        </mxCell>
        <mxCell id="qQ9N42Zz9jeaZzvQYdQ--545" value="" style="whiteSpace=wrap;html=1;aspect=fixed;" parent="1" vertex="1">
          <mxGeometry x="2579" y="3875" width="15" height="15" as="geometry" />
        </mxCell>
        <mxCell id="qQ9N42Zz9jeaZzvQYdQ--546" value="" style="rounded=0;orthogonalLoop=1;jettySize=auto;html=1;endArrow=none;endFill=0;sketch=0;sourcePerimeterSpacing=0;targetPerimeterSpacing=0;exitX=1;exitY=0.5;exitDx=0;exitDy=0;" parent="1" source="qQ9N42Zz9jeaZzvQYdQ--544" target="qQ9N42Zz9jeaZzvQYdQ--547" edge="1">
          <mxGeometry relative="1" as="geometry">
            <mxPoint x="2572" y="3932.5" as="sourcePoint" />
          </mxGeometry>
        </mxCell>
        <mxCell id="qQ9N42Zz9jeaZzvQYdQ--547" value="" style="ellipse;whiteSpace=wrap;html=1;align=center;aspect=fixed;resizable=0;points=[];outlineConnect=0;sketch=0;" parent="1" vertex="1">
          <mxGeometry x="2521" y="3877.5" width="10" height="10" as="geometry" />
        </mxCell>
        <mxCell id="qQ9N42Zz9jeaZzvQYdQ--548" value="" style="endArrow=none;html=1;rounded=0;entryX=0;entryY=0.5;entryDx=0;entryDy=0;" parent="1" source="qQ9N42Zz9jeaZzvQYdQ--547" target="qQ9N42Zz9jeaZzvQYdQ--545" edge="1">
          <mxGeometry width="50" height="50" relative="1" as="geometry">
            <mxPoint x="2532" y="3917.5" as="sourcePoint" />
            <mxPoint x="2582" y="3867.5" as="targetPoint" />
          </mxGeometry>
        </mxCell>
        <mxCell id="qQ9N42Zz9jeaZzvQYdQ--549" value="" style="whiteSpace=wrap;html=1;aspect=fixed;" parent="1" vertex="1">
          <mxGeometry x="2463" y="3920" width="15" height="15" as="geometry" />
        </mxCell>
        <mxCell id="qQ9N42Zz9jeaZzvQYdQ--550" value="" style="whiteSpace=wrap;html=1;aspect=fixed;" parent="1" vertex="1">
          <mxGeometry x="2579" y="3920" width="15" height="15" as="geometry" />
        </mxCell>
        <mxCell id="qQ9N42Zz9jeaZzvQYdQ--551" value="" style="rounded=0;orthogonalLoop=1;jettySize=auto;html=1;endArrow=none;endFill=0;sketch=0;sourcePerimeterSpacing=0;targetPerimeterSpacing=0;exitX=0;exitY=0.5;exitDx=0;exitDy=0;" parent="1" source="qQ9N42Zz9jeaZzvQYdQ--550" target="qQ9N42Zz9jeaZzvQYdQ--553" edge="1">
          <mxGeometry relative="1" as="geometry">
            <mxPoint x="2506" y="3928.5" as="sourcePoint" />
          </mxGeometry>
        </mxCell>
        <mxCell id="qQ9N42Zz9jeaZzvQYdQ--552" value="" style="rounded=0;orthogonalLoop=1;jettySize=auto;html=1;endArrow=halfCircle;endFill=0;entryX=0.5;entryY=0.5;endSize=6;strokeWidth=1;sketch=0;exitX=1;exitY=0.5;exitDx=0;exitDy=0;" parent="1" source="qQ9N42Zz9jeaZzvQYdQ--549" target="qQ9N42Zz9jeaZzvQYdQ--553" edge="1">
          <mxGeometry relative="1" as="geometry">
            <mxPoint x="2546" y="3928.5" as="sourcePoint" />
          </mxGeometry>
        </mxCell>
        <mxCell id="qQ9N42Zz9jeaZzvQYdQ--553" value="" style="ellipse;whiteSpace=wrap;html=1;align=center;aspect=fixed;resizable=0;points=[];outlineConnect=0;sketch=0;" parent="1" vertex="1">
          <mxGeometry x="2521" y="3922.5" width="10" height="10" as="geometry" />
        </mxCell>
        <mxCell id="qQ9N42Zz9jeaZzvQYdQ--554" value="" style="rounded=0;orthogonalLoop=1;jettySize=auto;html=1;endArrow=none;endFill=0;sketch=0;sourcePerimeterSpacing=0;targetPerimeterSpacing=0;" parent="1" target="qQ9N42Zz9jeaZzvQYdQ--556" edge="1">
          <mxGeometry relative="1" as="geometry">
            <mxPoint x="2634" y="3882.5" as="sourcePoint" />
          </mxGeometry>
        </mxCell>
        <mxCell id="qQ9N42Zz9jeaZzvQYdQ--555" value="" style="rounded=0;orthogonalLoop=1;jettySize=auto;html=1;endArrow=halfCircle;endFill=0;entryX=0.5;entryY=0.5;endSize=6;strokeWidth=1;sketch=0;" parent="1" target="qQ9N42Zz9jeaZzvQYdQ--556" edge="1">
          <mxGeometry relative="1" as="geometry">
            <mxPoint x="2674" y="3882.5" as="sourcePoint" />
          </mxGeometry>
        </mxCell>
        <mxCell id="qQ9N42Zz9jeaZzvQYdQ--556" value="" style="ellipse;whiteSpace=wrap;html=1;align=center;aspect=fixed;resizable=0;points=[];outlineConnect=0;sketch=0;" parent="1" vertex="1">
          <mxGeometry x="2649" y="3877.5" width="10" height="10" as="geometry" />
        </mxCell>
        <mxCell id="qQ9N42Zz9jeaZzvQYdQ--557" value="" style="endArrow=none;html=1;rounded=0;exitX=1;exitY=0.5;exitDx=0;exitDy=0;" parent="1" source="qQ9N42Zz9jeaZzvQYdQ--545" target="qQ9N42Zz9jeaZzvQYdQ--556" edge="1">
          <mxGeometry width="50" height="50" relative="1" as="geometry">
            <mxPoint x="2597" y="3890.5" as="sourcePoint" />
            <mxPoint x="2637" y="3880.5" as="targetPoint" />
          </mxGeometry>
        </mxCell>
        <mxCell id="qQ9N42Zz9jeaZzvQYdQ--558" value="" style="whiteSpace=wrap;html=1;aspect=fixed;" parent="1" vertex="1">
          <mxGeometry x="2696" y="3875" width="15" height="15" as="geometry" />
        </mxCell>
        <mxCell id="qQ9N42Zz9jeaZzvQYdQ--559" value="" style="endArrow=none;html=1;rounded=0;entryX=0;entryY=0.5;entryDx=0;entryDy=0;" parent="1" target="qQ9N42Zz9jeaZzvQYdQ--558" edge="1">
          <mxGeometry width="50" height="50" relative="1" as="geometry">
            <mxPoint x="2667" y="3882.5" as="sourcePoint" />
            <mxPoint x="2697" y="3860.5" as="targetPoint" />
          </mxGeometry>
        </mxCell>
        <mxCell id="qQ9N42Zz9jeaZzvQYdQ--560" value="" style="whiteSpace=wrap;html=1;aspect=fixed;" parent="1" vertex="1">
          <mxGeometry x="2696" y="3920" width="15" height="15" as="geometry" />
        </mxCell>
        <mxCell id="qQ9N42Zz9jeaZzvQYdQ--561" value="" style="rounded=0;orthogonalLoop=1;jettySize=auto;html=1;endArrow=none;endFill=0;sketch=0;sourcePerimeterSpacing=0;targetPerimeterSpacing=0;exitX=1;exitY=0.5;exitDx=0;exitDy=0;" parent="1" source="qQ9N42Zz9jeaZzvQYdQ--550" target="qQ9N42Zz9jeaZzvQYdQ--562" edge="1">
          <mxGeometry relative="1" as="geometry">
            <mxPoint x="2591" y="3927.5" as="sourcePoint" />
          </mxGeometry>
        </mxCell>
        <mxCell id="qQ9N42Zz9jeaZzvQYdQ--562" value="" style="ellipse;whiteSpace=wrap;html=1;align=center;aspect=fixed;resizable=0;points=[];outlineConnect=0;sketch=0;" parent="1" vertex="1">
          <mxGeometry x="2635" y="3922.5" width="10" height="10" as="geometry" />
        </mxCell>
        <mxCell id="qQ9N42Zz9jeaZzvQYdQ--563" value="" style="endArrow=none;html=1;rounded=0;entryX=0;entryY=0.5;entryDx=0;entryDy=0;" parent="1" source="qQ9N42Zz9jeaZzvQYdQ--562" target="qQ9N42Zz9jeaZzvQYdQ--560" edge="1">
          <mxGeometry width="50" height="50" relative="1" as="geometry">
            <mxPoint x="2646" y="3962.5" as="sourcePoint" />
            <mxPoint x="2696" y="3912.5" as="targetPoint" />
          </mxGeometry>
        </mxCell>
        <mxCell id="qQ9N42Zz9jeaZzvQYdQ--564" value="&lt;p style=&quot;margin:0px;margin-top:6px;text-align:center;&quot;&gt;&lt;b&gt;&amp;lt;&amp;lt;SubSystem&amp;gt;&amp;gt; Scheduling&amp;nbsp;Management&lt;/b&gt;&lt;/p&gt;&lt;hr&gt;&lt;p style=&quot;margin:0px;margin-left:8px;&quot;&gt;&lt;br&gt;&lt;/p&gt;" style="align=left;overflow=fill;html=1;dropTarget=0;whiteSpace=wrap;" parent="1" vertex="1">
          <mxGeometry x="1911" y="3440" width="330" height="370" as="geometry" />
        </mxCell>
        <mxCell id="qQ9N42Zz9jeaZzvQYdQ--565" value="" style="shape=component;jettyWidth=8;jettyHeight=4;" parent="qQ9N42Zz9jeaZzvQYdQ--564" vertex="1">
          <mxGeometry x="1" width="20" height="20" relative="1" as="geometry">
            <mxPoint x="-24" y="4" as="offset" />
          </mxGeometry>
        </mxCell>
        <mxCell id="qQ9N42Zz9jeaZzvQYdQ--566" value="«Component»&lt;br&gt;&lt;b&gt;Shift Managememnt&lt;/b&gt;" style="html=1;dropTarget=0;whiteSpace=wrap;" parent="1" vertex="1">
          <mxGeometry x="1940" y="3515" width="180" height="90" as="geometry" />
        </mxCell>
        <mxCell id="qQ9N42Zz9jeaZzvQYdQ--567" value="" style="shape=module;jettyWidth=8;jettyHeight=4;" parent="qQ9N42Zz9jeaZzvQYdQ--566" vertex="1">
          <mxGeometry x="1" width="20" height="20" relative="1" as="geometry">
            <mxPoint x="-27" y="7" as="offset" />
          </mxGeometry>
        </mxCell>
        <mxCell id="qQ9N42Zz9jeaZzvQYdQ--568" value="" style="whiteSpace=wrap;html=1;aspect=fixed;" parent="1" vertex="1">
          <mxGeometry x="2115" y="3530" width="15" height="15" as="geometry" />
        </mxCell>
        <mxCell id="qQ9N42Zz9jeaZzvQYdQ--569" value="" style="whiteSpace=wrap;html=1;aspect=fixed;" parent="1" vertex="1">
          <mxGeometry x="2232" y="3530" width="15" height="15" as="geometry" />
        </mxCell>
        <mxCell id="qQ9N42Zz9jeaZzvQYdQ--570" value="" style="rounded=0;orthogonalLoop=1;jettySize=auto;html=1;endArrow=none;endFill=0;sketch=0;sourcePerimeterSpacing=0;targetPerimeterSpacing=0;exitX=1;exitY=0.5;exitDx=0;exitDy=0;" parent="1" source="qQ9N42Zz9jeaZzvQYdQ--568" target="qQ9N42Zz9jeaZzvQYdQ--571" edge="1">
          <mxGeometry relative="1" as="geometry">
            <mxPoint x="2225" y="3587.5" as="sourcePoint" />
          </mxGeometry>
        </mxCell>
        <mxCell id="qQ9N42Zz9jeaZzvQYdQ--571" value="" style="ellipse;whiteSpace=wrap;html=1;align=center;aspect=fixed;resizable=0;points=[];outlineConnect=0;sketch=0;" parent="1" vertex="1">
          <mxGeometry x="2174" y="3532.5" width="10" height="10" as="geometry" />
        </mxCell>
        <mxCell id="qQ9N42Zz9jeaZzvQYdQ--572" value="" style="endArrow=none;html=1;rounded=0;entryX=0;entryY=0.5;entryDx=0;entryDy=0;" parent="1" source="qQ9N42Zz9jeaZzvQYdQ--571" target="qQ9N42Zz9jeaZzvQYdQ--569" edge="1">
          <mxGeometry width="50" height="50" relative="1" as="geometry">
            <mxPoint x="2185" y="3572.5" as="sourcePoint" />
            <mxPoint x="2235" y="3522.5" as="targetPoint" />
          </mxGeometry>
        </mxCell>
        <mxCell id="qQ9N42Zz9jeaZzvQYdQ--573" value="" style="whiteSpace=wrap;html=1;aspect=fixed;" parent="1" vertex="1">
          <mxGeometry x="2116" y="3575" width="15" height="15" as="geometry" />
        </mxCell>
        <mxCell id="qQ9N42Zz9jeaZzvQYdQ--574" value="" style="whiteSpace=wrap;html=1;aspect=fixed;" parent="1" vertex="1">
          <mxGeometry x="2232" y="3575" width="15" height="15" as="geometry" />
        </mxCell>
        <mxCell id="qQ9N42Zz9jeaZzvQYdQ--575" value="" style="rounded=0;orthogonalLoop=1;jettySize=auto;html=1;endArrow=none;endFill=0;sketch=0;sourcePerimeterSpacing=0;targetPerimeterSpacing=0;exitX=0;exitY=0.5;exitDx=0;exitDy=0;" parent="1" source="qQ9N42Zz9jeaZzvQYdQ--574" target="qQ9N42Zz9jeaZzvQYdQ--577" edge="1">
          <mxGeometry relative="1" as="geometry">
            <mxPoint x="2159" y="3583.5" as="sourcePoint" />
          </mxGeometry>
        </mxCell>
        <mxCell id="qQ9N42Zz9jeaZzvQYdQ--576" value="" style="rounded=0;orthogonalLoop=1;jettySize=auto;html=1;endArrow=halfCircle;endFill=0;entryX=0.5;entryY=0.5;endSize=6;strokeWidth=1;sketch=0;exitX=1;exitY=0.5;exitDx=0;exitDy=0;" parent="1" source="qQ9N42Zz9jeaZzvQYdQ--573" target="qQ9N42Zz9jeaZzvQYdQ--577" edge="1">
          <mxGeometry relative="1" as="geometry">
            <mxPoint x="2199" y="3583.5" as="sourcePoint" />
          </mxGeometry>
        </mxCell>
        <mxCell id="qQ9N42Zz9jeaZzvQYdQ--577" value="" style="ellipse;whiteSpace=wrap;html=1;align=center;aspect=fixed;resizable=0;points=[];outlineConnect=0;sketch=0;" parent="1" vertex="1">
          <mxGeometry x="2174" y="3577.5" width="10" height="10" as="geometry" />
        </mxCell>
        <mxCell id="qQ9N42Zz9jeaZzvQYdQ--578" value="" style="rounded=0;orthogonalLoop=1;jettySize=auto;html=1;endArrow=none;endFill=0;sketch=0;sourcePerimeterSpacing=0;targetPerimeterSpacing=0;" parent="1" target="qQ9N42Zz9jeaZzvQYdQ--580" edge="1">
          <mxGeometry relative="1" as="geometry">
            <mxPoint x="2287" y="3537.5" as="sourcePoint" />
          </mxGeometry>
        </mxCell>
        <mxCell id="qQ9N42Zz9jeaZzvQYdQ--579" value="" style="rounded=0;orthogonalLoop=1;jettySize=auto;html=1;endArrow=halfCircle;endFill=0;entryX=0.5;entryY=0.5;endSize=6;strokeWidth=1;sketch=0;" parent="1" target="qQ9N42Zz9jeaZzvQYdQ--580" edge="1">
          <mxGeometry relative="1" as="geometry">
            <mxPoint x="2327" y="3537.5" as="sourcePoint" />
          </mxGeometry>
        </mxCell>
        <mxCell id="qQ9N42Zz9jeaZzvQYdQ--580" value="" style="ellipse;whiteSpace=wrap;html=1;align=center;aspect=fixed;resizable=0;points=[];outlineConnect=0;sketch=0;" parent="1" vertex="1">
          <mxGeometry x="2302" y="3532.5" width="10" height="10" as="geometry" />
        </mxCell>
        <mxCell id="qQ9N42Zz9jeaZzvQYdQ--581" value="" style="endArrow=none;html=1;rounded=0;exitX=1;exitY=0.5;exitDx=0;exitDy=0;" parent="1" source="qQ9N42Zz9jeaZzvQYdQ--569" target="qQ9N42Zz9jeaZzvQYdQ--580" edge="1">
          <mxGeometry width="50" height="50" relative="1" as="geometry">
            <mxPoint x="2250" y="3545.5" as="sourcePoint" />
            <mxPoint x="2290" y="3535.5" as="targetPoint" />
          </mxGeometry>
        </mxCell>
        <mxCell id="qQ9N42Zz9jeaZzvQYdQ--582" value="" style="whiteSpace=wrap;html=1;aspect=fixed;" parent="1" vertex="1">
          <mxGeometry x="2349" y="3530" width="15" height="15" as="geometry" />
        </mxCell>
        <mxCell id="qQ9N42Zz9jeaZzvQYdQ--583" value="" style="endArrow=none;html=1;rounded=0;entryX=0;entryY=0.5;entryDx=0;entryDy=0;" parent="1" target="qQ9N42Zz9jeaZzvQYdQ--582" edge="1">
          <mxGeometry width="50" height="50" relative="1" as="geometry">
            <mxPoint x="2320" y="3537.5" as="sourcePoint" />
            <mxPoint x="2350" y="3515.5" as="targetPoint" />
          </mxGeometry>
        </mxCell>
        <mxCell id="qQ9N42Zz9jeaZzvQYdQ--584" value="" style="whiteSpace=wrap;html=1;aspect=fixed;" parent="1" vertex="1">
          <mxGeometry x="2349" y="3575" width="15" height="15" as="geometry" />
        </mxCell>
        <mxCell id="qQ9N42Zz9jeaZzvQYdQ--585" value="" style="rounded=0;orthogonalLoop=1;jettySize=auto;html=1;endArrow=none;endFill=0;sketch=0;sourcePerimeterSpacing=0;targetPerimeterSpacing=0;exitX=1;exitY=0.5;exitDx=0;exitDy=0;" parent="1" source="qQ9N42Zz9jeaZzvQYdQ--574" target="qQ9N42Zz9jeaZzvQYdQ--586" edge="1">
          <mxGeometry relative="1" as="geometry">
            <mxPoint x="2244" y="3582.5" as="sourcePoint" />
          </mxGeometry>
        </mxCell>
        <mxCell id="qQ9N42Zz9jeaZzvQYdQ--586" value="" style="ellipse;whiteSpace=wrap;html=1;align=center;aspect=fixed;resizable=0;points=[];outlineConnect=0;sketch=0;" parent="1" vertex="1">
          <mxGeometry x="2288" y="3577.5" width="10" height="10" as="geometry" />
        </mxCell>
        <mxCell id="qQ9N42Zz9jeaZzvQYdQ--587" value="" style="endArrow=none;html=1;rounded=0;entryX=0;entryY=0.5;entryDx=0;entryDy=0;" parent="1" source="qQ9N42Zz9jeaZzvQYdQ--586" target="qQ9N42Zz9jeaZzvQYdQ--584" edge="1">
          <mxGeometry width="50" height="50" relative="1" as="geometry">
            <mxPoint x="2299" y="3617.5" as="sourcePoint" />
            <mxPoint x="2349" y="3567.5" as="targetPoint" />
          </mxGeometry>
        </mxCell>
        <mxCell id="qQ9N42Zz9jeaZzvQYdQ--588" value="«Component»&lt;br&gt;&lt;b&gt;Task Distribution&lt;/b&gt;" style="html=1;dropTarget=0;whiteSpace=wrap;" parent="1" vertex="1">
          <mxGeometry x="1940" y="3682.5" width="180" height="90" as="geometry" />
        </mxCell>
        <mxCell id="qQ9N42Zz9jeaZzvQYdQ--589" value="" style="shape=module;jettyWidth=8;jettyHeight=4;" parent="qQ9N42Zz9jeaZzvQYdQ--588" vertex="1">
          <mxGeometry x="1" width="20" height="20" relative="1" as="geometry">
            <mxPoint x="-27" y="7" as="offset" />
          </mxGeometry>
        </mxCell>
        <mxCell id="qQ9N42Zz9jeaZzvQYdQ--590" value="" style="whiteSpace=wrap;html=1;aspect=fixed;" parent="1" vertex="1">
          <mxGeometry x="2115" y="3697.5" width="15" height="15" as="geometry" />
        </mxCell>
        <mxCell id="qQ9N42Zz9jeaZzvQYdQ--591" value="" style="whiteSpace=wrap;html=1;aspect=fixed;" parent="1" vertex="1">
          <mxGeometry x="2232" y="3697.5" width="15" height="15" as="geometry" />
        </mxCell>
        <mxCell id="qQ9N42Zz9jeaZzvQYdQ--592" value="" style="rounded=0;orthogonalLoop=1;jettySize=auto;html=1;endArrow=none;endFill=0;sketch=0;sourcePerimeterSpacing=0;targetPerimeterSpacing=0;exitX=1;exitY=0.5;exitDx=0;exitDy=0;" parent="1" source="qQ9N42Zz9jeaZzvQYdQ--590" target="qQ9N42Zz9jeaZzvQYdQ--593" edge="1">
          <mxGeometry relative="1" as="geometry">
            <mxPoint x="2225" y="3755" as="sourcePoint" />
          </mxGeometry>
        </mxCell>
        <mxCell id="qQ9N42Zz9jeaZzvQYdQ--593" value="" style="ellipse;whiteSpace=wrap;html=1;align=center;aspect=fixed;resizable=0;points=[];outlineConnect=0;sketch=0;" parent="1" vertex="1">
          <mxGeometry x="2174" y="3700" width="10" height="10" as="geometry" />
        </mxCell>
        <mxCell id="qQ9N42Zz9jeaZzvQYdQ--594" value="" style="endArrow=none;html=1;rounded=0;entryX=0;entryY=0.5;entryDx=0;entryDy=0;" parent="1" source="qQ9N42Zz9jeaZzvQYdQ--593" target="qQ9N42Zz9jeaZzvQYdQ--591" edge="1">
          <mxGeometry width="50" height="50" relative="1" as="geometry">
            <mxPoint x="2185" y="3740" as="sourcePoint" />
            <mxPoint x="2235" y="3690" as="targetPoint" />
          </mxGeometry>
        </mxCell>
        <mxCell id="qQ9N42Zz9jeaZzvQYdQ--595" value="" style="whiteSpace=wrap;html=1;aspect=fixed;" parent="1" vertex="1">
          <mxGeometry x="2116" y="3742.5" width="15" height="15" as="geometry" />
        </mxCell>
        <mxCell id="qQ9N42Zz9jeaZzvQYdQ--596" value="" style="whiteSpace=wrap;html=1;aspect=fixed;" parent="1" vertex="1">
          <mxGeometry x="2232" y="3742.5" width="15" height="15" as="geometry" />
        </mxCell>
        <mxCell id="qQ9N42Zz9jeaZzvQYdQ--597" value="" style="rounded=0;orthogonalLoop=1;jettySize=auto;html=1;endArrow=none;endFill=0;sketch=0;sourcePerimeterSpacing=0;targetPerimeterSpacing=0;exitX=0;exitY=0.5;exitDx=0;exitDy=0;" parent="1" source="qQ9N42Zz9jeaZzvQYdQ--596" target="qQ9N42Zz9jeaZzvQYdQ--599" edge="1">
          <mxGeometry relative="1" as="geometry">
            <mxPoint x="2159" y="3751" as="sourcePoint" />
          </mxGeometry>
        </mxCell>
        <mxCell id="qQ9N42Zz9jeaZzvQYdQ--598" value="" style="rounded=0;orthogonalLoop=1;jettySize=auto;html=1;endArrow=halfCircle;endFill=0;entryX=0.5;entryY=0.5;endSize=6;strokeWidth=1;sketch=0;exitX=1;exitY=0.5;exitDx=0;exitDy=0;" parent="1" source="qQ9N42Zz9jeaZzvQYdQ--595" target="qQ9N42Zz9jeaZzvQYdQ--599" edge="1">
          <mxGeometry relative="1" as="geometry">
            <mxPoint x="2199" y="3751" as="sourcePoint" />
          </mxGeometry>
        </mxCell>
        <mxCell id="qQ9N42Zz9jeaZzvQYdQ--599" value="" style="ellipse;whiteSpace=wrap;html=1;align=center;aspect=fixed;resizable=0;points=[];outlineConnect=0;sketch=0;" parent="1" vertex="1">
          <mxGeometry x="2174" y="3745" width="10" height="10" as="geometry" />
        </mxCell>
        <mxCell id="qQ9N42Zz9jeaZzvQYdQ--600" value="" style="rounded=0;orthogonalLoop=1;jettySize=auto;html=1;endArrow=none;endFill=0;sketch=0;sourcePerimeterSpacing=0;targetPerimeterSpacing=0;" parent="1" target="qQ9N42Zz9jeaZzvQYdQ--602" edge="1">
          <mxGeometry relative="1" as="geometry">
            <mxPoint x="2287" y="3705" as="sourcePoint" />
          </mxGeometry>
        </mxCell>
        <mxCell id="qQ9N42Zz9jeaZzvQYdQ--601" value="" style="rounded=0;orthogonalLoop=1;jettySize=auto;html=1;endArrow=halfCircle;endFill=0;entryX=0.5;entryY=0.5;endSize=6;strokeWidth=1;sketch=0;" parent="1" target="qQ9N42Zz9jeaZzvQYdQ--602" edge="1">
          <mxGeometry relative="1" as="geometry">
            <mxPoint x="2327" y="3705" as="sourcePoint" />
          </mxGeometry>
        </mxCell>
        <mxCell id="qQ9N42Zz9jeaZzvQYdQ--602" value="" style="ellipse;whiteSpace=wrap;html=1;align=center;aspect=fixed;resizable=0;points=[];outlineConnect=0;sketch=0;" parent="1" vertex="1">
          <mxGeometry x="2302" y="3700" width="10" height="10" as="geometry" />
        </mxCell>
        <mxCell id="qQ9N42Zz9jeaZzvQYdQ--603" value="" style="endArrow=none;html=1;rounded=0;exitX=1;exitY=0.5;exitDx=0;exitDy=0;" parent="1" source="qQ9N42Zz9jeaZzvQYdQ--591" target="qQ9N42Zz9jeaZzvQYdQ--602" edge="1">
          <mxGeometry width="50" height="50" relative="1" as="geometry">
            <mxPoint x="2250" y="3713" as="sourcePoint" />
            <mxPoint x="2290" y="3703" as="targetPoint" />
          </mxGeometry>
        </mxCell>
        <mxCell id="qQ9N42Zz9jeaZzvQYdQ--604" value="" style="whiteSpace=wrap;html=1;aspect=fixed;" parent="1" vertex="1">
          <mxGeometry x="2349" y="3697.5" width="15" height="15" as="geometry" />
        </mxCell>
        <mxCell id="qQ9N42Zz9jeaZzvQYdQ--605" value="" style="endArrow=none;html=1;rounded=0;entryX=0;entryY=0.5;entryDx=0;entryDy=0;" parent="1" target="qQ9N42Zz9jeaZzvQYdQ--604" edge="1">
          <mxGeometry width="50" height="50" relative="1" as="geometry">
            <mxPoint x="2320" y="3705" as="sourcePoint" />
            <mxPoint x="2350" y="3683" as="targetPoint" />
          </mxGeometry>
        </mxCell>
        <mxCell id="qQ9N42Zz9jeaZzvQYdQ--606" value="" style="whiteSpace=wrap;html=1;aspect=fixed;" parent="1" vertex="1">
          <mxGeometry x="2349" y="3742.5" width="15" height="15" as="geometry" />
        </mxCell>
        <mxCell id="qQ9N42Zz9jeaZzvQYdQ--607" value="" style="rounded=0;orthogonalLoop=1;jettySize=auto;html=1;endArrow=none;endFill=0;sketch=0;sourcePerimeterSpacing=0;targetPerimeterSpacing=0;exitX=1;exitY=0.5;exitDx=0;exitDy=0;" parent="1" source="qQ9N42Zz9jeaZzvQYdQ--596" target="qQ9N42Zz9jeaZzvQYdQ--608" edge="1">
          <mxGeometry relative="1" as="geometry">
            <mxPoint x="2244" y="3750" as="sourcePoint" />
          </mxGeometry>
        </mxCell>
        <mxCell id="qQ9N42Zz9jeaZzvQYdQ--608" value="" style="ellipse;whiteSpace=wrap;html=1;align=center;aspect=fixed;resizable=0;points=[];outlineConnect=0;sketch=0;" parent="1" vertex="1">
          <mxGeometry x="2288" y="3745" width="10" height="10" as="geometry" />
        </mxCell>
        <mxCell id="qQ9N42Zz9jeaZzvQYdQ--609" value="" style="endArrow=none;html=1;rounded=0;entryX=0;entryY=0.5;entryDx=0;entryDy=0;" parent="1" source="qQ9N42Zz9jeaZzvQYdQ--608" target="qQ9N42Zz9jeaZzvQYdQ--606" edge="1">
          <mxGeometry width="50" height="50" relative="1" as="geometry">
            <mxPoint x="2299" y="3785" as="sourcePoint" />
            <mxPoint x="2349" y="3735" as="targetPoint" />
          </mxGeometry>
        </mxCell>
        <mxCell id="qQ9N42Zz9jeaZzvQYdQ--632" value="" style="rounded=0;orthogonalLoop=1;jettySize=auto;html=1;endArrow=none;endFill=0;sketch=0;sourcePerimeterSpacing=0;targetPerimeterSpacing=0;exitX=0.5;exitY=0;exitDx=0;exitDy=0;" parent="1" target="qQ9N42Zz9jeaZzvQYdQ--634" edge="1">
          <mxGeometry relative="1" as="geometry">
            <mxPoint x="2080" y="3683.5" as="sourcePoint" />
          </mxGeometry>
        </mxCell>
        <mxCell id="qQ9N42Zz9jeaZzvQYdQ--633" value="" style="rounded=0;orthogonalLoop=1;jettySize=auto;html=1;endArrow=halfCircle;endFill=0;entryX=0.5;entryY=0.5;endSize=6;strokeWidth=1;sketch=0;exitX=0.5;exitY=1;exitDx=0;exitDy=0;" parent="1" target="qQ9N42Zz9jeaZzvQYdQ--634" edge="1">
          <mxGeometry relative="1" as="geometry">
            <mxPoint x="2080" y="3603.5" as="sourcePoint" />
          </mxGeometry>
        </mxCell>
        <mxCell id="qQ9N42Zz9jeaZzvQYdQ--634" value="" style="ellipse;whiteSpace=wrap;html=1;align=center;aspect=fixed;resizable=0;points=[];outlineConnect=0;sketch=0;" parent="1" vertex="1">
          <mxGeometry x="2075" y="3633.5" width="10" height="10" as="geometry" />
        </mxCell>
        <mxCell id="qQ9N42Zz9jeaZzvQYdQ--635" value="" style="whiteSpace=wrap;html=1;aspect=fixed;" parent="1" vertex="1">
          <mxGeometry x="2072.5" y="3596.5" width="15" height="15" as="geometry" />
        </mxCell>
        <mxCell id="qQ9N42Zz9jeaZzvQYdQ--636" value="" style="whiteSpace=wrap;html=1;aspect=fixed;" parent="1" vertex="1">
          <mxGeometry x="2072.5" y="3673.5" width="15" height="15" as="geometry" />
        </mxCell>
        <mxCell id="qQ9N42Zz9jeaZzvQYdQ--637" value="" style="rounded=0;orthogonalLoop=1;jettySize=auto;html=1;endArrow=none;endFill=0;sketch=0;sourcePerimeterSpacing=0;targetPerimeterSpacing=0;exitX=0.5;exitY=1;exitDx=0;exitDy=0;" parent="1" source="qQ9N42Zz9jeaZzvQYdQ--641" target="qQ9N42Zz9jeaZzvQYdQ--639" edge="1">
          <mxGeometry relative="1" as="geometry">
            <mxPoint x="1980" y="3690.5" as="sourcePoint" />
          </mxGeometry>
        </mxCell>
        <mxCell id="qQ9N42Zz9jeaZzvQYdQ--638" value="" style="rounded=0;orthogonalLoop=1;jettySize=auto;html=1;endArrow=halfCircle;endFill=0;entryX=0.5;entryY=0.5;endSize=6;strokeWidth=1;sketch=0;" parent="1" source="qQ9N42Zz9jeaZzvQYdQ--640" target="qQ9N42Zz9jeaZzvQYdQ--639" edge="1">
          <mxGeometry relative="1" as="geometry">
            <mxPoint x="1980" y="3610.5" as="sourcePoint" />
          </mxGeometry>
        </mxCell>
        <mxCell id="qQ9N42Zz9jeaZzvQYdQ--639" value="" style="ellipse;whiteSpace=wrap;html=1;align=center;aspect=fixed;resizable=0;points=[];outlineConnect=0;sketch=0;" parent="1" vertex="1">
          <mxGeometry x="1975" y="3640.5" width="10" height="10" as="geometry" />
        </mxCell>
        <mxCell id="qQ9N42Zz9jeaZzvQYdQ--640" value="" style="whiteSpace=wrap;html=1;aspect=fixed;" parent="1" vertex="1">
          <mxGeometry x="1972.5" y="3673.5" width="15" height="15" as="geometry" />
        </mxCell>
        <mxCell id="qQ9N42Zz9jeaZzvQYdQ--641" value="" style="whiteSpace=wrap;html=1;aspect=fixed;" parent="1" vertex="1">
          <mxGeometry x="1972.5" y="3596.5" width="15" height="15" as="geometry" />
        </mxCell>
        <mxCell id="qQ9N42Zz9jeaZzvQYdQ--642" value="«Component»&lt;br&gt;&lt;b&gt;System Coordinator&lt;/b&gt;" style="html=1;dropTarget=0;whiteSpace=wrap;" parent="1" vertex="1">
          <mxGeometry x="2322.5" y="1410" width="180" height="90" as="geometry" />
        </mxCell>
        <mxCell id="qQ9N42Zz9jeaZzvQYdQ--643" value="" style="shape=module;jettyWidth=8;jettyHeight=4;" parent="qQ9N42Zz9jeaZzvQYdQ--642" vertex="1">
          <mxGeometry x="1" width="20" height="20" relative="1" as="geometry">
            <mxPoint x="-27" y="7" as="offset" />
          </mxGeometry>
        </mxCell>
        <mxCell id="qQ9N42Zz9jeaZzvQYdQ--657" value="" style="whiteSpace=wrap;html=1;aspect=fixed;" parent="1" vertex="1">
          <mxGeometry x="2404.5" y="1400" width="15" height="15" as="geometry" />
        </mxCell>
        <mxCell id="qQ9N42Zz9jeaZzvQYdQ--658" value="" style="whiteSpace=wrap;html=1;aspect=fixed;" parent="1" vertex="1">
          <mxGeometry x="2405" y="1490" width="15" height="15" as="geometry" />
        </mxCell>
        <mxCell id="qQ9N42Zz9jeaZzvQYdQ--659" value="" style="endArrow=classic;startArrow=classic;html=1;rounded=0;entryX=0.5;entryY=1;entryDx=0;entryDy=0;exitX=0;exitY=0.5;exitDx=0;exitDy=0;" parent="1" source="qQ9N42Zz9jeaZzvQYdQ--6" target="qQ9N42Zz9jeaZzvQYdQ--658" edge="1">
          <mxGeometry width="50" height="50" relative="1" as="geometry">
            <mxPoint x="1690" y="1610" as="sourcePoint" />
            <mxPoint x="2260" y="1630" as="targetPoint" />
            <Array as="points">
              <mxPoint x="1800" y="1815" />
              <mxPoint x="1800" y="1610" />
              <mxPoint x="2412" y="1610" />
            </Array>
          </mxGeometry>
        </mxCell>
        <mxCell id="qQ9N42Zz9jeaZzvQYdQ--660" value="" style="endArrow=classic;html=1;rounded=0;entryX=0;entryY=0.5;entryDx=0;entryDy=0;" parent="1" target="qQ9N42Zz9jeaZzvQYdQ--8" edge="1">
          <mxGeometry width="50" height="50" relative="1" as="geometry">
            <mxPoint x="1800" y="1810" as="sourcePoint" />
            <mxPoint x="1980" y="1800" as="targetPoint" />
            <Array as="points">
              <mxPoint x="1800" y="2030" />
            </Array>
          </mxGeometry>
        </mxCell>
        <mxCell id="qQ9N42Zz9jeaZzvQYdQ--661" value="" style="endArrow=classic;html=1;rounded=0;entryX=0;entryY=0.5;entryDx=0;entryDy=0;" parent="1" target="qQ9N42Zz9jeaZzvQYdQ--67" edge="1">
          <mxGeometry width="50" height="50" relative="1" as="geometry">
            <mxPoint x="1800" y="1990" as="sourcePoint" />
            <mxPoint x="1890" y="2170" as="targetPoint" />
            <Array as="points">
              <mxPoint x="1800" y="2270" />
            </Array>
          </mxGeometry>
        </mxCell>
        <mxCell id="qQ9N42Zz9jeaZzvQYdQ--662" value="" style="endArrow=classic;html=1;rounded=0;entryX=0;entryY=0.5;entryDx=0;entryDy=0;" parent="1" target="qQ9N42Zz9jeaZzvQYdQ--93" edge="1">
          <mxGeometry width="50" height="50" relative="1" as="geometry">
            <mxPoint x="1800" y="2260" as="sourcePoint" />
            <mxPoint x="1937.8199999999997" y="2526.6500000000005" as="targetPoint" />
            <Array as="points">
              <mxPoint x="1800" y="2600" />
            </Array>
          </mxGeometry>
        </mxCell>
        <mxCell id="qQ9N42Zz9jeaZzvQYdQ--663" value="" style="endArrow=classic;html=1;rounded=0;entryX=0;entryY=0.5;entryDx=0;entryDy=0;" parent="1" target="qQ9N42Zz9jeaZzvQYdQ--340" edge="1">
          <mxGeometry width="50" height="50" relative="1" as="geometry">
            <mxPoint x="1800" y="2520" as="sourcePoint" />
            <mxPoint x="1870" y="2620" as="targetPoint" />
            <Array as="points">
              <mxPoint x="1800" y="2743" />
            </Array>
          </mxGeometry>
        </mxCell>
        <mxCell id="qQ9N42Zz9jeaZzvQYdQ--664" value="" style="endArrow=classic;html=1;rounded=0;entryX=0;entryY=0.5;entryDx=0;entryDy=0;" parent="1" target="qQ9N42Zz9jeaZzvQYdQ--97" edge="1">
          <mxGeometry width="50" height="50" relative="1" as="geometry">
            <mxPoint x="1800" y="2740" as="sourcePoint" />
            <mxPoint x="1910" y="2790" as="targetPoint" />
            <Array as="points">
              <mxPoint x="1800" y="2906" />
            </Array>
          </mxGeometry>
        </mxCell>
        <mxCell id="qQ9N42Zz9jeaZzvQYdQ--665" value="" style="endArrow=classic;html=1;rounded=0;entryX=0;entryY=0.5;entryDx=0;entryDy=0;" parent="1" target="qQ9N42Zz9jeaZzvQYdQ--294" edge="1">
          <mxGeometry width="50" height="50" relative="1" as="geometry">
            <mxPoint x="1800" y="2900" as="sourcePoint" />
            <mxPoint x="1940" y="2980" as="targetPoint" />
            <Array as="points">
              <mxPoint x="1800" y="3099" />
            </Array>
          </mxGeometry>
        </mxCell>
        <mxCell id="qQ9N42Zz9jeaZzvQYdQ--666" value="" style="endArrow=classic;html=1;rounded=0;entryX=0;entryY=0.5;entryDx=0;entryDy=0;" parent="1" target="qQ9N42Zz9jeaZzvQYdQ--296" edge="1">
          <mxGeometry width="50" height="50" relative="1" as="geometry">
            <mxPoint x="1800" y="3100" as="sourcePoint" />
            <mxPoint x="1896" y="3210" as="targetPoint" />
            <Array as="points">
              <mxPoint x="1800" y="3315" />
            </Array>
          </mxGeometry>
        </mxCell>
        <mxCell id="qQ9N42Zz9jeaZzvQYdQ--667" value="" style="endArrow=classic;html=1;rounded=0;entryX=0;entryY=0.5;entryDx=0;entryDy=0;" parent="1" target="qQ9N42Zz9jeaZzvQYdQ--566" edge="1">
          <mxGeometry width="50" height="50" relative="1" as="geometry">
            <mxPoint x="1800" y="3310" as="sourcePoint" />
            <mxPoint x="2050" y="3530" as="targetPoint" />
            <Array as="points">
              <mxPoint x="1800" y="3560" />
            </Array>
          </mxGeometry>
        </mxCell>
        <mxCell id="qQ9N42Zz9jeaZzvQYdQ--668" value="" style="endArrow=classic;html=1;rounded=0;entryX=0;entryY=0.5;entryDx=0;entryDy=0;" parent="1" target="qQ9N42Zz9jeaZzvQYdQ--588" edge="1">
          <mxGeometry width="50" height="50" relative="1" as="geometry">
            <mxPoint x="1800" y="3560" as="sourcePoint" />
            <mxPoint x="1950" y="3620" as="targetPoint" />
            <Array as="points">
              <mxPoint x="1800" y="3728" />
            </Array>
          </mxGeometry>
        </mxCell>
        <mxCell id="qQ9N42Zz9jeaZzvQYdQ--671" value="" style="endArrow=classic;html=1;rounded=0;entryX=1;entryY=0.5;entryDx=0;entryDy=0;" parent="1" target="qQ9N42Zz9jeaZzvQYdQ--141" edge="1">
          <mxGeometry width="50" height="50" relative="1" as="geometry">
            <mxPoint x="2410" y="1610" as="sourcePoint" />
            <mxPoint x="2750" y="1670" as="targetPoint" />
            <Array as="points">
              <mxPoint x="3040" y="1610" />
              <mxPoint x="3040" y="1815" />
            </Array>
          </mxGeometry>
        </mxCell>
        <mxCell id="qQ9N42Zz9jeaZzvQYdQ--672" value="" style="endArrow=classic;html=1;rounded=0;entryX=1;entryY=0.5;entryDx=0;entryDy=0;" parent="1" target="qQ9N42Zz9jeaZzvQYdQ--143" edge="1">
          <mxGeometry width="50" height="50" relative="1" as="geometry">
            <mxPoint x="3040" y="1810" as="sourcePoint" />
            <mxPoint x="3000" y="1860" as="targetPoint" />
            <Array as="points">
              <mxPoint x="3040" y="1985" />
            </Array>
          </mxGeometry>
        </mxCell>
        <mxCell id="qQ9N42Zz9jeaZzvQYdQ--673" value="" style="endArrow=classic;html=1;rounded=0;entryX=1;entryY=0.5;entryDx=0;entryDy=0;" parent="1" target="qQ9N42Zz9jeaZzvQYdQ--192" edge="1">
          <mxGeometry width="50" height="50" relative="1" as="geometry">
            <mxPoint x="3040" y="1980" as="sourcePoint" />
            <mxPoint x="2990" y="2030" as="targetPoint" />
            <Array as="points">
              <mxPoint x="3040" y="2255" />
            </Array>
          </mxGeometry>
        </mxCell>
        <mxCell id="qQ9N42Zz9jeaZzvQYdQ--674" value="" style="endArrow=classic;html=1;rounded=0;entryX=1;entryY=0.5;entryDx=0;entryDy=0;" parent="1" target="qQ9N42Zz9jeaZzvQYdQ--194" edge="1">
          <mxGeometry width="50" height="50" relative="1" as="geometry">
            <mxPoint x="3040" y="2250" as="sourcePoint" />
            <mxPoint x="2960" y="2320" as="targetPoint" />
            <Array as="points">
              <mxPoint x="3040" y="2425" />
            </Array>
          </mxGeometry>
        </mxCell>
        <mxCell id="qQ9N42Zz9jeaZzvQYdQ--675" value="" style="endArrow=classic;html=1;rounded=0;entryX=1;entryY=0.5;entryDx=0;entryDy=0;" parent="1" target="qQ9N42Zz9jeaZzvQYdQ--270" edge="1">
          <mxGeometry width="50" height="50" relative="1" as="geometry">
            <mxPoint x="3040" y="2420" as="sourcePoint" />
            <mxPoint x="3100" y="2590" as="targetPoint" />
            <Array as="points">
              <mxPoint x="3040" y="2743" />
            </Array>
          </mxGeometry>
        </mxCell>
        <mxCell id="qQ9N42Zz9jeaZzvQYdQ--676" value="" style="endArrow=classic;html=1;rounded=0;entryX=1;entryY=0.5;entryDx=0;entryDy=0;" parent="1" target="qQ9N42Zz9jeaZzvQYdQ--388" edge="1">
          <mxGeometry width="50" height="50" relative="1" as="geometry">
            <mxPoint x="3040" y="2740" as="sourcePoint" />
            <mxPoint x="3220" y="2840" as="targetPoint" />
            <Array as="points">
              <mxPoint x="3040" y="3040" />
            </Array>
          </mxGeometry>
        </mxCell>
        <mxCell id="qQ9N42Zz9jeaZzvQYdQ--677" value="" style="endArrow=classic;html=1;rounded=0;entryX=1;entryY=0.5;entryDx=0;entryDy=0;" parent="1" target="qQ9N42Zz9jeaZzvQYdQ--412" edge="1">
          <mxGeometry width="50" height="50" relative="1" as="geometry">
            <mxPoint x="3040" y="3040" as="sourcePoint" />
            <mxPoint x="3150" y="3190" as="targetPoint" />
            <Array as="points">
              <mxPoint x="3040" y="3290" />
            </Array>
          </mxGeometry>
        </mxCell>
        <mxCell id="qQ9N42Zz9jeaZzvQYdQ--678" value="" style="endArrow=classic;html=1;rounded=0;entryX=1;entryY=0.5;entryDx=0;entryDy=0;" parent="1" target="qQ9N42Zz9jeaZzvQYdQ--436" edge="1">
          <mxGeometry width="50" height="50" relative="1" as="geometry">
            <mxPoint x="3040" y="3290" as="sourcePoint" />
            <mxPoint x="3120" y="3380" as="targetPoint" />
            <Array as="points">
              <mxPoint x="3040" y="3545" />
            </Array>
          </mxGeometry>
        </mxCell>
        <mxCell id="qQ9N42Zz9jeaZzvQYdQ--679" value="" style="endArrow=classic;html=1;rounded=0;entryX=1;entryY=0.5;entryDx=0;entryDy=0;" parent="1" target="qQ9N42Zz9jeaZzvQYdQ--438" edge="1">
          <mxGeometry width="50" height="50" relative="1" as="geometry">
            <mxPoint x="3040" y="3530" as="sourcePoint" />
            <mxPoint x="3050" y="3660" as="targetPoint" />
            <Array as="points">
              <mxPoint x="3040" y="3665" />
            </Array>
          </mxGeometry>
        </mxCell>
        <mxCell id="qQ9N42Zz9jeaZzvQYdQ--680" value="" style="endArrow=classic;html=1;rounded=0;entryX=0.994;entryY=0.537;entryDx=0;entryDy=0;entryPerimeter=0;" parent="1" target="qQ9N42Zz9jeaZzvQYdQ--440" edge="1">
          <mxGeometry width="50" height="50" relative="1" as="geometry">
            <mxPoint x="3040" y="3660" as="sourcePoint" />
            <mxPoint x="2980" y="3800" as="targetPoint" />
            <Array as="points">
              <mxPoint x="3040" y="3790" />
            </Array>
          </mxGeometry>
        </mxCell>
        <mxCell id="qQ9N42Zz9jeaZzvQYdQ--681" value="" style="endArrow=classic;html=1;rounded=0;entryX=1;entryY=0.5;entryDx=0;entryDy=0;" parent="1" target="qQ9N42Zz9jeaZzvQYdQ--442" edge="1">
          <mxGeometry width="50" height="50" relative="1" as="geometry">
            <mxPoint x="3040" y="3790" as="sourcePoint" />
            <mxPoint x="2980" y="3800" as="targetPoint" />
            <Array as="points">
              <mxPoint x="3040" y="3905" />
            </Array>
          </mxGeometry>
        </mxCell>
        <mxCell id="qQ9N42Zz9jeaZzvQYdQ--682" value="Employee" style="shape=umlActor;verticalLabelPosition=bottom;verticalAlign=top;html=1;outlineConnect=0;" parent="1" vertex="1">
          <mxGeometry x="2397.5" y="1190" width="30" height="60" as="geometry" />
        </mxCell>
        <mxCell id="qQ9N42Zz9jeaZzvQYdQ--683" value="Manager" style="shape=umlActor;verticalLabelPosition=bottom;verticalAlign=top;html=1;outlineConnect=0;" parent="1" vertex="1">
          <mxGeometry x="2488" y="1190" width="30" height="60" as="geometry" />
        </mxCell>
        <mxCell id="qQ9N42Zz9jeaZzvQYdQ--684" value="Department" style="shape=umlActor;verticalLabelPosition=bottom;verticalAlign=top;html=1;outlineConnect=0;" parent="1" vertex="1">
          <mxGeometry x="2304" y="1190" width="30" height="60" as="geometry" />
        </mxCell>
        <mxCell id="qQ9N42Zz9jeaZzvQYdQ--686" value="" style="endArrow=classic;startArrow=classic;html=1;rounded=0;exitX=0.5;exitY=0;exitDx=0;exitDy=0;" parent="1" source="qQ9N42Zz9jeaZzvQYdQ--657" edge="1">
          <mxGeometry width="50" height="50" relative="1" as="geometry">
            <mxPoint x="2411" y="1380" as="sourcePoint" />
            <mxPoint x="2411" y="1272" as="targetPoint" />
          </mxGeometry>
        </mxCell>
        <mxCell id="qQ9N42Zz9jeaZzvQYdQ--687" value="" style="endArrow=classic;html=1;rounded=0;" parent="1" target="qQ9N42Zz9jeaZzvQYdQ--683" edge="1">
          <mxGeometry width="50" height="50" relative="1" as="geometry">
            <mxPoint x="2411.5" y="1310" as="sourcePoint" />
            <mxPoint x="2478" y="1260" as="targetPoint" />
          </mxGeometry>
        </mxCell>
        <mxCell id="qQ9N42Zz9jeaZzvQYdQ--688" value="" style="endArrow=classic;html=1;rounded=0;" parent="1" target="qQ9N42Zz9jeaZzvQYdQ--684" edge="1">
          <mxGeometry width="50" height="50" relative="1" as="geometry">
            <mxPoint x="2411" y="1310" as="sourcePoint" />
            <mxPoint x="2341" y="1260" as="targetPoint" />
          </mxGeometry>
        </mxCell>
        <mxCell id="XsbqqY5qWIHZAGbf9mzU-4" value="«Component»&lt;br&gt;&lt;b&gt;Company Insurace&lt;/b&gt;" style="html=1;dropTarget=0;whiteSpace=wrap;" parent="1" vertex="1">
          <mxGeometry x="2052" y="3165" width="180" height="90" as="geometry" />
        </mxCell>
        <mxCell id="XsbqqY5qWIHZAGbf9mzU-5" value="" style="shape=module;jettyWidth=8;jettyHeight=4;" parent="XsbqqY5qWIHZAGbf9mzU-4" vertex="1">
          <mxGeometry x="1" width="20" height="20" relative="1" as="geometry">
            <mxPoint x="-27" y="7" as="offset" />
          </mxGeometry>
        </mxCell>
        <mxCell id="XsbqqY5qWIHZAGbf9mzU-23" value="" style="edgeStyle=orthogonalEdgeStyle;rounded=0;orthogonalLoop=1;jettySize=auto;html=1;entryX=0;entryY=0.5;entryDx=0;entryDy=0;exitX=0.5;exitY=0;exitDx=0;exitDy=0;" parent="1" source="XsbqqY5qWIHZAGbf9mzU-16" target="XsbqqY5qWIHZAGbf9mzU-20" edge="1">
          <mxGeometry relative="1" as="geometry">
            <Array as="points">
              <mxPoint x="1980" y="3238" />
              <mxPoint x="2046" y="3238" />
            </Array>
          </mxGeometry>
        </mxCell>
        <mxCell id="XsbqqY5qWIHZAGbf9mzU-16" value="" style="whiteSpace=wrap;html=1;aspect=fixed;" parent="1" vertex="1">
          <mxGeometry x="1972.5" y="3260" width="15" height="15" as="geometry" />
        </mxCell>
        <mxCell id="XsbqqY5qWIHZAGbf9mzU-25" value="" style="edgeStyle=orthogonalEdgeStyle;rounded=0;orthogonalLoop=1;jettySize=auto;html=1;entryX=0;entryY=0.5;entryDx=0;entryDy=0;" parent="1" source="XsbqqY5qWIHZAGbf9mzU-17" target="XsbqqY5qWIHZAGbf9mzU-19" edge="1">
          <mxGeometry relative="1" as="geometry">
            <Array as="points">
              <mxPoint x="1980" y="3183" />
              <mxPoint x="2046" y="3183" />
            </Array>
          </mxGeometry>
        </mxCell>
        <mxCell id="XsbqqY5qWIHZAGbf9mzU-17" value="" style="whiteSpace=wrap;html=1;aspect=fixed;" parent="1" vertex="1">
          <mxGeometry x="1972.5" y="3140" width="15" height="15" as="geometry" />
        </mxCell>
        <mxCell id="XsbqqY5qWIHZAGbf9mzU-22" value="" style="edgeStyle=orthogonalEdgeStyle;rounded=0;orthogonalLoop=1;jettySize=auto;html=1;entryX=0.5;entryY=1;entryDx=0;entryDy=0;exitX=0;exitY=0.5;exitDx=0;exitDy=0;" parent="1" source="XsbqqY5qWIHZAGbf9mzU-19" target="XsbqqY5qWIHZAGbf9mzU-17" edge="1">
          <mxGeometry relative="1" as="geometry">
            <Array as="points">
              <mxPoint x="1980" y="3182" />
            </Array>
          </mxGeometry>
        </mxCell>
        <mxCell id="XsbqqY5qWIHZAGbf9mzU-19" value="" style="whiteSpace=wrap;html=1;aspect=fixed;" parent="1" vertex="1">
          <mxGeometry x="2046" y="3175" width="15" height="15" as="geometry" />
        </mxCell>
        <mxCell id="XsbqqY5qWIHZAGbf9mzU-24" value="" style="edgeStyle=orthogonalEdgeStyle;rounded=0;orthogonalLoop=1;jettySize=auto;html=1;" parent="1" source="XsbqqY5qWIHZAGbf9mzU-20" target="XsbqqY5qWIHZAGbf9mzU-16" edge="1">
          <mxGeometry relative="1" as="geometry" />
        </mxCell>
        <mxCell id="XsbqqY5qWIHZAGbf9mzU-20" value="" style="whiteSpace=wrap;html=1;aspect=fixed;" parent="1" vertex="1">
          <mxGeometry x="2046" y="3230" width="15" height="15" as="geometry" />
        </mxCell>
        <mxCell id="XsbqqY5qWIHZAGbf9mzU-54" value="«Component»&lt;br&gt;&lt;b&gt;Finger Print Sensor&lt;/b&gt;" style="html=1;dropTarget=0;whiteSpace=wrap;" parent="1" vertex="1">
          <mxGeometry x="2054" y="1873" width="180" height="90" as="geometry" />
        </mxCell>
        <mxCell id="XsbqqY5qWIHZAGbf9mzU-55" value="" style="shape=module;jettyWidth=8;jettyHeight=4;" parent="XsbqqY5qWIHZAGbf9mzU-54" vertex="1">
          <mxGeometry x="1" width="20" height="20" relative="1" as="geometry">
            <mxPoint x="-27" y="7" as="offset" />
          </mxGeometry>
        </mxCell>
        <mxCell id="XsbqqY5qWIHZAGbf9mzU-56" value="«Component»&lt;br&gt;&lt;b&gt;Alarm&lt;/b&gt;" style="html=1;dropTarget=0;whiteSpace=wrap;" parent="1" vertex="1">
          <mxGeometry x="1866" y="1880" width="180" height="90" as="geometry" />
        </mxCell>
        <mxCell id="XsbqqY5qWIHZAGbf9mzU-57" value="" style="shape=module;jettyWidth=8;jettyHeight=4;" parent="XsbqqY5qWIHZAGbf9mzU-56" vertex="1">
          <mxGeometry x="1" width="20" height="20" relative="1" as="geometry">
            <mxPoint x="-27" y="7" as="offset" />
          </mxGeometry>
        </mxCell>
        <mxCell id="XsbqqY5qWIHZAGbf9mzU-58" value="" style="whiteSpace=wrap;html=1;aspect=fixed;" parent="1" vertex="1">
          <mxGeometry x="2066" y="1977.5" width="15" height="15" as="geometry" />
        </mxCell>
        <mxCell id="XsbqqY5qWIHZAGbf9mzU-59" value="" style="whiteSpace=wrap;html=1;aspect=fixed;" parent="1" vertex="1">
          <mxGeometry x="2134.5" y="1957.5" width="15" height="15" as="geometry" />
        </mxCell>
        <mxCell id="XsbqqY5qWIHZAGbf9mzU-60" value="" style="endArrow=classic;startArrow=classic;html=1;rounded=0;exitX=1;exitY=0.25;exitDx=0;exitDy=0;entryX=0;entryY=0.75;entryDx=0;entryDy=0;" parent="1" source="XsbqqY5qWIHZAGbf9mzU-58" target="XsbqqY5qWIHZAGbf9mzU-59" edge="1">
          <mxGeometry width="50" height="50" relative="1" as="geometry">
            <mxPoint x="2050" y="2010" as="sourcePoint" />
            <mxPoint x="2100" y="1960" as="targetPoint" />
          </mxGeometry>
        </mxCell>
        <mxCell id="XsbqqY5qWIHZAGbf9mzU-61" value="" style="whiteSpace=wrap;html=1;aspect=fixed;direction=south;flipH=0;flipV=0;" parent="1" vertex="1">
          <mxGeometry x="1948.5" y="1875" width="15" height="15" as="geometry" />
        </mxCell>
        <mxCell id="XsbqqY5qWIHZAGbf9mzU-62" value="" style="whiteSpace=wrap;html=1;aspect=fixed;direction=south;flipH=0;flipV=0;" parent="1" vertex="1">
          <mxGeometry x="2022.5" y="1850" width="15" height="15" as="geometry" />
        </mxCell>
        <mxCell id="XsbqqY5qWIHZAGbf9mzU-63" value="" style="endArrow=classic;startArrow=classic;html=1;rounded=0;entryX=0.75;entryY=1;entryDx=0;entryDy=0;exitX=0.25;exitY=0;exitDx=0;exitDy=0;" parent="1" source="XsbqqY5qWIHZAGbf9mzU-61" target="XsbqqY5qWIHZAGbf9mzU-62" edge="1">
          <mxGeometry width="50" height="50" relative="1" as="geometry">
            <mxPoint x="2050" y="1910" as="sourcePoint" />
            <mxPoint x="2000" y="1960" as="targetPoint" />
          </mxGeometry>
        </mxCell>
      </root>
    </mxGraphModel>
  </diagram>
</mxfile>
